<svg width="458" height="152" viewBox="0 0 458 152" fill="none" xmlns="http://www.w3.org/2000/svg">
<path fill-rule="evenodd" clip-rule="evenodd" d="M228.028 0.490615C228.028 0.844599 229.252 10.4894 230.748 21.9232C233.515 43.0727 234.793 53.6552 234.8 55.483C234.805 56.4826 234.751 56.4726 231.702 54.9179C229.996 54.0481 228.37 53.336 228.088 53.336C227.346 53.336 227.415 54.0856 229.136 64.721C230.798 74.9856 232.998 90.9235 232.998 92.6993C232.998 93.6491 232.7 93.4755 230.361 91.1586L227.724 88.5478L229.631 100.215C236.758 143.817 238.206 152.284 238.484 151.993C238.844 151.616 239.881 140.083 240.911 124.992C241.302 119.273 241.67 114.289 241.729 113.916C241.788 113.543 242.93 115.323 244.268 117.872C245.605 120.42 246.836 122.505 247.004 122.505C247.331 122.505 247.884 103.216 247.942 89.7689L247.977 81.5915L250.628 87.1296C252.087 90.1757 253.494 92.6677 253.755 92.6677C254.375 92.6677 254.356 91.1916 253.582 79.5571C253.227 74.2112 252.8 66.8874 252.632 63.282C252.273 55.5237 252.109 55.5151 256.945 63.508C258.75 66.4918 260.454 69.0791 260.73 69.2577C262.635 70.4869 274.611 66.0989 278.374 62.7933L279.968 61.3931L282.573 62.2616L285.178 63.1301L285.415 77.7858C285.636 91.4723 285.715 92.5763 286.605 94.476C287.743 96.906 291.106 100.231 297.809 105.552L302.759 109.482L306.223 109.325C309.381 109.181 310.14 108.941 314.826 106.595C324.91 101.547 326.128 99.463 326.795 86.1124C327.196 78.0792 325.011 58.3944 323.36 55.1579C322.23 52.945 317.863 48.8911 313.603 46.1013C310.395 44 309.827 43.7803 308.102 43.9715C305.84 44.2215 299.655 47.2478 293.31 51.2085C289.136 53.8143 288.698 54.2262 287.554 56.6209C286.789 58.2222 286.032 59.2132 285.574 59.2132C284.266 59.2132 281.251 58.1553 281.047 57.625C280.939 57.3433 281.367 51.0729 281.998 43.6907C282.629 36.3091 283.145 29.4477 283.145 28.4436C283.145 25.5064 282.76 24.949 270.573 10.2421C264.633 3.07249 265.974 3.49383 258.186 6.34831C255.516 7.32663 253.026 8.12728 252.652 8.12728C252.1 8.12728 251.972 7.40439 251.972 4.28453V0.441789H248.204C246.132 0.441789 240.745 0.307971 236.232 0.144316C229.297 -0.107045 228.028 -0.0532466 228.028 0.490615ZM262.273 11.8615C263.514 13.3575 265.049 29.9875 265.203 43.5895L265.3 52.1529L261.911 52.2099C260.048 52.2411 257.047 52.435 255.243 52.6407L251.963 53.0146L252.08 33.177L252.198 13.3389L256.264 12.3615C261.196 11.1757 261.672 11.1364 262.273 11.8615ZM166.812 13.6197C165.406 14.3855 152.152 27.6891 152.397 28.0874C152.518 28.2822 153.218 28.3211 153.954 28.1737L155.292 27.9061L155.264 39.3778C155.223 55.978 154.564 75.3405 153.946 78.0833C153.516 79.9907 152.962 80.893 151.1 82.7172C149.829 83.9627 148.625 84.9822 148.426 84.9822C147.762 84.9822 148.052 85.7842 148.854 86.1666C149.289 86.3741 154.96 86.5486 161.456 86.5541L173.269 86.5645L171.583 84.7344L169.898 82.9044L169.598 69.1767C169.432 61.6264 169.297 49.9852 169.297 43.3069V31.1643L170.439 30.6439C171.133 30.3275 171.733 30.2868 171.969 30.5404C172.183 30.7701 173.017 33.2254 173.823 35.9967L175.288 41.0352L174.027 42.6894C172.879 44.1957 172.83 44.4068 173.479 45.0565C174.129 45.7066 174.347 45.6772 175.924 44.7301C181.092 41.6243 187.321 37.3841 187.535 36.8253C187.878 35.9302 186.453 31.9903 183.817 26.5444C181.555 21.8735 180.137 19.8816 179.072 19.8816C178.753 19.8816 176.64 21.1022 174.377 22.5941C172.114 24.086 170.177 25.3066 170.074 25.3066C169.971 25.3066 169.765 22.7315 169.616 19.5841C169.313 13.173 168.971 12.4443 166.812 13.6197ZM51.1204 16.3245C51.0057 16.5103 51.7037 17.396 52.6718 18.292C54.3479 19.844 54.446 20.0886 54.7211 23.4056C55.3251 30.6842 55.8569 44.0321 55.9771 54.9183L56.1017 66.2205L52.5002 68.8006C48.3962 71.7401 42.2358 75.289 40.4955 75.7162C39.3295 76.0023 39.3191 75.9806 39.0309 72.6949C38.8714 70.8743 38.6053 59.9252 38.4399 48.3631C38.1147 25.6479 38.0903 25.9431 40.4942 23.7663C42.6211 21.84 42.2127 21.7848 27.5516 22.0231C19.1368 22.1596 13.4815 22.4282 13.2077 22.7039C12.9064 23.0077 12.9366 23.2256 13.299 23.359C14.6805 23.8676 16.8468 25.6624 17.5646 26.8921C18.2513 28.0689 18.4492 30.8022 19.0573 47.5457C19.4431 58.1598 19.7585 69.6162 19.7585 73.0046V79.1661L18.742 78.8645C15.3563 77.86 4.39802 71.1474 4.39802 70.0777C4.39802 69.853 6.16628 68.6717 8.32714 67.452C12.4731 65.112 13.3636 64.1861 11.4679 64.1861C9.80671 64.1861 4.02982 65.428 1.76416 66.2721C-0.00229287 66.9303 -0.163578 67.1138 0.100261 68.1659C0.581404 70.0854 3.75785 75.185 5.75381 77.2433C7.07255 78.6028 9.43761 80.0589 13.8027 82.1973L19.9844 85.2263L19.9771 99.232C19.9704 112.894 19.9446 113.29 18.938 115.349C17.8633 117.547 16.0471 119.207 13.2624 120.536C12.352 120.97 11.6265 121.65 11.6265 122.067C11.6265 122.741 12.8671 122.848 23.7115 123.109C34.846 123.376 38.8226 123.666 43.3693 124.541C45.5848 124.968 45.3061 124.085 42.7264 122.505C39.2911 120.401 39.4298 121.242 39.2509 101.421L39.0914 83.686L41.058 83.1847C45.3788 82.0843 50.3746 80.1498 52.9547 78.5788C54.7188 77.5046 55.8334 77.0756 56.1266 77.3582C56.4139 77.6353 56.5716 84.569 56.5598 96.42C56.5341 122.108 55.9974 124.599 49.565 128.906C48.6406 129.525 48.5331 129.799 48.9474 130.488C49.4059 131.251 50.23 131.327 58.6606 131.383C64.3282 131.421 70.0874 131.737 73.6289 132.204C76.795 132.62 79.5906 132.835 79.8409 132.68C80.6676 132.168 80.3193 131.573 78.5339 130.445C76.181 128.959 74.5709 125.608 73.9596 120.923C73.6646 118.664 73.5359 107.638 73.6167 91.5514L73.7459 65.7965L75.7789 65.0478C76.8971 64.636 79.1817 63.9895 80.856 63.6106L83.9001 62.9216L80.9821 66.1211C77.4979 69.9412 76.4991 71.8427 76.7995 74.0832C76.9197 74.9815 78.5818 80.5635 80.4932 86.4876C83.9263 97.1302 83.9859 97.2663 85.5062 97.9015C88.4739 99.1424 89.7488 98.7934 93.9946 95.5782C96.1491 93.9466 98.1162 92.7382 98.3656 92.8923C98.6154 93.047 98.8196 93.7441 98.8196 94.4416C98.8196 95.1397 99.2411 96.2464 99.7561 96.9015C100.518 97.8716 101.068 98.0927 102.715 98.0927C105.364 98.0927 106.873 97.2622 108.601 94.8539C109.379 93.7694 111.883 91.2571 114.165 89.2711L118.313 85.6603L116.811 85.5382C115.985 85.4713 114.864 85.3176 114.318 85.1969L113.327 84.9776L113.415 69.2699C113.463 60.6305 113.336 52.3939 113.131 50.9662C112.866 49.1081 112.264 47.6298 111.014 45.7672C109.413 43.3811 96.7211 29.6394 95.3237 28.7791C93.9042 27.9052 78.0378 37.2747 78.0378 38.9872C78.0378 41.273 84.3876 53.336 85.5911 53.336C85.9706 53.336 86.1707 52.6737 86.1725 51.4147C86.177 47.7609 86.8412 46.4327 89.4389 44.8788C92.637 42.9665 97.8415 40.4493 98.0778 40.7006C98.4324 41.0777 99.2425 51.7031 99.5424 59.9085C99.706 64.3941 99.6884 72.3214 99.5027 77.5254L99.1648 86.9876L97.682 88.4714C96.8666 89.2874 96.0263 89.9547 95.8153 89.9542C95.1588 89.9533 91.555 76.3532 90.8389 71.175L90.1586 66.2549L93.0278 63.5252C94.6059 62.0238 96.3005 60.5649 96.7938 60.2833C97.2867 60.0016 97.5203 59.5947 97.3129 59.3791C96.6343 58.6743 81.3109 59.0197 77.3601 59.8289C75.3723 60.2362 73.5806 60.5694 73.3791 60.5694C73.1771 60.5694 73.0782 52.4829 73.1595 42.599C73.3032 25.0385 73.3303 24.5715 74.3454 22.142C74.9169 20.7744 75.9099 18.8888 76.5524 17.952C77.1948 17.0149 77.6118 16.1401 77.4794 16.0076C77.3471 15.8747 74.8261 15.9782 71.8778 16.2368C65.674 16.7816 58.8043 16.8178 54.4053 16.3286C52.7134 16.1401 51.2352 16.1383 51.1204 16.3245ZM342.861 19.7798C337.553 26.44 328.772 34.2656 322.901 37.5677C321.606 38.296 321.094 38.8801 321.094 39.6305C321.094 40.669 321.141 40.6776 326.693 40.6776C331.24 40.6776 332.341 40.8042 332.551 41.3521C333.32 43.3585 333.813 60.3434 333.338 68.481C332.48 83.1706 331.852 100.389 332.011 104.812L332.163 109.045L334.24 110.915C337.14 113.527 351.147 120.603 352.156 119.966C353.443 119.154 353.194 118.71 350.221 116.51C345.328 112.89 345.636 114.856 346.569 93.1726C347.014 82.8248 347.492 66.9077 347.63 57.8013L347.881 41.2445L350.592 40.961C352.083 40.8051 353.994 40.6776 354.839 40.6776C356.339 40.6776 356.368 40.6414 356.127 39.0953C355.992 38.225 355.771 36.8009 355.635 35.9307L355.388 34.3484H351.569H347.749L347.747 31.5228C347.743 23.9625 347.142 15.8128 346.589 15.8128C346.277 15.8128 344.599 17.5981 342.861 19.7798ZM123.081 24.1533C112.906 31.2493 111.394 32.4383 112.027 32.8465C112.341 33.0495 114.429 33.2163 116.665 33.2168L120.731 33.2181L121.017 37.739C121.174 40.2255 121.326 52.2795 121.356 64.5261L121.408 86.7919L119.194 88.3841C115.091 91.334 115.018 91.3114 128.576 91.3114C135.236 91.3114 140.826 91.1694 140.999 90.9963C141.172 90.8231 140.502 89.9583 139.509 89.0749L137.704 87.4686L136.568 73.2279C135.944 65.3955 135.323 55.6304 135.19 51.5277C135.056 47.425 134.838 41.881 134.704 39.2083C134.472 34.5604 134.501 34.3484 135.37 34.3484C136.125 34.3484 136.507 35.0916 137.634 38.7562C138.379 41.1803 139.302 44.3743 139.685 45.8531L140.38 48.5426L139.184 49.7926C138.192 50.8288 138.084 51.1601 138.555 51.728C139.233 52.5458 139.092 52.6113 146.171 48.2107C148.982 46.4634 151.48 44.6632 151.723 44.2102C152.276 43.1763 151.719 41.0293 149.361 35.1088C146.943 29.0359 145.523 26.3337 144.443 25.7555C143.137 25.0557 140.905 25.7872 137.594 27.9997C135.669 29.2859 134.708 29.6968 134.482 29.3302C134.302 29.039 134.013 27.0973 133.84 25.0159C133.578 21.8757 133.361 21.1171 132.562 20.5565C130.697 19.25 129.415 19.736 123.081 24.1533ZM368.484 25.6226C364.515 32.9727 358.353 41.3815 353.662 45.8481C352.888 46.585 352.267 47.6415 352.267 48.2216C352.267 49.2148 352.426 49.2672 355.429 49.2672C357.169 49.2672 358.628 49.3179 358.673 49.3803C358.718 49.4427 358.876 64.0392 359.026 81.8175C359.175 99.5959 359.448 114.453 359.632 114.834C360.595 116.82 369.167 120.938 380.65 124.932C387.928 127.464 388.825 127.521 390.441 125.557C391.106 124.749 393.462 122.231 395.676 119.963C397.892 117.694 399.704 115.613 399.704 115.338C399.704 114.606 398.588 114.46 388.895 113.925C383.608 113.634 379.956 113.605 379.707 113.853C379.11 114.451 379.534 114.604 384.9 115.728C391.767 117.165 391.886 117.314 388.451 120.174C386.912 121.456 385.306 122.487 384.884 122.464C384.462 122.442 381.983 121.272 379.374 119.865L374.63 117.306L374.347 110.299C374.191 106.445 373.904 91.2698 373.71 76.5765L373.356 49.8613L374.84 49.5643C375.656 49.4011 377.899 49.2672 379.825 49.2672H383.327L383.609 47.8545C383.764 47.0773 383.891 45.8567 383.891 45.1419V43.8422H378.518H373.145L372.822 36.2697C372.354 25.3229 371.995 21.562 371.398 21.364C371.111 21.269 369.8 23.1854 368.484 25.6226ZM428.392 39.7965C418.331 48.6113 417.516 49.7193 421.093 49.7193H423.055L423.352 56.5725C423.853 68.1799 423.706 99.2681 423.139 101.524C422.499 104.066 419.265 107.775 417.051 108.506C415.935 108.875 415.531 109.235 415.711 109.703C415.852 110.072 415.968 110.458 415.968 110.562C415.968 110.666 417.276 110.751 418.873 110.751C420.692 110.751 423.778 111.281 427.118 112.167C437.944 115.038 439.479 115.298 447.253 115.581C454.681 115.852 454.821 115.839 454.821 114.926C454.821 114.182 454.435 113.932 452.901 113.678C448.226 112.906 443.976 111.186 441.977 109.256C439.582 106.944 439.661 107.512 438.995 87.6947C437.632 47.0941 437.652 48.6402 438.476 47.991C440.733 46.2111 440.641 46.1049 442.83 53.0286C443.958 56.596 444.881 59.8036 444.881 60.1567C444.881 60.5098 444.167 61.8045 443.293 63.0342C441.897 64.9981 441.785 65.3503 442.367 65.9321C442.821 66.3874 443.213 66.4556 443.616 66.15C448.832 62.2001 457.486 55.0106 457.701 54.4495C458.411 52.5973 457.895 50.4635 455.73 46.297C452.789 40.6364 449.777 35.7801 449.027 35.4881C448.699 35.3601 446.127 36.6662 443.312 38.3905C437.616 41.8797 437.732 41.8932 437.614 37.739C437.543 35.2231 437.053 33.6937 436.278 33.569C435.916 33.5106 432.367 36.3131 428.392 39.7965ZM399.681 40.126C399.033 40.2061 395.668 42.5583 392 45.4959C388.41 48.3712 385.008 51.0923 384.439 51.5431C382.773 52.8645 382.078 60.2579 382.006 77.4441L381.945 91.8322L386.194 96.1248C388.53 98.486 391.73 101.452 393.305 102.716C395.938 104.83 396.409 105.036 399.178 105.283C404.876 105.793 404.731 105.878 410.195 98.7708C412.871 95.2898 415.061 92.1365 415.063 91.7635C415.065 90.7992 410.449 84.078 409.785 84.078C409.481 84.078 409.106 84.8411 408.951 85.7733C408.422 88.9727 405.982 97.4155 404.901 99.788C404.306 101.094 403.529 102.161 403.175 102.161C402.254 102.161 398.861 98.345 398.026 96.3703C396.908 93.7283 395.976 69.3955 396.934 67.8829C397.41 67.131 398.61 67.3245 408.256 69.7102L415.679 71.5461L416.902 70.1763C417.575 69.4231 418.865 67.5429 419.769 65.999L421.414 63.1911L418.425 55.2122C416.782 50.8233 415.25 47.0068 415.021 46.7301C414.358 45.929 403.772 40.5799 402.231 40.2675C401.462 40.1116 400.314 40.0478 399.681 40.126ZM404.633 54.2737C406.689 59.5138 408.273 63.8995 408.152 64.0198C408.032 64.14 405.364 63.989 402.222 63.6843L396.51 63.1301L396.788 58.5721C397.434 47.9702 398.203 44.7464 400.084 44.7464C400.721 44.7464 401.7 46.7975 404.633 54.2737ZM203.316 45.9566C203.466 46.1994 204.391 46.76 205.372 47.2026L207.156 48.0077L205.912 51.6891C205.227 53.714 204.103 56.4893 203.412 57.8569C201.838 60.9786 195.086 72.8667 194.587 73.3952C194.184 73.8237 194.166 73.7695 191.168 62.7227C190.039 58.5608 189.179 54.5942 189.257 53.9079C189.364 52.9784 189.825 52.4603 191.061 51.8803C194.149 50.43 193.631 50.1185 188.647 50.4273C186.08 50.5864 180.946 50.8482 177.24 51.0091C172.917 51.1968 170.439 51.4829 170.332 51.8066C170.24 52.0847 170.789 52.4364 171.55 52.5892C172.659 52.8107 173.111 53.275 173.811 54.9084C175.452 58.7394 184.657 88.5175 184.657 89.9945C184.657 90.4267 182.304 94.5388 179.428 99.1325L174.199 107.485L170.434 107.799C164.948 108.257 150.077 106.974 146.915 105.771C145.607 105.273 145.562 104.862 146.537 102.306C147.209 100.546 147.474 100.328 149.702 99.6999C151.04 99.3233 153.279 98.6922 154.677 98.2975C156.075 97.9033 157.04 97.4173 156.82 97.2179C156.601 97.0185 153.695 96.6148 150.363 96.3205L144.305 95.7852L142.314 97.7301C140.174 99.8197 136.769 104.617 136.769 105.541C136.769 106.309 143.113 109.152 149.419 111.209C157.258 113.766 168.822 115.724 176.085 115.724H178.26L181.154 111.768C188.563 101.641 195.832 89.8358 203.633 75.2623C206.427 70.0407 209.579 64.2426 210.636 62.3778C212.806 58.5468 218.541 47.1094 218.541 46.6112C218.541 46.4313 217.779 46.2857 216.847 46.2866C215.915 46.288 212.428 46.1148 209.098 45.9024C205.178 45.6519 203.14 45.6709 203.316 45.9566ZM309.14 51.3663C308.727 53.5689 305.615 56.8311 302.571 58.252C301.205 58.8899 299.934 59.4858 299.748 59.5762C299.561 59.6666 299.409 58.8438 299.409 57.7475C299.409 55.3876 299.775 54.9866 305.274 51.3215C307.4 49.9038 309.18 48.9897 309.273 49.2677C309.364 49.5426 309.305 50.4874 309.14 51.3663ZM261.764 56.9722C263.626 57.2611 265.101 57.7276 265.232 58.0698C265.536 58.8628 262.773 62.8199 261.911 62.8254C261.539 62.8276 260.103 61.5581 258.722 60.0039C255.251 56.0987 255.179 55.9405 257.01 56.2303C257.842 56.3619 259.981 56.6955 261.764 56.9722ZM310.427 62.9429C312.113 74.5991 312.583 87.3873 311.63 95.6939C311.027 100.938 310.681 101.822 308.764 103.007C305.943 104.753 304.817 104.704 302.958 102.756C301.319 101.04 301.308 101.004 300.825 95.3802C300.261 88.8258 299.242 64.914 299.493 64.1581C299.822 63.1726 305.419 61.0884 307.828 61.0541L310.149 61.0215L310.427 62.9429Z" fill="white"/>
</svg>
