<?xml version="1.0" encoding="UTF-8"?>
<!DOCTYPE svg PUBLIC "-//W3C//DTD SVG 1.1//EN" "http://www.w3.org/Graphics/SVG/1.1/DTD/svg11.dtd">
<!-- Creator: CorelDRAW 2020 (64 Bit) -->
<svg xmlns="http://www.w3.org/2000/svg" xml:space="preserve" width="373.885mm" height="59.2666mm" version="1.1" style="shape-rendering:geometricPrecision; text-rendering:geometricPrecision; image-rendering:optimizeQuality; fill-rule:evenodd; clip-rule:evenodd"
viewBox="0 0 37388.52 5926.66"
 xmlns:xlink="http://www.w3.org/1999/xlink"
 xmlns:xodm="http://www.corel.com/coreldraw/odm/2003">
 <defs>
  <style type="text/css">
   <![CDATA[
    .str0 {stroke:#AF9855;stroke-width:105.83;stroke-miterlimit:22.9256}
    .fil0 {fill:none}
    .fil1 {fill:#AF9855}
   ]]>
  </style>
 </defs>
 <g id="Camada_x0020_1">
  <metadata id="CorelCorpID_0Corel-Layer"/>
  <g id="section-lufa-lufa.svg">
   <line class="fil0 str0" x1="15797.07" y1="2595.73" x2="557.07" y2= "2595.74" />
   <line class="fil0 str0" x1="36831.45" y1="2595.73" x2="21591.45" y2= "2595.74" />
   <path class="fil1" d="M18579.32 265.75c-54.92,42.75 -107.81,83.5 -117.52,90.59 -13.55,9.87 -59.88,10.28 -198.36,1.77 -99.38,-6.1 -182.7,-9.1 -185.13,-6.65 -2.46,2.44 3.36,27.36 12.91,55.34 9.69,28.44 13.23,54.62 8.02,59.31 -5.16,4.61 -28.68,13.39 -52.31,19.53 -23.6,6.13 -180.6,52.26 -348.85,102.52 -168.28,50.26 -356.69,106.33 -418.68,124.58 -61.99,18.27 -132.03,39.94 -155.65,48.18 -23.6,8.23 -70.73,22.73 -104.67,32.21 -33.95,9.47 -61.73,23.15 -61.73,30.39 0,7.23 29.66,65.41 65.93,129.27 74.72,131.6 74.3,110.53 5.69,274.18 -20.82,49.63 -44.24,93.42 -52.04,97.29 -7.81,3.87 -64.24,20.91 -125.41,37.87 -61.15,16.96 -113.59,37.07 -116.53,44.68 -2.93,7.62 26.2,92.48 64.69,188.58 82.61,206.18 78.72,172.78 88.11,757.99l6.3 391.27 -105.09 171.23 -250.3 -7.03 0 644.71 -26.83 6.72c-35.85,8.99 -35.85,52.49 0,105.22l26.83 39.5 0 596c49.24,2.02 318.91,10.84 334.38,20.4 7.86,4.87 9.45,46.7 4.92,130.07l-6.69 122.9 161.58 217.17c149.41,200.87 164.94,218.18 206.72,230.51 24.84,7.32 81.38,27.17 125.67,44.1 73.45,28.07 604.84,216.8 791.74,281.2 87.42,30.14 81.05,25.03 464.03,369.31 40.82,36.69 24.92,46.14 209.52,-124.62 171.22,-158.33 233.9,-208.26 286.97,-228.47 31.12,-11.85 225.64,-81.39 432.3,-154.54 206.64,-73.16 385.37,-137.4 397.17,-142.75 11.83,-5.34 58.6,-22.72 103.98,-38.62 45.38,-15.91 84.93,-35.22 87.9,-42.92 2.96,-7.7 26.8,-42.15 52.96,-76.52 82.45,-108.34 163.49,-217.91 244.9,-327.05 -2.02,-125.43 -18.86,-1080.8 -11.96,-1080.8 6.86,0 95.03,79.84 110.1,93.27l-7.91 84.48c-5.43,57.71 -18.26,107.53 -40.54,157.27 -17.94,40.06 -30.72,74.45 -28.39,76.46 17.23,14.85 198.23,124.52 205.48,124.52 5.05,0 47.6,-29.74 94.51,-66.07 68.29,-52.86 85.25,-71.6 84.9,-93.79 -0.26,-15.27 -9.42,-155.58 -20.4,-311.82l-19.89 -284.05 127.34 -524.9c-167.46,-141.77 -339.82,-277.93 -507.58,-419.32l20.64 -577.97 71.36 -171.25c39.24,-94.19 71.33,-176.57 71.33,-183.08 0,-6.5 -24.9,-17.56 -55.32,-24.57 -68.88,-15.87 -137.28,-37.61 -204.98,-58.14 -28.19,-62.81 -56.79,-125.49 -80.64,-190.13l-21.78 -59.05 68.05 -123.19c37.44,-67.75 64.27,-127.01 59.61,-131.68 -8.78,-8.84 -494.32,-159.06 -892.09,-276.02 -126.95,-37.33 -232.99,-69.56 -235.69,-71.64 -2.67,-2.08 1.35,-19.28 8.97,-38.21 32.57,-80.93 44.66,-75.05 -136.4,-66.33l-162.24 7.81c-32.87,-25.84 -232.72,-184.94 -244.63,-184.94 -5.16,0 -54.32,34.97 -109.28,77.72zm103.75 270.62c-0.24,162.16 -2.36,294.83 -4.74,294.83 -2.35,0 -18.02,-30.14 -34.79,-66.99 -16.75,-36.85 -62.44,-133.52 -101.52,-214.81 -39.08,-81.3 -70.75,-151.25 -70.35,-155.44 1.05,-11.61 196.9,-161.28 204.86,-156.55 3.84,2.28 6.75,136.81 6.54,298.96zm158.25 -194.23c35.42,29.26 63.13,59.03 61.56,66.16 -1.56,7.12 -48.39,106.41 -104.03,220.61l-101.18 207.65 -1.27 -608.19c49.28,37.08 97.3,74.45 144.92,113.77zm-449.35 56.06l65.91 5.68 97.79 206.8c53.79,113.75 97.79,210.07 97.79,214.05 0,12.36 -38.26,-12.49 -76.33,-49.55 -20,-19.48 -65.38,-60.13 -100.81,-90.33 -214.63,-182.94 -333.19,-286.74 -336.18,-294.3 -3.25,-8.17 106.74,-4.83 251.83,7.65zm793.17 28.34c-0.77,19.17 -6.64,44.48 -13.04,56.28 -24.4,44.93 -126.84,255.66 -127.24,261.67 -0.21,3.48 -11.91,30.85 -25.96,60.84l-25.53 54.51c-32.14,0.01 -275.51,1.13 -275.51,-3.75 0,-3.28 52.2,-53.03 183.54,-174.96 25.46,-23.62 144.36,-130.33 207.3,-186.04 12.36,-10.93 34.08,-29.09 48.26,-40.35 34.08,-27.02 18.2,-41.16 -6.93,-13.75 -10.37,11.31 -67.18,62.72 -126.2,114.24 -59.06,51.53 -148.33,131.96 -198.44,178.74 -50.09,46.77 -93.08,83.04 -95.54,80.59 -5.75,-5.73 168.18,-358.25 191.87,-406.78l88.61 -6.05c188.81,-12.87 176.43,-14.63 174.81,24.81zm-926.12 89.52c226.54,193.16 383.62,331.21 383.67,337.23 0,3.3 -78.05,5.71 -173.51,5.35 -144.83,-0.53 -174.23,-3.29 -177.8,-16.72 -3.63,-13.65 -20.32,-57.63 -67.07,-176.87 -20.1,-51.18 -38.94,-102.92 -60.54,-153.49 -8.36,-19.57 -12.75,-39.52 -9.79,-44.34 2.99,-4.82 -1.75,-14.73 -10.53,-22.02 -15.4,-12.76 -21.77,-32.06 -10.58,-32.06 2.99,0 59.77,46.31 126.15,102.92zm-174.52 -2.61c0,3.06 -173.83,149.08 -246.85,207.34 -66.42,53.01 -130.67,109.2 -197.68,161.48 -17.09,13.35 -28.76,26.56 -25.95,29.36 2.8,2.8 29.47,-15.35 59.29,-40.35 29.82,-24.98 75.3,-62.32 101.07,-82.95 25.8,-20.64 90.41,-73.71 143.62,-117.94 169.01,-140.48 198.33,-162.26 209.39,-155.45 5.95,3.66 10.8,15.06 10.8,25.32 0,10.27 4.31,23.26 9.55,28.85 15.32,16.34 79.69,208.71 72.31,216.09 -3.71,3.68 -6.8,-0.13 -6.88,-8.48 -0.11,-9.07 -3.34,-10.87 -8.05,-4.47 -16.13,21.93 -97.49,59.54 -104.48,48.29 -4.42,-7.16 -17.22,-4.08 -35.66,8.6 -33.77,23.18 -90.86,47.07 -104.86,43.85 -5.37,-1.24 -33.6,8.76 -62.71,22.21 -29.1,13.45 -65.85,25.12 -81.67,25.91 -15.82,0.79 -35.48,6.79 -43.69,13.32 -17.8,14.16 -92.02,39.45 -122.29,41.66 -11.8,0.86 -43.2,11.51 -69.77,23.67 -99.27,45.42 -106.46,40.73 -37.59,-24.4 74.5,-70.43 63.21,-65.19 -45.01,20.94l-77.2 61.44c-38.93,-20.35 -312.56,-165.84 -320.23,-158.1 -3.36,3.35 3.02,9.47 14.21,13.61 11.16,4.13 22.73,10.27 25.69,13.65 2.94,3.37 24.68,16.25 48.31,28.61 23.6,12.36 61.04,32.78 83.19,45.37 22.14,12.6 40.24,19.84 40.24,16.07 0,-3.76 8.86,1.16 19.66,10.92 10.82,9.78 22.3,15.14 25.53,11.93 3.2,-3.22 8.71,1.59 12.2,10.69 4.66,12.16 -0.66,16.54 -20.14,16.54 -14.57,0 -26.59,-6.02 -26.67,-13.4 -0.13,-10.69 -1.87,-10.68 -8.7,0.04 -4.92,7.74 -23.02,11.74 -42.78,9.44 -18.84,-2.2 -34.21,-1 -34.21,2.65 0,8.41 -103.37,0.2 -117.74,-0.69l-33.39 -65.64c-18.39,-36.12 -40.19,-75.34 -48.5,-87.16 -19.32,-27.53 -20.46,-55.67 -1.67,-41.17 7.38,5.71 23.07,13.6 34.9,17.54 17.33,5.79 16.3,3.05 -5.37,-14.18 -14.77,-11.74 -32.89,-21.45 -40.27,-21.58 -32.76,-0.58 -9.13,-29.82 32.2,-39.88 25.11,-6.11 156.74,-45.26 292.52,-87.01 583.49,-179.39 735.33,-223.29 735.33,-212.54zm1235.45 86.49c61.38,49.67 113.66,88.27 116.18,85.76 2.51,-2.52 2.56,-6.13 0.1,-8.02 -38.07,-29.37 -192.35,-159.39 -192.35,-162.1 0,-2.04 15.72,0.01 34.9,4.54 41.54,9.82 794.36,236.86 909.48,274.28 44.1,14.35 88.79,26.08 99.27,26.08 34.26,0 20.16,20.86 -34.42,50.92 -29.43,16.22 -53.58,33.51 -53.66,38.43 -0.28,12.63 96.47,-47.49 96.47,-39.66 0,7.56 -92.04,175.76 -106.79,203.07 11.02,28.37 87.36,220.4 81.39,226.4 -6.22,6.2 -190.87,-115.07 -216.14,-130.06 -14.52,-8.59 -108.23,-67.65 -98.88,-52.59 3.81,6.14 79.64,56.15 168.52,111.13 88.92,54.98 157.9,103.14 153.35,107.02 -4.58,3.88 -63.4,15.04 -130.73,24.79 -67.37,9.76 -125.2,20.47 -128.54,23.79 -7.4,7.43 22.43,29.35 31.22,15.08 3.47,-5.56 22.92,-12.54 43.24,-15.49 171.58,-24.96 188.25,-16.99 144.54,69.18 -15.32,30.16 -32.04,52.25 -37.18,49.07 -5.15,-3.17 -6.95,3.43 -3.99,14.69 3.07,11.76 -3.36,29.14 -15.11,40.88 -11.24,11.24 -18.89,25.14 -16.96,30.91 1.93,5.77 -2.88,19.22 -10.69,29.9 -12.94,17.64 -21.83,8.96 -97.47,-95.22 -75.41,-103.84 -81.52,-115.9 -64.85,-128.06 16.62,-12.13 15.9,-13.34 -7.14,-12.42 -23.92,0.96 -27.41,-6.89 -54.4,-122.25 -32.97,-140.8 -37.52,-182.73 -17.7,-162.94 17.17,17.16 30.72,16.36 23.89,-1.4 -4.39,-11.44 17.04,-13.73 107.69,-11.47 64.66,1.6 113.16,-1.46 113.16,-7.17 0,-10.94 1.59,-10.79 -128.14,-12.15l-90.57 -0.95c8.85,-7.04 60.94,-50.79 67.13,-44.62 7.1,7.1 44.26,-34.11 50.88,-29.74 6.69,4.47 89.8,-44.76 89.88,-53.25 0.11,-9.44 -215.92,105.44 -246.99,121.68l-45.54 -35.37c-57.52,-44.68 -348.77,-283.74 -381,-312.76 -13.28,-11.96 -23.89,-17.28 -23.6,-11.83 1.04,17.7 385.9,322.38 385.9,332.17 0,6.5 -120.92,-37.93 -135.02,-49.6 -7.62,-6.33 -29.9,-13.12 -49.48,-15.07 -19.55,-1.95 -59.71,-14.37 -89.24,-27.59 -29.5,-13.22 -60.91,-24.93 -69.77,-26.01 -32.97,-4.02 -102.58,-30.34 -119.73,-45.26 -9.73,-8.49 -34.44,-16.99 -54.87,-18.88 -20.45,-1.9 -48.71,-10.77 -62.81,-19.71 -14.08,-8.94 -45.85,-19.5 -70.59,-23.47 -24.77,-3.98 -50.72,-14.09 -57.68,-22.47 -6.99,-8.38 -19.34,-15.24 -27.47,-15.24 -8.12,0 -14.79,-3.88 -14.79,-8.62 0,-14.36 57.13,-125.12 66.52,-128.97 4.82,-1.98 6.09,-7.91 2.83,-13.19 -9.15,-14.81 16.11,-54.43 29.48,-46.17 7.17,4.42 8.81,2.4 4.12,-5.16 -8.83,-14.28 1.7,-55.16 14.18,-55.16 4.58,0 58.58,40.63 119.97,90.32zm160.1 344.19c197.8,68.96 365.04,132.16 371.66,140.42 6.64,8.26 22.99,66.8 36.3,130.07 40.11,190.39 40.43,191.12 142.9,324.56 7.01,9.1 29.21,39.94 49.37,68.52l36.64 51.95 -28.83 156.6c-17.23,93.6 -28.74,193.71 -28.58,248.88 0.13,50.77 -2.78,114.24 -6.46,141.04l-6.69 48.74c-175.89,32.84 -351.84,63.85 -528.21,94.09 -279.4,47.9 -296.95,49.69 -309.94,31.96 -7.59,-10.34 -34.42,-58.16 -59.66,-106.27 -96.15,-183.25 -65.83,-157.02 -356.18,-308.32l-59.69 -31.1 -81.73 -255.05 -96.05 -86.19c-92.26,-82.77 -98.71,-91.65 -163.11,-223.51 -32.53,-66.66 -64.87,-133.26 -99.8,-198.68 -48.25,81.49 -97.53,162.91 -144.09,245.31 -27.28,48.31 -48.71,57.08 -229.77,94.05 -80.11,16.35 -59.9,18.35 -373.62,-37.05 -40.19,-7.09 -74.74,-11.15 -76.83,-9.01 -4.8,4.89 70.67,323.36 81.15,368.34l-15.93 134c-15.64,131.29 -15.51,134.75 6.48,171.51 82.02,137.19 106.52,187.12 101.94,207.76 -8.67,39.17 -85.11,311.97 -88.45,315.64 -1.72,1.91 -54.58,-4.57 -117.44,-14.41 -62.9,-9.84 -125.34,-15.14 -138.8,-11.76l-24.51 6.13 -7.19 -344.59c-6.43,-307.49 -10.22,-360.45 -35.09,-491.82l-27.91 -147.24 51.14 -73.41c28.1,-40.37 54.14,-75.8 57.87,-78.75 3.7,-2.95 21.91,-29.48 40.45,-58.96 25.38,-40.34 42.28,-92.51 68.42,-210.94l34.74 -157.34 384.29 -129.41c211.34,-71.18 391.05,-129.41 399.33,-129.41 8.26,0 19.5,15.68 25,34.84l10.01 34.84 744.14 5.64 21.19 -47.86c20,-45.15 22.94,-47.34 51.57,-38.53 16.69,5.14 192.19,65.77 389.97,134.72zm687.04 -27.17c-20.86,12.85 -9.25,23.04 10.74,10.72 20.81,-12.87 9.23,-23.02 -10.74,-10.72zm-2784.69 177.39c-6.69,6.7 -24.18,18.49 -38.81,26.2 -14.63,7.7 -67.68,40.65 -117.85,73.2 -110.22,71.49 -193.25,120.85 -193.25,114.9 0,-6.13 53.53,-135.8 65.38,-158.39 5.4,-10.24 9.79,-26.07 9.79,-35.19 0,-25.63 31.83,-31.91 164.41,-32.43 91.49,-0.36 119.46,2.61 110.33,11.71zm10.27 124.1c-14.95,67.06 -29.74,132.78 -32.86,146.05 -3.12,13.27 -12.68,24.12 -21.22,24.12 -9.29,0 -13.13,6.36 -9.53,15.77 8.72,22.58 -150.13,230.5 -152.34,228.06 -18.13,-19.89 -58.58,-109.83 -54.32,-120.86 3.52,-9.2 0.18,-12.6 -8.97,-9.09 -8.76,3.36 -17.62,-4.33 -22.17,-19.31 -4.21,-13.69 -14.9,-33.18 -23.79,-43.3 -8.89,-10.13 -13.79,-27.57 -10.85,-38.78 3.57,-13.67 0,-19.95 -10.93,-19.11 -21.46,1.66 -31.05,-25.54 -8.7,-25.54 23.09,0 20.04,-24.59 6.24,-16.08 -5.9,3.65 -10.74,2.63 -10.74,-2.26 0,-4.89 35.03,-30.31 77.84,-56.51 42.81,-26.2 128.43,-80.09 190.26,-119.76 61.86,-39.67 113.99,-70.6 115.86,-68.73 1.88,1.86 -8.83,58.27 -23.78,125.33zm905.38 231.54l1.16 77.45 -33.87 -6.77c-24.47,-4.88 -31.72,-3.27 -26.08,5.81 5.79,9.36 -8.21,10.78 -54.72,5.55 -70.78,-7.97 -76.41,-10.48 -60.03,-26.83 8.46,-8.45 22.62,-8.11 50.98,1.25 21.62,7.12 41.73,10.51 44.72,7.54 2.96,-2.98 -9.37,-8.65 -27.44,-12.62 -18.07,-3.95 -35.61,-11.63 -38.97,-17.05 -7.71,-12.51 110.62,-204.57 129.3,-235.74l6.88 61.98c3.81,34.09 7.43,96.83 8.07,139.43zm71.43 -43.65c26.46,56.92 46.84,104.25 45.27,105.19 -19.26,11.62 -84.69,22.95 -89.29,15.47 -8.97,-14.46 -19.4,-224.14 -11.17,-224.14 3.89,0 28.74,46.57 55.19,103.48zm-1304.76 -50.37c0,7.55 8.2,10.06 20.34,6.21 11.67,-3.7 27.36,0.58 36.89,10.08 10.21,10.21 19.1,12.39 23.23,5.73 9.34,-15.09 22.67,-13.48 41.14,4.97 13.92,13.89 17.38,13.89 28.92,0 10.45,-12.58 10.13,-15.95 -1.61,-16.6 -8.1,-0.45 -21.99,-2.32 -30.83,-4.16 -74.53,-15.45 -118.08,-17.75 -118.08,-6.23zm-40.51 40.69c14.74,22.12 45.19,73.97 67.65,115.24 22.44,41.27 48.45,86.86 57.79,101.32 16.19,25.04 15.98,25.9 -4.47,18.2 -21.96,-8.27 -182.7,-97.28 -304.14,-168.42 -37.39,-21.91 -63.53,-42.59 -58.02,-45.97 12.51,-7.73 186.24,-59.23 202.4,-60 6.59,-0.31 24.03,17.53 38.79,39.63zm3258.9 -28.67c-5.03,15.02 -23.07,15.02 -28.1,0 -5.09,-15.23 33.19,-15.23 28.1,0zm149.33 17.33c55.03,15.88 98.48,33.57 96.55,39.33 -1.93,5.76 -46.7,34.49 -99.51,63.84 -157.22,87.39 -241.91,138.55 -237.15,143.3 2.46,2.46 44.87,-19.26 94.27,-48.26 144.89,-85.05 235.9,-132.99 241.62,-127.28 4.6,4.6 -19.21,70.73 -50.93,141.4 -5.29,11.79 -21.22,50.38 -35.4,85.76 -17.57,43.81 -32.39,65.34 -46.52,67.5 -11.37,1.76 -66.43,-18.73 -122.31,-45.51 -85.07,-40.78 -101.45,-52.65 -100.65,-72.88 0.9,-22.39 84.03,-195.8 120.65,-251.57 19.97,-30.48 18.36,-30.53 139.38,4.37zm-3195.98 -5.26c0,4.7 6.06,9.17 13.41,9.93l37.57 3.89c13.31,1.4 24.16,-1.1 24.16,-5.55 0,-10.6 -75.14,-19.45 -75.14,-8.27zm-410.18 87.52c22.11,13.96 66.7,39.51 99.08,56.8 91.52,48.9 214.26,123.18 220.69,133.57 3.2,5.16 -1.11,9.38 -9.58,9.38 -8.49,0 -62.49,21.83 -120.04,48.5 -121.6,56.35 -112.61,60.16 -160.87,-68.25 -16.98,-45.15 -42.09,-107.1 -55.77,-137.68 -35.69,-79.59 -34.82,-80.96 26.49,-42.32zm3265.67 14.42c0,6.15 8.44,17.81 18.78,25.91 17.39,13.6 17.6,13.1 3.02,-6.73l-18.79 -25.91c-1.66,-2.46 -3.01,0.58 -3.01,6.73zm-2444.06 148.34l94.77 84.85 -30.35 24.64c-61.94,50.27 -132.77,88.98 -137.24,74.98 -2.41,-7.42 -16.98,-68.96 -32.44,-136.76 -13.46,-58.99 -26.87,-117.99 -40.82,-176.87 49.23,42.48 97.65,85.77 146.08,129.16zm32.67 -95.83c24.4,3.96 52.79,6.81 63.13,6.35 10.35,-0.46 18.79,3.06 18.79,7.82 0,4.76 14.5,6.95 32.2,4.9 17.72,-2.06 32.2,0.92 32.2,6.61 0,13.83 -55.29,115.71 -67.34,138.67l-28.05 -20.5c-15.42,-11.27 -57.04,-47.23 -92.47,-79.9 -35.43,-32.69 -68.02,-59.5 -72.44,-59.59 -4.45,-0.1 -8.07,-4.97 -8.07,-10.83 0,-10.33 27.36,-8.88 122.05,6.47zm425.43 -8.23c0,4.96 -22.94,9.09 -50.99,9.17 -39.4,0.12 -44.9,-1.69 -24.16,-7.95 37.52,-11.34 75.15,-11.95 75.15,-1.22zm-118.09 12.42c0,14.08 -21.48,14.08 -21.48,0 0,-14.09 21.48,-14.09 21.48,0zm476.7 25.59c63.71,49.1 97.53,81.58 84.99,81.59 -12.15,0.01 -175.26,-72.09 -185.66,-82.06 -7.94,-7.62 24.37,-24.78 46.99,-24.96 11.27,-0.09 35.4,11.36 53.68,25.43zm-240.53 -3.36c0,3.38 -37.25,17.82 -82.79,32.08 -45.56,14.27 -75.75,27.26 -67.1,28.89 8.63,1.62 51.94,-9.6 96.21,-24.93 140.81,-48.78 112.71,-61.46 321.36,145.02 102.1,101.04 183.8,185.57 181.53,187.82 -2.25,2.26 -36.94,-4.7 -77.07,-15.45 -64.03,-17.16 -72.18,-17.52 -66.57,-2.91 3.81,9.89 -5.69,30.07 -23.42,49.74l-29.84 33.09c18.53,-16.95 72.24,-69.68 93.53,-69.68 29.92,0 51.54,12.45 43.86,25.24 -4.97,8.29 -2.17,8.07 8.66,-0.67 16.61,-13.41 66.51,-6.85 60.98,8.01 -5.77,15.52 -301.04,321.17 -310.27,321.17 -5.01,0 -11.91,-13.28 -15.32,-29.48 -3.42,-16.21 -10.77,-37.85 -16.3,-48.09 -5.56,-10.24 -10.11,-30.34 -10.11,-44.67 0,-14.33 -5.26,-27.81 -11.72,-29.95 -6.46,-2.15 -12.41,-18.23 -13.28,-35.74 -0.85,-17.5 -5.9,-34.93 -11.25,-38.73 -5.29,-3.8 -10.18,-21.88 -10.85,-40.18 -0.66,-18.29 -4.47,-33.27 -8.49,-33.29 -7.27,-0.02 -41.01,-105.18 -41.01,-127.83 0,-13.13 51.81,-4.7 69.24,11.27 5.61,5.14 25.85,9.34 44.98,9.34 19.13,0 37.89,5.02 41.7,11.16 3.78,6.13 14.95,8.65 24.79,5.61 9.84,-3.06 24.82,-1.21 33.29,4.1 13.3,8.34 13.36,12.32 0.18,29.24 -14.6,18.78 -14.31,18.81 6.91,0.81 12.17,-10.31 31.01,-18.76 41.85,-18.76 40.96,0 2.31,-14.6 -104.32,-39.4 -60.7,-14.11 -122.4,-28.12 -137.16,-31.12 -14.76,-3 -43.74,-10.05 -64.4,-15.64 -47.41,-12.87 -53.68,-12.81 -53.68,0.4 0,5.9 3.62,10.16 8.04,9.46 4.44,-0.71 11.67,-0.1 16.11,1.34 11.34,3.64 22.92,6.13 34.37,9.3 2.67,0.74 -2.27,24.25 -11.01,52.26 -25.21,80.83 -124.54,423.62 -130.51,450.38 -8.52,38.05 -21.57,38.03 -34.16,-0.06 -6.38,-19.21 -64.38,-162.73 -128.88,-318.93 -64.53,-156.19 -115.84,-285.44 -114.06,-287.21 2.96,-2.99 173.46,37.07 209.81,49.29 8.87,2.98 19.37,4.77 23.34,3.99 3.99,-0.8 30.56,5.63 59.05,14.25 61.44,18.63 57.15,18.1 57.15,7.06 0,-4.88 -68.84,-24.76 -152.95,-44.19 -84.14,-19.42 -157.14,-39.12 -162.25,-43.8 -5.1,-4.67 47.18,-26.24 116.18,-47.94 68.98,-21.69 123.25,-41.64 120.55,-44.33 -2.67,-2.69 -33.23,4.47 -67.87,15.92 -103.95,34.34 -188.43,56.87 -193.65,51.65 -6.25,-6.25 50.5,-114.5 59.16,-131.63 24.44,-0.53 187.05,-3.32 190.48,-6.73 5.71,-5.73 186.98,-2.37 186.98,3.45zm199.36 45.67c9.13,-3.49 17.97,7.43 24.56,30.32 8.38,29.06 10.5,31 11.27,10.34 0.82,-21.36 3.54,-23.29 17.06,-12.09 8.87,7.35 16.78,23.61 17.57,36.15 1.4,21.84 1.67,21.79 6.14,-1.31 5.82,-30.29 24.74,-31.33 32.46,-1.77 4.24,16.07 8.23,18.52 14.29,8.73 11.78,-19.01 41.78,6.54 43.74,37.23 1.4,21.84 1.66,21.79 6.11,-1.31 6.27,-32.55 19.66,-30.38 33.2,5.36 28.26,74.61 64.46,195.63 58.48,195.63 -15.19,0 -56.31,-48.09 -56.31,-65.85 0,-12.06 -5.61,-17.09 -15,-13.49 -17.67,6.78 -49.1,-33.98 -50.16,-65.08 -0.74,-20.88 -1.09,-20.92 -8.87,-1.14 -7.64,19.53 -8.99,19.27 -26.06,-5.06 -9.89,-14.12 -18.07,-35.44 -18.18,-47.4 -0.1,-16.52 -2.4,-18.19 -9.52,-6.97 -7.2,11.34 -22.01,2.04 -64.21,-40.35 -30.19,-30.29 -54.91,-60.81 -54.91,-67.81 0,-9.4 3.15,-9.58 12.04,-0.7 6.64,6.62 18.47,9.58 26.3,6.57zm-1237.43 142.38c15.38,66.68 16.3,84.75 5.11,98.54 -9.58,11.82 -9.82,14.56 -0.77,9.14 18.66,-11.18 37.55,66.06 25.93,106.05 -23.15,79.73 -280.51,704.98 -287.36,698.13 -5.72,-5.71 -24.32,-847.92 -18.84,-853.38 7.81,-7.78 293.14,143.27 300.94,135.41 2.96,-2.96 -14.27,-14.04 -38.26,-24.61 -24,-10.57 -43.63,-23.12 -43.63,-27.88 0,-4.77 -9.08,-8.66 -20.16,-8.66 -11.09,0 -26.17,-7.23 -33.53,-16.08 -7.35,-8.84 -22.14,-16.08 -32.86,-16.08 -10.74,0 -22.17,-4.26 -25.4,-9.47 -7.38,-11.91 -86.1,-47.14 -105.86,-56.41 14.26,-8.66 65.69,-41.31 77.08,-41.31 4.94,0 44.68,-16.71 88.29,-37.14 43.6,-20.42 81.81,-37.3 84.9,-37.51 3.12,-0.22 14.1,36.36 24.42,81.26zm3085.23 -28.52c63.58,29.22 117.13,57.74 119.04,63.4 1.87,5.66 -7.49,13.75 -20.83,17.97 -13.33,4.22 -31.06,14.52 -39.45,22.87 -8.36,8.35 -29.13,17.97 -46.11,21.37 -17.02,3.4 -30.91,9.26 -30.91,13.02 0,3.76 -25.37,18.52 -56.35,32.77 -31.01,14.26 -64.85,33.05 -75.22,41.77 -25.99,21.84 -30.03,13.58 -17.76,-36.13 5.8,-23.42 12.31,-54.64 14.45,-69.38 6.9,-47.29 31.22,-160.79 34.42,-160.79 1.72,0 55.14,23.91 118.72,53.13zm-1724.26 -4c0.53,12.49 3.07,15.03 6.48,6.48 7.48,-18.73 -7.58,-34.08 -6.48,-6.48zm54.5 47.35c0,36.01 12.6,4.3 5.42,-13.4 -2.96,-7.37 -5.42,-1.34 -5.42,13.4zm-904.4 50.91c-19.13,33.91 -43.02,73.7 -53.07,88.44 -10.08,14.74 -31.33,52.6 -47.26,84.14 -15.9,31.55 -30.56,55.66 -32.54,53.6 -2.01,-2.06 0.47,-44.75 5.5,-94.86 7.41,-73.44 13.47,-94.24 31.41,-107.2 12.25,-8.84 42.7,-31.7 67.65,-50.81 24.98,-19.1 49.37,-34.78 54.24,-34.84 4.87,-0.06 -6.8,27.63 -25.93,61.53zm95.3 -2.68c11.59,29.48 50.96,125.96 87.45,214.4 94.98,230.06 140.28,346.18 140.28,359.59 0,6.43 -8.44,9.07 -18.78,5.89 -10.35,-3.17 -50.2,-13.25 -88.56,-22.38 -59.69,-14.21 -166.53,-41.7 -212.01,-54.57 -18.04,-5.1 -17.01,-30.45 7.38,-181.34 11.46,-70.75 25.98,-169.64 32.31,-219.75 15.16,-120.13 22.62,-163.81 27.14,-159.21 2.04,2.08 13.21,27.9 24.79,57.37zm-53.28 19.61c2.59,13.29 -1.51,15.97 -16.09,10.51 -16.64,-6.23 -17.54,-4.83 -5.95,9.4 11.06,13.59 9.63,41.55 -7.46,149.4 -11.59,72.96 -24.29,165.24 -28.26,205.03 -3.97,39.79 -9.76,72.36 -12.83,72.36 -9.18,0 -32.73,-33.42 -72.55,-102.87 -37.47,-65.41 -46.86,-100.8 -26.7,-100.8 5.9,0 10.74,-9.06 10.74,-20.14 0,-11.06 7.25,-26.12 16.09,-33.46 8.86,-7.35 16.11,-20.15 16.11,-28.45 0,-8.31 7.25,-17.88 16.09,-21.27 8.86,-3.4 16.11,-15.31 16.11,-26.47 0,-11.16 3.63,-20.31 8.05,-20.33 4.44,-0.03 20.13,-26.53 34.9,-58.92 26.24,-57.55 44.79,-69.76 51.75,-33.99zm2660.44 228.81c-3.95,139.57 -9.08,255.68 -11.41,258.01 -9.26,9.24 -137.79,-22.81 -156.31,-38.98 -18.29,-15.94 -129.15,-280.55 -129.15,-308.21 0,-6.76 18.13,-21.68 40.27,-33.16 22.15,-11.48 86.15,-45.67 142.24,-75.95 56.09,-30.3 106.37,-55.16 111.74,-55.28 5.79,-0.12 6.85,103.07 2.62,253.57zm-2149.66 -100.73c14.81,48.47 44.05,140.88 64.98,205.35 20.93,64.47 38.04,120.6 38.04,124.73 0,7.64 -290.14,109.73 -295.77,104.08 -4.93,-4.84 128.3,-443.85 141.6,-503.96 9.69,-43.71 21.33,-27.82 51.15,69.8zm550.38 99.71c46.22,50.58 85.59,96.33 87.53,101.66 1.93,5.32 -18.6,15.59 -45.62,22.81 -29.02,7.76 -49.16,19.33 -49.16,28.3 0,12.26 3.1,12.61 16.12,1.82 13.86,-11.49 15.95,-7.57 15.02,28.17 -0.92,36.56 -2.09,38.31 -9.65,14.71 -7.97,-24.83 -8.73,-24.04 -10.43,10.72 -1.51,31.13 -3.38,33.86 -11.06,16.08 -8.09,-18.86 -9.28,-17.82 -9.95,8.67 -0.45,17.19 -5.37,27.27 -11.51,23.48 -5.9,-3.64 -10.37,-29.25 -9.97,-56.91 0.58,-37.95 3.02,-45.03 9.97,-28.84 8.82,20.45 9.27,20.33 9.98,-2.68 0.56,-17.53 -5.34,-24.12 -21.56,-24.12 -18.52,0 -21.38,5.01 -16.83,29.48 18.44,98.92 18.25,106.05 -3.63,125.81 -20.98,18.98 -21.64,18.91 -21.64,-2.05 0,-11.89 -2.8,-45.2 -6.24,-74.02 -4.63,-38.73 -3.26,-48.22 5.21,-36.34 9.5,13.33 11.48,11.96 11.61,-8.04 0.16,-25.12 -7.3,-29.29 -28.41,-15.88 -8.76,5.57 -9.69,22.17 -3.12,56.12 5.1,26.51 9.49,60.98 9.76,76.6l0.48 28.42c-64.16,-17.45 -128.66,-35.82 -193.23,-51.42 -101.18,-24.5 -108.66,-34.07 -40.27,-51.52l45.61 -11.63 -118.08 11.93 26.86 -30.69c55.27,-63.22 273.02,-282.6 280.48,-282.6 4.26,0 45.54,41.39 91.73,91.96zm-1576.39 15.51c-2.14,22.44 -0.95,38.98 2.65,36.76 3.6,-2.22 7.06,118.19 7.7,267.58l1.16 271.62c-62.67,11.1 -124.12,24.94 -186.18,39.23 -64.64,14.88 -118.43,25.99 -119.54,24.7 -1.09,-1.29 2.04,-12 6.96,-23.79l58.34 -139.36c27.14,-64.85 88.95,-216.57 137.34,-337.16 83.35,-207.71 100.6,-234 91.57,-139.58zm1224.28 -56.55c-13.36,17 -12.99,17.37 4.05,4.05 17.89,-14.01 23.58,-22.81 14.74,-22.81 -2.22,0 -10.69,8.44 -18.79,18.76zm1701.8 120.13c27.15,67.55 49.35,126.63 49.35,131.31 0,11.06 -32.2,11.86 -32.2,-1.88 0,-5.7 -6.75,-7.79 -15.03,-4.62 -8.25,3.16 -17.91,1.05 -21.48,-4.7 -3.55,-5.74 -16.12,-7.92 -27.92,-4.83 -18.12,4.73 -21.45,0.31 -21.45,-28.44 0,-18.73 4.52,-31.26 10.05,-27.85 6.19,3.84 6.32,-6.75 0.32,-27.69 -5.37,-18.64 -6.62,-38.97 -2.75,-45.19 3.83,-6.22 5.71,-35.69 4.12,-65.48 -1.56,-29.79 -0.5,-51.75 2.38,-48.8 2.89,2.94 27.47,60.62 54.61,128.17zm-1197.68 -27.65c5.38,27.9 -21.62,13.43 -19.58,2.24 2.92,-15.66 -40.3,-30.98 -5.59,-25.5 11.72,1.86 23.08,12.32 25.17,23.26zm28.83 27.85c-25.49,28.18 -45.21,13.6 -19.65,-5.78 29.1,-22.03 41.54,-18.37 19.65,5.78zm113.51 102.84c29.18,51.99 51.78,98.34 50.19,103.01 -1.58,4.67 -29.47,-16.05 -61.94,-46.03 -32.46,-29.99 -68.71,-62.5 -80.51,-72.27 -50.98,-42.16 -53,-52.59 -14.63,-75.88 19.58,-11.89 39.66,-17.5 44.69,-12.48 5.02,5.02 33.02,51.67 62.2,103.65zm-251.19 -8.99c-6.62,25.03 -7.36,-49.33 -0.4,-32.15 2.94,7.25 3.12,21.72 0.4,32.15zm21.35 -16.54c-3.42,8.55 -5.96,6.01 -6.48,-6.48 -1.1,-27.65 14.01,-12.16 6.48,6.48zm180.28 64.01l85.47 77.5c23.23,21.06 39.07,41.44 35.21,45.28 -7.27,7.28 -191.08,39.01 -196.21,33.88 -3.75,-3.73 -16.45,-208.4 -18.45,-238.76 31.88,26.91 63.07,54.03 93.98,82.1zm-100.4 60.34c1.79,47.85 0.63,89.64 -2.6,92.86 -9.44,9.44 -181.24,-17.9 -181.24,-28.83 0,-5.46 37.26,-50.78 82.76,-100.71 95.15,-104.37 95.7,-104.16 101.08,36.68zm-379.07 -86.88c18.78,7.51 34.1,-7.62 6.48,-6.47 -12.49,0.51 -15.03,3.05 -6.48,6.47zm165.94 57c0,26.53 2.12,37.38 4.69,24.11 2.54,-13.27 2.54,-34.96 0,-48.23 -2.57,-13.27 -4.69,-2.42 -4.69,24.12zm1473.65 5.92c70.57,15.05 142.8,30.24 160.53,33.76 26.8,5.33 114.98,71.88 288.23,217.57l127.03 106.07c57.2,47.69 106.15,90.35 108.8,94.83 2.67,4.48 -21.3,111.85 -53.24,238.61 -40.77,161.71 -58.07,251.28 -58.05,300.14 0.06,72.82 18.52,389.34 27.47,470.27l5.18 46.84 -397.98 -388.47 -141.82 -0.74c-77.97,-0.39 -156.29,-2.67 -173.99,-5.08 -17.73,-2.4 -70.86,3.05 -118.08,12.07 -81.26,15.53 -254.75,46.04 -397.2,69.8 -35.42,5.9 -110.3,19.81 -166.39,30.95 -56.1,11.11 -121.31,23.1 -144.92,26.62 -70.77,10.53 -339.59,59.16 -397.21,71.83 -29.51,6.49 -114.04,35.7 -187.86,64.93 -224.77,89.07 -450.95,174.84 -676.3,262.47 -269.77,104.91 -486.2,185.79 -489.16,182.85 -4.66,-4.65 23.81,-1101.43 28.73,-1106.25 6.35,-6.27 252.18,-102.55 261.81,-102.55 10.59,0 -3.91,108.24 -5.61,123.3l166.05 -168.04c4.16,12.89 17.88,58.79 23.87,65.59 5.29,6.1 134.76,-124.6 152.1,-141.79 3.46,11.53 25.65,88.79 30.27,88.79 2.01,0 52.34,-47.04 111.82,-104.52 59.5,-57.47 121.1,-110.41 136.89,-117.62 26.3,-12 465.46,-184.08 527.9,-206.87 14.76,-5.38 113.8,-24.48 220.08,-42.44 106.26,-17.96 340.57,-58.52 520.65,-90.11 180.07,-31.62 339.69,-58.08 354.75,-58.82 15.05,-0.74 85.09,10.96 155.65,26.01zm-2437.31 32.1c29.53,9 70.56,19.08 91.23,22.4 20.66,3.32 40,9.18 42.94,13 2.96,3.84 10.21,7.13 16.11,7.33 26.91,0.91 101.97,18.22 101.97,23.51 0,5.02 -96.84,119.68 -135.91,160.91 -9.82,10.36 -19.21,2.75 -42.97,-34.82 -16.75,-26.45 -33.53,-48.09 -37.34,-48.1 -3.75,-0.01 -9.92,-12.08 -13.6,-26.82 -3.7,-14.74 -11.48,-26.8 -17.27,-26.8 -5.8,0 -10.53,-7.24 -10.53,-16.08 0,-8.84 -4.08,-16.08 -9.03,-16.08 -7.62,0 -17.17,-15.04 -42.51,-67 -5.11,-10.44 -5.72,-10.54 56.91,8.55zm9.58 127.64c39,58.69 70.9,111.76 70.88,117.92 -0.03,8.83 -108.88,44.04 -244.16,78.98 -20.72,5.35 -16.22,-29.11 18.1,-138.65 17.33,-55.35 37.01,-121.81 43.73,-147.68 14.82,-56.97 13.42,-58.09 111.45,89.43zm586.18 27.29c0,88.43 -2.67,160.79 -5.93,160.79 -5.02,0 -134.19,-100.24 -172.66,-133.99 -15.46,-13.56 -43.87,-36.46 -82.08,-66.18 -17.43,-13.55 -25.21,-26.11 -18.7,-30.13 21.9,-13.51 242.14,-90.21 260.58,-90.74 17.1,-0.49 18.79,14.05 18.79,160.25zm180.31 -122.09c75.01,21.28 140.34,42.38 145.21,46.86 4.84,4.49 -60.38,59.04 -144.94,121.22 -126.21,92.84 -155.02,109.87 -161.03,95.17 -4.02,-9.84 -7.62,-81.8 -8.04,-159.92 -0.64,-121.29 1.67,-142.04 15.82,-142.04 9.13,0 77.97,17.42 152.98,38.71zm1664.15 73.51c-39.34,26.35 -74.64,52.95 -78.47,59.14 -10.03,16.23 -26.94,2.44 -26.94,-22 0,-18.91 -4.81,-17.7 -50.98,12.79l-50.99 33.67 3.6 127.2c3.81,135.56 -4.15,154.81 -36.11,87.54 -18.5,-38.9 -18.39,-39.95 4.15,-54.9 33.34,-22.11 28.2,-35.93 -11.88,-32.07 -31.06,3 -35.3,7.38 -38.39,39.9 -4.79,50.09 25.08,123.19 57.41,140.47l26.59 14.2 0 180.05c0,175.71 -0.58,180.37 -24.15,193.04 -22.23,11.99 -18.15,14.55 50.98,32.1 102.71,26.03 187.86,36.03 187.86,22.04 0,-6.12 -17.07,-16.75 -37.94,-23.63 -62.15,-20.48 -67.79,-38.76 -70.44,-229.24l-2.38 -170.39c32.57,-23.7 63.36,-46.68 93.32,-73.99 18.2,-16.6 41.65,-32.89 52.1,-36.21 10.48,-3.32 19.02,-10.52 19.02,-16.02 0,-20.34 -39.9,-8.96 -96.6,27.52 -32.09,20.63 -62.12,37.51 -66.73,37.51 -4.63,0 -8.44,-41.46 -8.44,-92.14 0,-106.34 9.45,-127.66 84.38,-190.8l49.53 -41.75 14 47.11c7.7,25.91 12.03,57.97 9.68,71.23 -2.38,13.26 -2.46,24.12 -0.21,24.12 9.39,0 88.34,-53.69 95.17,-64.74 7.33,-11.83 -56.3,-149.65 -69.08,-149.65 -3.6,0 -38.74,21.56 -78.06,47.9zm-1453.06 -15.03c4.47,-7.21 17.25,-9.24 30.88,-4.92 21.85,6.93 35.42,9.15 87.63,14.32 16.72,1.65 17.91,3.73 5.37,9.4 -8.84,4.01 -29.53,16.38 -45.96,27.49 -16.41,11.12 -32.97,17.11 -36.78,13.31 -3.81,-3.8 -17.88,3.41 -31.33,16.01 -15.34,14.38 -32.62,20.79 -46.4,17.19 -12.09,-3.16 -24.72,-1.37 -28.02,3.97 -7.21,11.73 -37.25,18.84 -9.08,-14.4l20.45 -24.12c-9.15,7.73 -49.21,38.07 -42.01,49.75 3.2,5.14 -2.97,12.04 -13.68,15.33 -10.69,3.28 -34.29,13.19 -52.47,22.02 -18.15,8.85 -39.87,17.11 -48.28,18.39 -8.42,1.26 -20.67,5.65 -27.18,9.72 -22.17,13.86 -74.08,30.91 -63.29,20.79 5.91,-5.54 70.65,-54.4 143.86,-108.58 89.03,-65.91 135.68,-94.37 140.89,-85.95 5.82,9.41 9.71,9.49 15.4,0.28zm4.44 18.05c-13.36,17 -12.99,17.38 4.05,4.05 17.89,-14.01 23.58,-22.81 14.74,-22.81 -2.22,0 -10.69,8.45 -18.79,18.76zm-560.68 101.25c74.93,60.1 130.92,111.03 124.49,113.17 -6.45,2.16 -36.25,-0.54 -66.2,-5.98 -54.26,-9.85 -54.48,-9.77 -53.21,18.14 0.85,19.53 2.78,22.09 6.3,8.47 3.12,-12.07 11.19,-17.21 21.12,-13.4 8.81,3.37 27.7,6.14 41.98,6.14 35.31,0 30.43,25.46 9.85,17.56 -8.84,-3.39 -16.09,-0.98 -16.09,5.36 0,6.34 -6.85,8.91 -15.21,5.7 -8.36,-3.2 -18.07,1.61 -21.57,10.69 -3.49,9.08 -13.23,13.87 -21.67,10.64 -8.41,-3.22 -17.67,-0.1 -20.55,6.93 -3.76,9.14 -8.5,8.21 -16.65,-3.28 -9.92,-14.04 -11.37,-13.84 -11.53,1.53 -0.27,28.39 -32.18,34.27 -33.45,6.17 -1.03,-22.76 -1.37,-22.67 -8.33,2.22 -9.05,32.26 -30,40.71 -36.75,14.79 -4.13,-15.93 -5.24,-15.28 -6.27,3.72 -0.85,15.47 -12.73,27.59 -36.14,36.82 -19.19,7.57 -38.1,15.54 -42.05,17.72 -3.91,2.18 -9.41,-4.74 -12.17,-15.39 -4.15,-15.99 -5.23,-15.36 -6.27,3.63 -1.5,28.2 -33.1,43.79 -34.18,16.89 -0.69,-16.25 -1.69,-16.08 -8.6,1.47 -7.54,19.13 -76.89,56.65 -76.2,41.22 0.19,-4.12 7.28,-58.17 15.77,-120.07 8.47,-61.91 15.58,-116.17 15.74,-120.6 0.5,-11.59 32.57,-9.93 32.57,1.67 0,5.35 9.66,7.2 21.46,4.12 15.58,-4.07 21.8,-0.12 22.73,14.4 2.37,38.41 3.92,-17.51 20.48,-17.51 5.16,0 14.31,8.45 20.34,18.76 6.09,10.41 11.09,12.8 11.27,5.36 0.51,-20.87 32.44,-15.74 33.39,5.36 0.51,11.2 3.02,13.37 6.25,5.36 8.12,-20.1 35.64,-16.12 37.07,5.36 1,15.28 2.09,15.64 5.79,1.92 5.24,-19.4 68.11,-15.59 68.11,4.11 0,17.64 26.38,-12.78 20.66,-18.45 -2.59,-2.62 -64.35,-14.42 -137.19,-26.23 -72.84,-11.83 -134.88,-23.93 -137.87,-26.9 -2.97,-2.97 7.38,-18.98 22.99,-35.59 15.64,-16.59 43.89,-50.53 62.81,-75.4 18.95,-24.88 40.35,-45.38 47.6,-45.56 7.28,-0.18 74.48,48.85 149.38,108.96zm469.77 -63.73l-20.45 24.12 24.16 -20.42c22.7,-19.19 29.02,-27.82 20.45,-27.82 -2.04,0 -12.91,10.86 -24.16,24.12zm1847.24 98.4c-69.16,46.99 -86.41,54.75 -89.43,40.2 -6.87,-33.3 -17.54,-33.04 -65.32,1.71l-47.57 34.57 5.32 130.52 -40.96 -1.29c-37.6,-1.18 -41.25,1.27 -44.53,29.89 -6.62,57.94 9.42,105.72 46.96,140.09l36.3 33.18 1.38 170.34c1.35,166.32 0.77,170.82 -23.5,189.07l-24.84 18.74 26.59 6.19c211.19,49.32 295.96,49.53 190.26,0.53 -42.7,-19.82 -46.06,-24.61 -52.73,-74.78 -3.92,-29.47 -7.54,-112.23 -8.04,-183.91l-0.96 -130.3c46.63,-35.14 93.18,-70.44 140.1,-105.18 29.58,-21.85 31.43,-36.19 4.71,-36.19 -6.96,0 -41.99,18.94 -77.87,42.09 -69.34,44.77 -74.95,43.16 -72.25,-20.66 0.87,-20.61 2.4,-63.59 3.44,-95.46 1.8,-55.28 4.47,-60.33 58.23,-109.81 31.01,-28.52 61.83,-51.88 68.5,-51.92 15,-0.08 38.5,88.59 29.61,111.72 -8.87,23.07 -0.05,21.27 49.71,-10.09 52.34,-32.98 53.82,-52.91 9.74,-129.87 -18.15,-31.68 -33.92,-57.58 -35.06,-57.58 -1.13,0 -40.64,26.2 -87.79,58.2zm-1949.55 -18.01c-13.36,17.01 -12.99,17.38 4.05,4.06 17.88,-14.01 23.57,-22.81 14.73,-22.81 -2.22,0 -10.69,8.44 -18.78,18.75zm-711.44 75.04c-3.28,16.22 -8.44,53.6 -11.51,83.08 -10.37,100.44 -18.97,138.09 -35.19,154.3 -14.5,14.48 -15.45,13.74 -8.94,-6.77 5.42,-17.01 1.43,-26.11 -15.51,-35.14 -12.54,-6.69 -31.35,-20.26 -41.83,-30.13 -29.67,-28.03 -65.83,-49.84 -97.21,-76.24 -10.92,-9.21 -28.73,-22.21 -39.55,-28.89 -10.82,-6.67 -17.28,-14.48 -14.34,-17.35 7.96,-7.73 227.57,-70.37 250.43,-71.43 15.85,-0.74 18.49,4.79 13.65,28.57zm-539.33 79.29c9.34,89.38 8.71,202.12 -1.16,201.96 -4.42,-0.05 -28.87,-12.01 -54.32,-26.54 -40.93,-23.36 -45.53,-24.13 -40,-6.74 6.72,21.24 -26.78,58.87 -33.82,37.99 -2.14,-6.32 -18.33,-9.39 -35.98,-6.8 -27.39,4.02 -31.14,1.77 -25.75,-15.29 5.85,-18.52 5.43,-18.63 -5.76,-1.24 -13.87,21.51 -53.56,25.4 -54.8,5.37 -0.69,-10.72 -1.93,-10.72 -6.27,0 -6.59,16.27 -42.6,17.75 -52.25,2.14 -4.79,-7.7 -11.54,-7.44 -21.65,0.93 -8.17,6.8 -20.82,8.36 -28.55,3.54 -7.64,-4.76 -25.42,-7.14 -39.5,-5.34 -14.1,1.82 -29.71,-3.15 -34.71,-11.04 -6.8,-10.71 -9.16,-10.95 -9.29,-0.95 -0.25,18.22 -43.1,14.62 -43.1,7.22 0,-13.28 88.85,-154.62 97.21,-154.62 4.87,0 11.85,4.82 15.5,10.72 3.65,5.89 14.42,10.72 23.95,10.72 9.5,0 26.14,7.98 36.93,17.74 11.25,10.17 19.64,12.57 19.64,5.63 0,-6.65 -15.06,-19.87 -33.45,-29.37 -18.39,-9.49 -29.26,-21.19 -24.15,-25.99 7.01,-6.57 300.4,-80.49 337.84,-85.12 3.6,-0.44 9.63,28.84 13.44,65.08zm131.71 -49.23c36.17,3.99 71.92,11.04 79.43,15.68 16.67,10.28 0.53,32.04 -113.27,152.94l-80.25 85.24 0 -136.42c0,-136.07 0.06,-136.4 24.16,-130.56 13.28,3.22 53.74,9.13 89.93,13.12zm466.44 11.03c0.5,12.49 3.07,15.03 6.48,6.48 7.52,-18.81 -7.65,-34.01 -6.48,-6.48zm43.79 15.19c0,36.02 12.55,4.27 5.39,-13.4 -2.96,-7.36 -5.39,-1.34 -5.39,13.4zm1265.07 7.52c0.06,10.61 9.69,98.87 21.41,196.15 11.75,97.29 21.35,178.6 21.4,180.71 0.03,2.12 -12.64,0.67 -28.15,-3.22 -24.5,-6.14 -27.51,-4.24 -22.59,14.49 3.09,11.88 21.85,109.81 41.64,217.62 32.44,176.48 36.73,191.19 43.26,147.8 4,-26.51 7.62,-80.78 8.07,-120.57 0.82,-74.98 11.59,-89.72 35.3,-48.23 12.19,21.32 14.42,13.01 19.15,-72.37l5.37 -96.49 54.56 78.79 54.95 -31.67c61.04,-35.19 58.35,-27.33 73.88,-214.73l6.77 -81.87c-15.15,-22.4 -108.17,-163.3 -118,-162.84 -4.26,0.22 -19.82,7.28 -34.59,15.71 -36.32,20.74 -40.9,19.93 -44.87,-8.04 -3.07,-21.67 -10.26,-24.44 -70.51,-27.31 -58.63,-2.79 -67.1,-0.77 -67.05,16.07zm-1570.43 52.82c34.16,27.3 68.18,57.17 75.54,66.37 7.41,9.2 13.44,12.48 13.44,7.32 0,-5.18 9.66,0.9 21.46,13.58 35.32,37.86 23.92,64.93 -24.16,57.33 -4.42,-0.71 -8.04,2.91 -8.04,7.99 0,12.44 -93.45,47.55 -105.97,39.82 -5.42,-3.33 -12.75,1.43 -16.3,10.61 -3.52,9.18 -10.92,13.92 -16.48,10.48 -5.53,-3.41 -13.1,-1.3 -16.8,4.68 -3.71,6.01 -11.93,10.9 -18.23,10.9 -7.83,0 -9.18,-28.25 -4.26,-88.42 11.4,-139.44 19.08,-190.28 28.71,-190.28 4.92,0 36.91,22.33 71.09,49.62zm2115.26 -43.46c-3.38,3.4 -1.79,21.45 3.58,40.14 5.37,18.67 9.76,89.58 9.76,157.61 0,132.24 -12.33,171.26 -54.08,171.26 -25.82,0 -28.87,-14.44 -37.28,-176.87 -5.98,-114.85 -9.18,-130.66 -30.14,-147.68 -63.63,-51.77 -61.01,-57.73 -61.01,137.36l0 177.98c13.16,19.1 61.77,94.99 80.59,94.99 8.31,0 34.64,-18.52 58.45,-41.17 23.84,-22.62 45.77,-38.71 48.76,-35.72 6.78,6.84 5.42,75.02 5.42,90.41l40.27 -6.64c22.15,-3.65 46.65,-6.7 54.46,-6.77 9.76,-0.08 7.25,-8.92 -8.05,-28.37 -20.58,-26.09 -22.25,-42.3 -22.25,-213.75 0,-114.1 4.18,-188.11 10.9,-192.25 21.51,-13.28 -2.27,-26.69 -47.31,-26.69 -25.24,0 -48.68,2.78 -52.07,6.16zm-2224.69 128.77l-7.57 100.91c-46.4,-0.12 -94.09,0.7 -139.94,-6.85l-39.98 -6.59 20.35 -25.82c57.07,-72.47 167.22,-185.07 170.71,-174.56 2.2,6.6 0.61,57.41 -3.57,112.91zm360.25 -96.52c0.53,12.49 3.07,15.03 6.49,6.48 7.49,-18.77 -7.59,-34.06 -6.49,-6.48zm85.89 0c0.5,12.49 3.07,15.03 6.48,6.48 7.5,-18.73 -7.58,-34.08 -6.48,-6.48zm272.89 36.63c-29.08,29.47 -58.53,53.59 -65.43,53.59 -6.93,0 -14.98,-12.59 -17.94,-27.96 -4.76,-25.01 0.48,-30.6 49.77,-52.98 83.63,-37.98 91.62,-31.47 33.6,27.35zm-314.99 -21.44c0,35.98 12.57,4.37 5.43,-13.4 -2.99,-7.37 -5.43,-1.34 -5.43,13.4zm871.51 2.66c-11.67,19.37 -57.95,50.52 -78.81,65.68 0.04,86.02 -2.17,629.89 8.41,646.51 4.47,7.01 30.96,22.51 58.9,34.45 40.42,17.33 50.77,18.68 50.77,6.66 0,-8.28 -4.98,-18.12 -11.03,-21.88 -7.28,-4.47 -10.69,-131.86 -10.01,-371.47 0.59,-200.58 -1.24,-367 -4.07,-369.82 -2.83,-2.82 -9.18,1.63 -14.16,9.87zm623.68 170.3c6.48,135.54 5.16,164.78 -7.99,177.9 -13.81,13.81 -19.13,13.49 -43.79,-2.64 -28.04,-18.34 -28.1,-18.66 -28.1,-165.58 0,-142.07 0.85,-147.61 24.16,-158.85 46.59,-22.43 47.68,-19.51 55.72,149.17zm-2409.16 -142.34c0.39,16.61 19.87,35.84 29.97,29.61 6.09,-3.76 18.37,0.45 27.26,9.35 8.91,8.89 24.31,16.17 34.23,16.17 12.28,0 15.85,5.58 11.25,17.59 -5.29,13.79 -3.63,15.01 7.62,5.67 10.77,-8.89 20.32,-7.78 37.83,4.44 12.89,9.02 23.42,12.25 23.42,7.14 0,-12.27 -171.83,-98.72 -171.58,-89.97zm860.29 22.97c0,36.02 12.6,4.31 5.42,-13.39 -2.96,-7.37 -5.42,-1.35 -5.42,13.39zm663.65 49.94c-79.45,57.49 -80.32,57.81 -83.68,30.88 -1.86,-14.95 -5.48,-27.23 -8.02,-27.23 -2.54,0 -28.76,17.3 -58.21,38.44 -44.93,32.23 -51.88,41.65 -43.05,58.13 8.79,16.41 9.13,45.67 1.17,99.06 -0.66,4.45 -15.69,8.05 -33.42,8.05 -29.16,0 -32.2,-3.28 -32.31,-34.82 -0.1,-35.38 -56.67,-147.4 -74.42,-147.4 -5.35,0 -23.37,10.87 -40.03,24.21 -42.1,33.55 -88.04,64.25 -132.35,95.04l0 -66.92 -59.16 46.15c-32.52,25.37 -54.27,47.78 -48.29,49.76 6.51,2.17 10.69,53.56 10.51,128.67l-0.35 125.07 -26.51 -30.08c-33.1,-37.57 -34.95,-77.77 -3.91,-85.86 31.01,-8.12 15.21,-28.79 -22.02,-28.79 -25.87,0 -31.35,5.24 -37.04,35.56 -9.66,51.44 15.72,115.76 55.75,141.32l33.6 21.45 0.4 170.82c0.4,160.34 -0.98,172.32 -22.65,195.34 -27.17,28.89 -31.38,26.78 104.3,52.97 110.65,21.38 170.13,13.12 95.91,-13.31 -23.57,-8.39 -48.81,-21.17 -56.01,-28.36 -8.65,-8.65 -15.4,-73.19 -19.85,-189.92l-6.72 -176.82 66.2 -53.61c36.44,-29.47 75.83,-57.17 87.61,-61.54 22.59,-8.41 18.01,-29.58 -6.41,-29.58 -19.57,0 -111.66,66.3 -136.31,81.44 -11.45,7.07 -9.05,-185.87 -9.05,-211.45 16.56,-15.75 119.4,-117.01 129.62,-110.68 9.95,6.14 25.59,88.82 21.83,115.44 -2.57,18.2 -0.69,18.39 29.74,2.67 17.86,-9.21 35.11,-16.77 38.36,-16.77 3.26,0 5.9,21.96 5.9,48.79 0,59.26 20.98,102.57 64.77,133.72l32.92 23.38 -1.99 160.08c-1.74,141.5 -4.42,163.17 -23.23,187.03 -11.67,14.84 -19.5,28.42 -17.35,30.16 8.01,6.51 187.53,38.61 215.92,38.58 38.95,0 37.89,-17.91 -1.56,-26.56 -59.74,-13.1 -64.87,-28.84 -72.49,-221.22l-6.96 -176.45 31.11 -20.35c17.12,-11.16 45.62,-33.92 63.32,-50.53 17.72,-16.62 40.66,-32.92 51.01,-36.25 10.32,-3.34 18.78,-10.27 18.78,-15.43 0,-20.53 -19.15,-18.76 -59.58,5.56 -33.59,20.25 -67.44,39.87 -101.44,59.4l0 -214.69c19.67,-18.72 109.48,-107.2 125.17,-107.34 13.58,-0.13 31.59,76.31 27.12,114.94 -2.75,23.84 -2.51,23.81 45.59,-5.35 29.58,-17.93 48.47,-37.22 48.66,-49.66 0.42,-25.08 -53.11,-132.69 -69.03,-138.8 -6.38,-2.44 -47.71,21.7 -91.87,53.66zm1760.94 41.01c-7.3,19.66 -10.03,18.26 -30.88,-15.93 -29.13,-47.7 -28.89,-62.78 1.17,-74 21.69,-8.08 24.84,-5.06 30.93,29.68 3.73,21.25 3.17,48.37 -1.22,60.25zm-2264.99 -42.97c-37.07,38.21 -53.93,40.11 -53.93,6.14 0,-29.33 80.88,-51.63 85.15,-47.51 2.54,2.45 -11.51,21.05 -31.22,41.37zm-139.81 34.42c0,10.69 -45.11,56.97 -55.54,56.97 -14.87,0 -9.89,-29.61 7.99,-47.49 17.02,-16.99 47.55,-23.08 47.55,-9.48zm1065.42 43.55c-73.71,58 -77.52,68.69 -77.7,218.76l-0.11 92.82 54.95 49.34c79.54,71.41 100.84,73.85 151.11,17.25 46.43,-52.23 49.16,-64.48 20.24,-90.62 -19.95,-18.04 -21.06,-16.96 -35.24,33.15 -11.14,39.4 -19.72,51.81 -35.75,51.81 -23.39,0 -34.95,-48.02 -36.43,-151.61 -0.93,-64.05 6.88,-69.95 75.06,-56.8 68.42,13.2 69.69,12.91 83.85,-18.07 21.56,-47.26 -10.9,-125.23 -68.61,-164.86 -25.66,-17.65 -51.14,-32.07 -56.65,-32.07 -5.47,0 -39.1,22.91 -74.72,50.9zm-1715.58 -17.62c-7.49,12.09 -36.86,12.62 -36.86,0.66 0,-31.27 46.19,-15.71 36.86,-0.66zm-503.87 22.07c3.91,3.89 -0.96,19.42 -10.85,34.47 -9.9,15.08 -16.3,31.78 -14.29,37.15 2.04,5.35 49.58,-1.32 105.68,-14.84 56.09,-13.52 103.34,-23.26 104.98,-21.62 4.53,4.53 -21.89,60.32 -14.63,67.58 7.51,7.48 151.53,-54.38 164.31,-49.03 4.57,1.9 6.96,14.34 5.26,27.59 -4.12,32.31 7.68,31.15 135.79,-13.38 86.12,-29.93 124.19,-37.52 188.27,-37.52 44.16,0 82.82,4.02 85.86,8.97 5.66,9.15 -10.32,804.94 -21.75,1082.54l-6.29 153.57 -161.56 73.5 -339.41 -16.04c-186.69,-8.81 -355.12,-16.03 -374.3,-16.08l-34.9 -0.11c0,-63.53 -1.02,-546.71 3.78,-546.71 18.79,0 71.55,26.22 72.23,35.91 0.48,6.8 0.59,82.28 0.27,167.77 -0.58,152.48 -1.11,155.89 -27.7,179.04 -14.9,12.99 -27.1,26.25 -27.1,29.48 0,7.44 305.34,5.87 345.79,5.87l-67.26 -62.73 5.93 -315.68c40.27,-13.77 81.13,-27.16 119.72,-45.21 18.6,-8.74 39.13,-15.88 45.62,-15.88 8.2,0 11.8,67.44 11.8,220.58l0 220.56 -62.76 62.68c81.04,0.44 161.65,0.68 242.57,6.88 77.25,5.93 100.01,-4.13 59.95,-26.51 -26.56,-14.85 -34.13,-94.59 -35.03,-368.25 -0.77,-242.91 -0.74,-243.15 23.39,-251.22 33.1,-11.06 74.29,-5.21 95.36,13.55 15.71,13.97 18.67,12.38 28.25,-15.06 5.9,-16.85 19.32,-39.24 29.82,-49.74 16.04,-16.01 16.67,-20.64 3.94,-28.66 -23.04,-14.57 -102.68,-11.74 -143,5.06l-35.91 15 -6.69 -48.66c-3.65,-26.75 -6.67,-107.89 -6.67,-180.31 0,-125.17 1.35,-133.27 27.12,-163.86 14.9,-17.7 23.36,-34.13 18.79,-36.54 -4.58,-2.4 -51.81,-3.04 -104.94,-1.42 -64.38,1.95 -128.62,3.36 -193.01,4.18l58.82 54.47 0 478.56 -67.1 32.75c-119.57,58.37 -109.22,77.26 -115.39,-210.95 -3.91,-181.9 -1.82,-259.24 7.52,-281.39l12.91 -30.55 -144.78 0c-140.07,0 -144.44,0.66 -133.62,20.84 6.14,11.46 15.98,23.79 21.86,27.42 6.59,4.07 10.66,104.64 10.66,263.26l0 256.67 -34.87 -14.16c-30.69,-12.43 -35.3,-19.66 -38.23,-59.77 -1.83,-25.11 2.38,-52.52 9.36,-60.93 9.08,-10.9 9.26,-15.27 0.64,-15.27 -8.6,0 -12.04,-85.64 -12.04,-301.25l0 -301.26c28.21,1.18 178.89,5.69 187.83,14.69zm117.58 7.83c-15.03,14.13 -79.99,25.9 -79.99,14.47 0,-17.7 13.82,-24.05 52.26,-24.05 22.75,0 33.84,3.84 27.73,9.58zm2191.25 30.61c8.71,22.12 20.45,48.42 26.09,58.48 5.63,10.02 6.72,20.1 2.41,22.38 -11.46,6.08 -65.65,1.67 -73.27,-5.95 -10.05,-10.03 7.01,-115.1 18.68,-115.1 5.64,0 17.39,18.07 26.09,40.19zm-2013.58 -19.81c0,5.31 -14.5,14.71 -32.2,20.87 -28.63,9.98 -32.2,8.89 -32.2,-9.66 0,-16.06 7.43,-20.87 32.2,-20.87 17.7,0 32.2,4.34 32.2,9.66zm182.48 6.27c0,6.05 -73.19,37.65 -87.18,37.65 -5.19,0 -9.42,-9.63 -9.42,-21.44 0,-18.25 7.14,-21.43 48.31,-21.43 26.57,0 48.29,2.36 48.29,5.22zm1135.85 163.14c2.39,64.56 -13.28,78.08 -39.92,34.42 -28.31,-46.38 -28.07,-55.72 1.72,-69.59 32.75,-15.24 36.46,-11.85 38.2,35.17zm-603.99 279.19c4.5,10.31 10.38,82.02 13.1,159.33 4.26,121.52 2.36,144.49 -13.97,169.38 -12.43,18.95 -26.59,27.68 -41.46,25.56 -19.13,-2.72 -23.63,-12.99 -29.45,-67.52 -3.78,-35.37 -7.41,-100.78 -8.04,-145.36 -0.69,-46.96 -6.8,-88.11 -14.58,-97.87 -19.84,-24.92 -69.72,-54.05 -75.54,-44.11 -2.78,4.74 -3.68,84.88 -2.01,178.1 2.96,165.28 3.79,170.49 32.68,212.16 16.32,23.5 33.89,45.35 39.08,48.53 12.46,7.7 61.56,-24.1 91.28,-59.14l23.76 -28.01c0.14,15.57 -1.27,88.76 8.83,94.03 4.42,2.3 30.54,2.14 58.03,-0.35 49.69,-4.52 49.87,-4.68 28.89,-25.63 -19.76,-19.74 -20.9,-34.14 -17.78,-229.48l3.31 -208.41 -52.13 0c-45.61,0.03 -51.11,2.38 -44,18.79zm2332.2 47.7c7.09,7.06 12.89,8.26 12.89,2.67 -0.03,-10.1 246.98,-8.31 257.2,1.88 2.8,2.81 -2.83,27.76 -12.49,55.48 -9.68,27.71 -81.44,250.56 -159.47,495.23 -78.05,244.68 -144.19,447.27 -147.05,450.24 -7.65,7.91 3.84,-119.73 13.02,-144.73 6.29,-17.15 5.55,-18.23 -3.71,-5.35 -9.15,12.7 -11.61,8.21 -11.75,-21.53 -0.07,-20.67 4.37,-53.32 9.9,-72.55 6.14,-21.41 6.17,-32.6 0.05,-28.81 -5.87,3.62 -7.56,-14.9 -4.15,-45.38 3.2,-28.31 6.01,-193.73 6.24,-367.59 0.24,-173.85 2.7,-319.77 5.48,-324.27 7.25,-11.72 19.02,-10.08 33.84,4.71zm-71.75 308.72c-0.8,168.03 -4.5,399.57 -8.26,514.53l-6.8 209.05 -209.6 225.11c-285.57,93.77 -570.47,189.33 -855.45,284.87l-288.98 223.02c-97.78,-75.21 -195.86,-150.01 -293.93,-224.84l-844.81 -279.83c-73.64,-76.83 -146.95,-153.9 -220.06,-231.24l0.19 -157.9 104.56 -43.08c97.85,-40.3 104.78,-45.19 107.79,-75.99 3.13,-31.69 8.26,-34.79 139.57,-84.08 74.99,-28.15 215.27,-82 311.76,-119.65 96.49,-37.65 182.25,-68.47 190.55,-68.47 11.3,0 15.09,16.24 15.09,64.56 0,60.67 2.67,67.44 43.97,112.18 24.16,26.19 42.28,51.97 40.24,57.28 -2.04,5.32 -28.97,37.12 -59.85,70.7 -44.68,48.58 -76.44,70.38 -155.65,106.94 -54.74,25.25 -107.66,48.82 -117.63,52.37 -33.29,11.87 -48.29,135.7 -54.01,175.02l276.1 56.01 370.92 -47.97c119.05,-112.38 239.28,-223.49 359.04,-335.12 25.3,13.87 148.35,78.79 153.32,93.69 2.17,6.51 -27.67,27.38 -66.28,46.41 -62.65,30.85 -73.84,41.38 -103.93,97.73 -18.54,34.77 -29.58,66.84 -24.52,71.26 5.08,4.44 52.68,15.79 105.83,25.26 109.44,19.46 218.68,40.04 327.93,60.51l273.23 -61.62 163.62 -176.16c6.91,-131.44 13.67,-262.28 14.53,-394.01l0.87 -133.99 -65.35 -162.67c-35.96,-89.48 -65.36,-167.64 -65.36,-173.72 0,-6.06 15.69,-13.92 34.88,-17.44l201.29 -37.14c91.49,-16.89 175.42,-29.9 186.48,-28.9 19.18,1.72 20.05,15.93 18.71,307.32zm369.22 263.92c4.31,287.76 3.6,518.29 -1.56,521.36 -5.11,3.04 -64.43,-6.11 -131.79,-20.35 -67.39,-14.26 -127.77,-24.05 -134.2,-21.77 -6.42,2.27 17.34,10.05 52.74,17.28 70.28,14.37 140.28,29.96 210.31,45.48 -13.88,16.91 -76.12,90.07 -76.12,103.21 0,5.74 -7.25,13.23 -16.11,16.62 -8.84,3.41 -16.09,13.57 -16.09,22.59 0,9.02 -4.94,16.41 -11,16.41 -6.04,0 -15.59,12.06 -21.2,26.8 -5.63,14.74 -15.16,26.8 -21.22,26.8 -6.06,0 -11,7.38 -11,16.41 0,9.04 -7.23,19.2 -16.09,22.59 -8.86,3.41 -16.11,10.43 -16.11,15.61 0,13.31 -57.36,94.56 -67.1,95.07 -4.42,0.21 -8.04,-9.4 -8.04,-21.38 0,-11.96 -11.54,-85.52 -25.64,-163.46 -14.1,-77.95 -28.76,-166.95 -32.55,-197.78l-6.9 -56.09c1.42,0.18 64.52,8.62 40.93,2.78 -24.26,-6.03 -23.68,-27.2 3.2,-111.29 60.06,-187.79 120.37,-375.45 181.08,-563.03 53.63,-165.73 97.53,-307.79 97.53,-315.7 0,-8.89 3.65,-10.48 9.63,-4.18 5.29,5.61 13.07,242.31 17.3,526.02zm-842.8 -474.32c0,8.1 9.97,38.23 22.17,66.99 58.47,137.96 85.2,208.52 85.2,225.08 0,12.47 -177.22,-96.17 -224.79,-137.82 -8.5,-7.43 -20.59,-15.95 -26.89,-18.89 -28.41,-13.33 -124.06,-80.8 -124.06,-87.55 0,-4.1 8.47,-9.87 18.79,-12.75 25.66,-7.25 175.57,-32.31 197.72,-33.08 9.82,-0.34 21.51,-4.23 25.93,-8.65 12.78,-12.75 25.93,-9.36 25.93,6.67zm559.06 2.25c0.53,12.49 3.07,15.03 6.48,6.48 7.55,-18.63 -7.58,-34.1 -6.48,-6.48zm-837.69 181.34c16.98,58.31 33.97,116.61 51.14,174.87l-66.07 -33.34c-36.32,-18.36 -68.47,-35.98 -71.43,-39.21 -2.97,-3.2 -19.88,-13.36 -37.58,-22.54 -84.79,-44.03 -183.51,-99.25 -192.69,-107.8 -5.61,-5.21 -14.34,-9.49 -19.4,-9.49 -16.03,0 2.04,19.5 32.5,35.08 94.82,48.47 345.94,193.07 345.7,199.02 -0.32,6.83 -32.52,26.59 -316.39,194.15l-128.82 76.04 -6.78 -52.97c-12.17,-95.25 -22.83,-483.5 -13.25,-483.13 5.1,0.19 18.7,7.41 30.16,16.06 26.43,19.98 39.18,20.11 31.59,0.35 -3.25,-8.47 -12.75,-12.78 -21.14,-9.58 -8.36,3.2 -15.21,1.24 -15.21,-4.37 0,-5.61 59.18,-20.98 131.49,-34.18 72.34,-13.2 148.44,-27.7 169.1,-32.2 23.65,-5.19 42.23,-3.86 50.14,3.55 6.9,6.48 28.04,64.84 46.94,129.69zm38.76 -91.12c26.24,17.7 51.41,32.17 55.9,32.17 4.5,0 17.54,8.52 28.97,18.95 21.52,19.58 88.11,64.32 208.23,140.02 73.5,46.27 72.84,50.06 -10.29,59.82l-110.01 12.88c-33.98,3.97 -61.73,11.04 -61.73,15.69 0,7.97 10.29,7.28 91.76,-6.27 68.07,-11.29 155.12,-15.82 154.7,-8.01 -0.24,4.47 -13.52,25.61 -29.53,46.99 -186.21,248.94 -241.67,320.54 -245.4,316.83 -2.41,-2.43 -11.4,-61.75 -19.98,-131.81 -8.54,-70.09 -18.46,-145.49 -22.06,-167.61 -6.43,-39.56 -5.98,-40.22 28.41,-40.22 19.21,0 31.52,-3.39 27.36,-7.54 -4.15,-4.16 -20.56,-7.78 -36.48,-8.04 -27.71,-0.48 -30.86,-6.7 -73.9,-145.21 -24.71,-79.58 -45.33,-148.32 -45.8,-152.74 -1.46,-13.92 10.71,-9 59.85,24.1zm1346.99 67.02c9.02,16.8 3.92,18.76 -49.34,18.76 -65.3,0 -68.58,-5.21 -52.87,-83.74l6.59 -32.84 42.78 39.53c23.52,21.73 47.31,47.97 52.84,58.29zm-1822.03 195.63c3.95,112 10.03,221.75 13.52,243.87 7.49,47.36 -6.64,52.44 -37.38,13.39 -11.62,-14.74 -25.27,-26.86 -30.32,-26.91 -14,-0.22 -76.88,-74.93 -92.34,-74.93 -5.72,0 -7.52,-7.49 -4,-16.64 3.92,-10.16 1.96,-13.89 -5,-9.58 -14.63,9.02 -65.03,-37.68 -56.14,-52.02 3.67,-5.95 1.77,-7.78 -4.26,-4.07 -15.19,9.39 -91.15,-57.36 -84.64,-74.35 3.04,-7.86 -0.43,-11.56 -8.1,-8.63 -13.92,5.35 -102.31,-64.55 -92.87,-73.44 2.97,-2.78 63.34,-27.63 134.2,-55.2 70.85,-27.59 143.3,-56.33 161.02,-63.89 86.36,-36.83 85.57,-36.67 92.5,-18.55 3.65,9.5 9.87,108.93 13.81,220.95zm1273.97 -202.8c0.53,12.49 3.07,15.03 6.48,6.48 7.55,-18.62 -7.58,-34.1 -6.48,-6.48zm-10.71 42.89c0.5,12.49 3.04,15.03 6.48,6.48 7.51,-18.82 -7.65,-34.01 -6.48,-6.48zm661.61 60.3c25.3,24.82 45.86,50.14 45.67,56.27 -0.48,14.1 -126.36,107.07 -149.41,124.62l-81.12 -51.35c-88.08,-55.78 -87.52,-54.4 -53.76,-135.07l16.56 -39.58 176.03 0 46.03 45.11zm-672.36 -17.41c0.51,12.49 3.05,15.03 6.49,6.48 7.51,-18.83 -7.63,-34.05 -6.49,-6.48zm-1605.73 103.9c121.98,104.78 338.17,300.33 338.17,305.91 0,5 -110.28,-1.48 -257.65,-15.13 -53.13,-4.92 -66.92,-3.47 -57.76,6.08 6.64,6.91 35.61,13.1 64.43,13.79 28.81,0.66 55.93,6.35 60.27,12.64 4.89,7.1 7.93,7.33 8.04,0.61 0.08,-6.21 20.72,-9.15 48.47,-6.96 32.41,2.57 48.32,8.76 48.32,18.84 0,8.23 -4.85,15 -10.75,15 -5.9,0 -10.74,4.34 -10.74,9.66 0,5.32 22.52,2.91 50.03,-5.34 92.66,-27.86 101.92,-39.69 -152.63,195.18l-117.45 108.4 -140.76 17.57c-214.55,26.77 -209.45,33.31 -73.95,-95.09 119.14,-112.87 176.66,-150.29 248.71,-161.72 21.64,-3.44 51.83,-11.06 67.09,-16.96 15.24,-5.9 36.57,-12.51 47.36,-14.68 39.61,-7.99 60.89,-17.25 60.89,-26.54 0,-5.26 -19.35,-2.72 -42.95,5.58 -23.62,8.34 -42.94,13.15 -42.94,10.75 0,-2.44 -19.84,2.56 -44.08,11.11 -24.23,8.55 -48.39,12.86 -53.66,9.6 -5.29,-3.25 -9.6,-0.29 -9.6,6.59 0,6.88 -7.25,9.71 -16.11,6.33 -8.87,-3.39 -16.12,-1.94 -16.12,3.28 0,5.18 -14.97,8.67 -33.25,7.7 -26.97,-1.41 -43.26,-14.21 -85.76,-67.34l-52.49 -65.56c48.61,3.02 99.38,5 147.35,12.27 19.21,2.94 34.9,1.35 34.9,-3.49 0,-10.72 -64.17,-22.07 -125.5,-22.23 -24.73,-0.05 -47.65,-4.41 -50.9,-9.65 -5.08,-8.23 82.57,-290.54 97.89,-315.31 3.02,-4.86 13.47,-2.03 23.21,6.3l49.92 42.81zm-194.49 43.13c-71.46,76.41 -98.85,94.56 -92.1,61.09 1.77,-8.84 4.18,-32.57 5.37,-52.71 1.16,-20.16 8.84,-38.86 17.04,-41.59 10.16,-3.36 12.12,-0.42 6.14,9.26 -4.85,7.83 6.08,3.63 24.29,-9.31 18.23,-12.97 39.92,-23.55 48.2,-23.55 8.28,0 24.45,-6.85 35.91,-15.21 43.6,-31.86 26.32,-4.1 -44.85,72.02zm67.1 2.91c-9.42,27.57 -14.74,54.03 -11.78,58.79 2.94,4.73 0.74,11.45 -4.86,14.92 -15.18,9.44 -41.51,123.83 -49.8,123.83 -8.17,0 -74.53,-77.4 -74.53,-86.92 0,-10.29 148.83,-168.72 154.17,-164.12 2.14,1.82 -3.81,25.9 -13.2,53.5zm1320.3 208.25c-4.08,117.93 -10.85,223.52 -15.09,234.63 -8.91,23.45 -132.58,162.01 -144.56,162.01 -11.91,0 -4.03,-39.36 -16.12,-44.66 -13.73,-6.12 -99.96,-180.45 -89.24,-180.45 5.58,0 13.2,4.9 16.91,10.87 3.7,6.01 11.03,8.26 16.29,5.01 5.24,-3.23 19.19,0.13 30.96,7.46 11.8,7.35 24.55,10.24 28.36,6.45 14.24,-14.23 -7.96,-28.78 -54.53,-35.77 -26.43,-3.94 -48.05,-9.02 -48.05,-11.3 0,-4.92 77.21,-114.38 86.1,-122.08 3.41,-2.96 17.81,-22.25 31.99,-42.88 14.21,-20.64 28.55,-39.93 31.91,-42.87 3.36,-2.96 32.51,-40.35 64.79,-83.08 32.31,-42.75 60.73,-77.73 63.19,-77.73 2.46,0 1.13,96.49 -2.91,214.39zm-319.46 -24.55c23.7,177.85 23.94,175.71 -32.84,308.63 -58.1,136.03 -67.23,155.42 -72.97,155.42 -12.57,-0.05 -145.12,-233.92 -137.11,-241.91 2.52,-2.51 59.72,-11.61 127.14,-20.21 104.43,-13.36 109.88,-14.92 36.72,-10.4 -47.23,2.88 -101.57,8.04 -120.76,11.46 -24.42,4.34 -34.89,2.06 -34.89,-7.52 0,-12.62 206.29,-365.12 210.95,-360.47 1.11,1.14 11.82,75.38 23.76,165zm-75.12 -112.11c-13.39,19.16 -27.01,37.26 -30.24,40.19 -9.82,8.88 -8.31,35.9 -22.81,41.09 -5.47,1.99 -9.95,10.4 -9.95,18.76 0,8.36 -3.62,15.19 -8.09,15.19 -4.47,0 -14.95,15.66 -23.31,34.85 -8.34,19.15 -18.2,37.25 -21.94,40.19 -3.75,2.96 -15.24,23.46 -25.53,45.56 -10.32,22.12 -23.33,40.19 -28.97,40.19 -5.61,0 -10.24,9.65 -10.24,21.45 0,11.78 -2.59,21.44 -5.82,21.44 -12.01,0 -208.86,-111.31 -208.86,-118.11 0,-10.49 85.57,-44.29 85.78,-56.1 0.05,-4.41 9.76,-8.04 21.56,-8.04 11.83,0 21.48,-4.26 21.48,-9.44 0,-5.22 8.44,-12.15 18.79,-15.4 30.27,-9.55 103.9,-54.38 113.24,-68.95 4.74,-7.36 18.02,-13.39 29.53,-13.39 11.51,0 20.93,-4.82 20.93,-10.72 0,-5.9 7.25,-10.71 16.11,-10.71 8.84,0 16.11,-4.84 16.11,-10.74 0,-5.88 9.95,-10.72 22.1,-10.72 12.14,0 19.13,-4.82 15.47,-10.72 -3.65,-5.9 3.63,-10.71 16.2,-10.71l22.8 0 -24.34 34.84zm-943.48 232.84c64.17,76.54 64.7,104.98 2.97,156.92 -27.28,22.94 -78.21,68.24 -113.19,100.65 -34.98,32.44 -68.29,60.69 -74,62.81 -6.25,2.3 -8.23,-16.91 -4.98,-48.23 6.77,-64.93 6.27,-132.15 6.96,-197.54l161.95 17.3c36.62,3.92 52.34,2.17 47.68,-5.34 -3.81,-6.17 -41.67,-11.3 -84.14,-11.38 -113.69,-0.26 -120.46,-9.23 -56.12,-74.48 29.29,-29.71 56.62,-54 60.72,-54 4.11,0 27.57,23.97 52.15,53.29zm429.63 -21.14c0,14.09 -21.45,14.14 -21.45,0 0,-14.11 21.45,-14.06 21.45,0zm-1635.36 91.25c12.99,3.97 111.02,149.46 111.02,164.73 0,9.66 -322.61,75.8 -335.46,68.77 -10.24,-5.64 -10.64,-232.84 -0.43,-243.05 7.09,-7.06 196.98,0.98 224.87,9.55zm128.72 79.51c0.87,42.44 -0.24,75.38 -2.46,73.16 -11.38,-11.35 -90.38,-138.57 -90.38,-145.52 0,-10.25 79.14,-5.26 91.25,-4.82l1.59 77.18zm2187.68 47.39c27.73,52.17 48.18,100.64 45.48,107.68 -5,13.05 -207.85,56.3 -217.75,46.44 -2.96,-2.97 19.77,-64.06 50.48,-135.76 30.75,-71.7 59.38,-126.5 63.64,-121.79 4.26,4.71 30.42,51.25 58.15,103.43zm-1307.67 -66.73c-3.71,18.44 -6.72,71.49 -6.72,117.92 0,46.41 -4.4,84.4 -9.77,84.4 -12.83,0 -183.46,-139.25 -183.46,-149.72 0,-8.79 167.96,-83.16 191.88,-84.96 10.92,-0.85 13.01,7.59 8.07,32.36zm1378.08 -22.47c0,6.99 7.09,9.98 15.74,6.67 8.68,-3.33 18.63,-1.43 22.12,4.21 3.49,5.63 16.7,10.27 29.34,10.27 32.04,0 10.8,-17.47 -32.3,-26.54 -23.9,-5.03 -34.9,-3.34 -34.9,5.39zm-359.73 118.35c33.68,59.38 58.92,110.25 56.15,113.03 -8.74,8.71 -286.73,-129.27 -283.24,-140.57 3.65,-11.91 134.22,-80.2 153.62,-80.3 6.74,-0.05 39.82,48.47 73.47,107.84zm456.35 -97.2c0,14.21 35.57,14.05 26.83,0 -3.65,-5.91 -11.16,-10.75 -16.72,-10.75 -5.58,0 -10.11,4.84 -10.11,10.75zm-1639.91 111.78c3.17,-3.15 15.35,6.4 27.04,21.27 11.69,14.85 24.32,23.95 28.05,20.22 3.73,-3.73 6.8,2.06 6.8,12.86 0,10.82 2.99,16.67 6.64,13.01 6.48,-6.48 36.27,17.2 36.27,28.84 0,8.66 -48.61,-16.5 -57.92,-7.22 -3.57,3.55 -6.48,1.51 -6.48,-4.58 0,-6.06 -12.06,-9.68 -26.83,-8.09 -18.78,2.09 -27.09,-2.38 -27.7,-14.85 -0.5,-11.13 -2.86,-12.8 -6.24,-4.41 -7.99,19.79 -24.98,16.27 -25.85,-5.38 -0.66,-16.35 -1.8,-16.11 -8.89,1.99 -15.3,38.97 -23.5,-2.22 -10.61,-53.31l12.54 -49.75c6.55,7.61 45.91,56.67 53.18,49.4zm1053.23 34.05c110.12,55.38 123.37,64.48 76.75,52.71 -17.7,-4.47 -41.85,-8.92 -53.66,-9.9 -11.82,-0.98 -58.71,-8.25 -104.21,-16.22l-82.74 -14.44 15.9 -30.75c8.79,-16.93 23.55,-30.77 32.84,-30.77 9.28,0 61.09,22.23 115.12,49.37zm-1781.36 66.33c-7.49,39.53 -22.02,133.38 -32.34,208.58 -10.31,75.16 -22.56,136.65 -27.22,136.65 -4.66,0 -14.1,-10.53 -21.04,-23.44 -6.9,-12.88 -16.96,-28.57 -22.33,-34.84 -33.47,-38.98 -191.29,-252.42 -191.29,-258.69 0,-4.18 -8.44,-13.84 -18.79,-21.46 -27.62,-20.4 -8.44,-31.59 79.99,-46.72 42.49,-7.25 112.55,-21.75 155.65,-32.17 43.95,-10.64 81.12,-14.77 84.64,-9.4 3.47,5.27 0.19,41.94 -7.27,81.49zm54.05 -48.71l9.68 45.57c3.79,17.78 4.77,17.04 5.8,-4.34 1.22,-25.11 1.82,-25.27 22.73,-6.38 11.8,10.66 21.45,26.7 21.45,35.61 0,8.89 3.23,12.97 7.17,9.03 11.17,-11.14 46.52,25.92 46.52,48.76 0,11.22 4.13,17.86 9.18,14.76 11.46,-7.11 50.31,38.07 59.32,47.65 -11.95,9.99 -71.73,63.07 -81.94,56.86 -4.42,-2.7 -8.05,0.64 -8.05,7.41 0,6.77 -10.84,21.14 -24.15,31.91 -22.25,18.1 -24.71,18.23 -31.43,1.72 -5.69,-13.92 -7.47,-12.33 -8.07,7.2 -0.4,13.81 -11.62,33.92 -24.9,44.68 -22.25,18.08 -24.71,18.23 -31.46,1.72 -6.03,-14.81 -7.41,-14.07 -8.04,4.37 -0.43,12.22 -12.84,33.58 -27.6,47.41 -24.92,23.37 -26.83,23.71 -26.88,4.55 -0.03,-23.44 53.13,-388.7 59.58,-409.2 6.83,-21.78 25.53,-15.32 31.09,10.71zm2732.78 -5.37c0.05,4.45 14.5,92.48 32.06,195.64 38.58,226.37 38.1,218.25 11.94,201.95 -12.07,-7.56 -24.85,-34.6 -31.67,-67.1 -10.9,-51.99 -11.17,-52.3 -6.2,-7.24 5.61,50.58 4.5,50.66 -49.21,3.59 -8.86,-7.78 -45.08,-36.01 -80.51,-62.78 -35.43,-26.75 -68.95,-53.02 -74.48,-58.4 -11.8,-11.43 35.06,-66.01 49.19,-57.28 5.05,3.1 9.2,-1.51 9.2,-10.26 0,-8.79 12.07,-25.43 26.83,-37.02 14.77,-11.61 26.83,-24.98 26.83,-29.71 0,-10.74 66.83,-78.61 77.84,-79.06 4.42,-0.21 8.1,3.26 8.18,7.67zm-30.25 104.54c0.54,43.15 11.97,-1.66 4.95,-18.97 -2.93,-7.25 -5.16,1.27 -4.95,18.97zm-2705.57 16.06c0,36.06 12.56,4.29 5.4,-13.39 -2.97,-7.35 -5.4,-1.35 -5.4,13.39zm54.05 16.09c0.59,43.21 11.96,-1.76 4.95,-18.97 -2.94,-7.25 -5.16,1.29 -4.95,18.97zm2596.6 0.9c0.53,12.49 3.07,15.03 6.48,6.48 7.53,-18.69 -7.58,-34.09 -6.48,-6.48zm-2544.16 53.58c0.51,12.48 3.07,15.02 6.49,6.5 7.49,-18.78 -7.59,-34.06 -6.49,-6.5zm-116.84 20.55c0.51,43.14 11.98,-1.57 4.95,-18.97 -2.94,-7.25 -5.16,1.3 -4.95,18.97zm2671.74 -9.81c0.53,12.49 3.07,15.03 6.48,6.48 7.5,-18.76 -7.58,-34.07 -6.48,-6.48zm-2618.45 15.18c0,36.02 12.56,4.27 5.4,-13.41 -2.97,-7.36 -5.4,-1.32 -5.4,13.41zm577.98 131c180.08,60.59 326.05,115.01 324.38,120.91 -1.67,5.9 15.24,13.13 37.57,16.06 27.84,3.68 40.01,10.43 38.68,21.46 -3.62,30.46 -71.01,273.34 -78.07,281.44 -6.75,7.7 -101.26,-18.79 -123.96,-34.77 -5.93,-4.12 -33.82,-13.76 -62.02,-21.38 -28.18,-7.62 -53.84,-18.01 -56.99,-23.09 -3.15,-5.08 -17.52,-9.26 -31.94,-9.26 -14.39,0 -26.19,-5.61 -26.19,-12.49 0,-6.88 -2.94,-9.55 -6.54,-5.96 -6.42,6.38 -109.19,-26.24 -146.26,-46.43 -10.26,-5.58 -24.05,-10.16 -30.61,-10.16 -6.56,0 -27.15,-6.83 -45.75,-15.19 -18.62,-8.36 -65.24,-25.56 -103.61,-38.2 -38.39,-12.68 -79.45,-27.23 -91.25,-32.36 -11.8,-5.11 -40.8,-15.43 -64.4,-22.91 -23.63,-7.49 -47.52,-17.47 -53.16,-22.15 -5.58,-4.68 -19.44,-8.55 -30.77,-8.55 -15.29,0 -19.13,-5.5 -14.95,-21.43 5.14,-19.63 0.32,-21.43 -57.81,-21.43 -34.84,0 -63.39,-4.5 -63.39,-10 0,-12.68 222.25,-195.94 256.88,-224.9l51.36 15.3c28.26,8.39 198.73,64.87 378.8,125.49zm2029.89 -34.63c69.93,55.45 125.12,102.84 122.63,105.33 -4.76,4.76 -25.51,6.13 -276.6,18.57 -87.1,4.31 -158.35,12.28 -158.35,17.7 0,5.4 3.63,7.65 8.07,4.97 4.42,-2.67 97.39,-7.59 206.64,-10.92 109.22,-3.36 191.35,-3.42 182.48,-0.19 -8.86,3.26 -31.32,12.73 -49.92,21.04 -18.6,8.3 -38.5,15.1 -44.19,15.1 -9.15,0 -86.31,28.42 -147.42,54.27 -11.8,5 -45.62,16.06 -75.15,24.58 -29.52,8.52 -68.15,21.54 -85.88,28.95 -17.7,7.38 -37.01,14.65 -42.94,16.19 -5.9,1.51 -42.78,14.97 -81.97,29.95 -39.16,14.95 -74.19,24.23 -77.81,20.61 -3.63,-3.62 -6.59,-0.95 -6.59,5.9 0,6.88 -9.74,12.51 -21.62,12.51 -11.9,0 -31.22,4.82 -42.94,10.72l-42.65 21.46c-11.72,5.87 -28.71,10.71 -37.73,10.71 -9,0 -24.77,4.5 -35.03,9.98 -44.64,23.94 -168.62,64.24 -175.23,56.94 -4,-4.37 -18.02,-46.54 -31.15,-93.72 -13.15,-47.17 -30.63,-107.13 -38.84,-133.22 -22.35,-70.96 -20.55,-75.83 27.97,-75.83 29.53,0 42.94,-4.65 42.94,-14.89 0,-10.06 120.1,-55.27 367.69,-138.51 202.22,-68 371.87,-122.58 377.03,-121.34 5.16,1.24 66.6,47.65 136.56,103.14zm74.98 -79.41c0.53,12.49 3.07,15.03 6.51,6.49 7.48,-18.7 -7.61,-34.07 -6.51,-6.49zm-53.66 32.18c0.5,12.49 3.04,15.03 6.48,6.48 7.54,-18.85 -7.65,-34.03 -6.48,-6.48zm-2693.62 15.18c0,36 12.61,4.31 5.43,-13.41 -2.99,-7.36 -5.43,-1.32 -5.43,13.41zm94.94 165c0,10.19 32.12,15.29 37.86,6.03 8.49,-13.69 -37.86,-11.33 -37.86,-6.03zm53.65 6.16c0,13.92 32.23,-0.82 32.23,-6.16 0,-4.94 -32.23,-7.99 -32.23,6.16zm42.95 0c0,13.92 32.2,-0.81 32.2,-6.16 0,-4.94 -32.2,-7.98 -32.2,6.16zm42.94 0.35c0,14.07 21.48,14.07 21.48,0 0,-14.09 -21.48,-14.09 -21.48,0zm32.2 0.34c0,14.18 32.22,11.08 32.22,6.17 0,-5.34 -32.22,-20.08 -32.22,-6.17zm1765.91 5.85c-129.91,6.4 -228.95,13.02 -220.08,14.66 27.75,5.18 218.57,0.55 250.93,-6.09 20.13,-4.13 34.05,-1.3 40.08,8.2 6.77,10.72 9.26,11.01 9.39,1.17 0.11,-9.61 24.48,-13.42 85.41,-13.42 46.91,0 87.74,-4.02 90.78,-8.91 3.04,-4.92 -0.29,-8.58 -7.41,-8.1 -7.12,0.45 -119.22,6.09 -249.1,12.49zm273.73 -5.56c0,15.25 21.46,-0.65 21.46,-6.61 0,-5.52 -21.46,-9.01 -21.46,6.61zm-2243.58 10.08c0,5.9 -4.55,10.72 -10.11,10.72 -5.56,0 -13.1,-4.82 -16.75,-10.72 -8.72,-14.09 26.86,-14.2 26.86,0zm252.25 -5.21c24.02,8.55 241.54,11.56 241.54,3.36 0,-4.87 -56.75,-8.47 -126.13,-8.02 -69.37,0.45 -121.31,2.57 -115.41,4.66zm252.28 5.21c0,5.9 10.85,10.64 24.13,10.56 19.53,-0.13 21.09,-2.14 8.07,-10.56 -20.82,-13.41 -32.2,-13.41 -32.2,0zm54.93 4.82c8.7,8.7 331.39,14.37 326.04,5.71 -2.54,-4.1 -78.26,-8.36 -168.24,-9.47 -89.99,-1.11 -161,0.58 -157.8,3.76zm535.46 238.26c0,2.67 12.62,32.27 28.05,65.8 74.37,161.63 143.8,327.1 139.17,331.71 -2.83,2.83 -12.17,-1.86 -20.72,-10.4 -8.57,-8.55 -85.51,-76.97 -171.02,-152.06l-155.45 -136.5 29.95 -114.53c16.46,-63 32.81,-122.98 36.33,-133.3l12.57 -37.52c4.28,-13.02 20.71,11.96 53.66,81.57 26.11,55.19 47.46,102.53 47.46,105.23zm85.89 -84.46l123.45 95.12 1.4 125.04c0.93,83.24 -2.48,125.04 -10.21,125.04 -7.57,0 -7.12,4.45 1.3,12.86 16.29,16.27 16.93,72.89 0.84,72.89 -8.57,0 -8.33,4.5 0.77,15.46 7.06,8.46 11.22,28.97 9.21,45.56 -3.42,28.39 -5,27.14 -27.62,-22.17 -27.87,-60.7 -28.53,-64.17 -10.56,-53.82 7.38,4.23 2.78,-3.97 -10.24,-18.26 -20.69,-22.75 -56.86,-93.85 -56.86,-111.76 0,-3.49 6.03,-2.88 13.41,1.33 7.39,4.2 1.04,-6.38 -14.12,-23.5 -26.22,-29.63 -61.81,-99.83 -67.66,-133.43 -1.48,-8.6 -13.15,-32.3 -25.85,-52.7 -12.75,-20.4 -26.27,-51.76 -30.08,-69.7 -3.79,-17.91 -13.28,-39.81 -21.06,-48.68 -7.78,-8.86 -19.26,-29.5 -25.48,-45.85 -10.19,-26.7 -9.45,-28.68 7.27,-19.16 10.27,5.85 74.19,53.42 142.09,105.73zm487.28 20.69c39.92,135.15 45.69,170.08 29.1,176.24 -11.4,4.21 -127.61,105.81 -224.47,196.27 -70.01,65.32 -109.4,96.78 -109.4,87.26 0,-2.91 53.63,-127.4 119.16,-276.62 65.54,-149.23 123.64,-282.87 129.12,-296.95 5.48,-14.07 11.72,-23.73 13.86,-21.43 2.15,2.28 21.33,63.13 42.63,135.23zm-68.66 -117.66c-0.03,4.42 -9.68,23.81 -21.46,43.13 -11.8,19.31 -21.43,40.11 -21.43,46.22 0,6.11 -11.64,36.14 -25.88,66.76 -14.2,30.55 -36.75,82.12 -50.03,114.56 -13.31,32.41 -36.7,72.97 -51.99,90.09 -15.27,17.12 -21.19,27.36 -13.2,22.78 19.37,-11.11 7.54,28.71 -23.76,80.06 -12.6,20.64 -21.8,40.8 -20.51,44.8 2.99,9.18 -40.77,103.04 -49.02,121.36 -0.06,-34.44 -3.51,-156.34 12.4,-176.05 9.87,-12.2 9.69,-13.89 -0.76,-7.59 -9.82,5.87 -13.42,-3.07 -13.42,-33.32 0,-22.75 6.04,-47.86 13.42,-55.82 9.39,-10.08 9.58,-12.25 0.61,-7.23 -9.45,5.3 -12.84,-13.86 -12.84,-72.62l0 -79.83 60.88 -46.38c33.47,-25.53 70.67,-54.56 82.61,-64.48 95.12,-79.19 134.49,-104.51 134.38,-86.44zm-225.58 404.92c-18.11,21.69 -8.61,32.4 8.73,4.6 15.58,-24.89 10.4,-27.65 -8.73,-4.6z"/>
  </g>
 </g>
</svg>
