<svg width="1371" height="335" viewBox="0 0 1371 335" fill="none" xmlns="http://www.w3.org/2000/svg">
<path d="M576 90.9999L0 91" stroke="#AF9855" stroke-width="4"/>
<path d="M1371 90.9999L795 91" stroke="#AF9855" stroke-width="4"/>
<path fill-rule="evenodd" clip-rule="evenodd" d="M681.156 2.93733C679.08 4.55307 677.081 6.09344 676.714 6.36125C676.202 6.73439 674.451 6.74979 669.217 6.4281C665.461 6.19757 662.312 6.08413 662.22 6.17691C662.127 6.26928 662.347 7.21085 662.708 8.26869C663.074 9.34355 663.208 10.3329 663.011 10.51C662.816 10.6842 661.927 11.0164 661.034 11.2482C660.142 11.4799 654.208 13.2233 647.849 15.123C641.489 17.0228 634.368 19.1417 632.025 19.8317C629.682 20.522 627.035 21.3412 626.142 21.6524C625.25 21.9635 623.469 22.5117 622.186 22.8699C620.903 23.228 619.853 23.745 619.853 24.0185C619.853 24.2919 620.974 26.4907 622.345 28.9042C625.169 33.8782 625.153 33.0817 622.56 39.2671C621.773 41.1429 620.888 42.7979 620.593 42.9442C620.298 43.0905 618.165 43.7346 615.853 44.3756C613.542 45.0165 611.56 45.7766 611.449 46.0643C611.338 46.3523 612.439 49.5595 613.894 53.1916C617.016 60.9843 616.869 59.7218 617.224 81.8401L617.462 96.6281L615.476 99.864L613.49 103.1L608.76 102.967L604.03 102.834V115.017V127.201L603.016 127.455C601.661 127.795 601.661 129.439 603.016 131.432L604.03 132.925V144.188V155.451L610.129 155.701C613.484 155.839 616.427 156.073 616.668 156.222C616.965 156.406 617.025 157.987 616.854 161.138L616.601 165.783L622.708 173.991C628.355 181.583 628.942 182.237 630.521 182.703C631.46 182.98 633.597 183.73 635.271 184.37C638.047 185.431 658.131 192.564 665.195 194.998C668.499 196.137 668.258 195.944 682.733 208.956C684.276 210.343 683.675 210.7 690.652 204.246C697.123 198.262 699.492 196.375 701.498 195.611C702.674 195.163 710.026 192.535 717.837 189.77C725.647 187.005 732.402 184.577 732.848 184.375C733.295 184.173 735.063 183.516 736.778 182.915C738.493 182.314 739.988 181.584 740.1 181.293C740.212 181.002 741.113 179.7 742.102 178.401C743.091 177.101 745.579 173.788 747.629 171.039L751.358 166.04L751.029 145.615C750.848 134.382 750.793 125.191 750.906 125.191C751.018 125.191 752.002 125.984 753.089 126.954L755.067 128.716L754.768 131.909C754.563 134.09 754.078 135.973 753.236 137.853C752.558 139.367 752.075 140.667 752.163 140.743C752.814 141.304 759.655 145.449 759.929 145.449C760.12 145.449 761.728 144.325 763.501 142.952C766.082 140.954 766.723 140.246 766.71 139.407C766.7 138.83 766.354 133.527 765.939 127.622L765.187 116.886L767.594 106.966L770 97.0474L768.795 96.0273C768.132 95.4665 764.258 92.2727 760.185 88.9303C756.112 85.5878 752.338 82.4811 751.797 82.0261L750.816 81.1992L751.206 70.2768L751.596 59.3544L754.293 52.8821C755.776 49.3221 756.989 46.2085 756.989 45.9626C756.989 45.717 756.048 45.2989 754.898 45.034C753.748 44.769 751.535 44.1661 749.979 43.6941L747.151 42.8364L746.039 40.3589C745.427 38.9964 744.556 36.8775 744.103 35.6503L743.28 33.4187L745.852 28.7628C747.267 26.2018 748.281 23.9621 748.105 23.7859C747.773 23.4517 729.422 17.7739 714.388 13.3533C709.59 11.9426 705.582 10.7243 705.48 10.6457C705.379 10.5671 705.531 9.91724 705.819 9.20175C707.05 6.14287 707.507 6.3653 700.664 6.69469L694.532 6.99004L690.086 3.49523C687.641 1.57279 685.481 0 685.286 0C685.091 0 683.233 1.3216 681.156 2.93733ZM685.077 13.1657C685.068 19.2944 684.988 24.309 684.898 24.309C684.809 24.309 684.217 23.1697 683.583 21.7768C682.95 20.3843 681.223 16.7306 679.746 13.658C678.269 10.5853 677.072 7.94174 677.087 7.78332C677.127 7.34455 684.529 1.68744 684.83 1.86652C684.975 1.95241 685.085 7.03704 685.077 13.1657ZM691.058 5.82483C692.397 6.93048 693.444 8.05558 693.385 8.32501C693.326 8.59443 691.556 12.3469 689.453 16.6634L685.629 24.5115L685.605 13.0179L685.581 1.52458L687.102 2.66952C687.939 3.29953 689.719 4.71918 691.058 5.82483ZM674.075 7.94336L676.566 8.15809L680.262 15.9742C682.295 20.2733 683.958 23.9139 683.958 24.0642C683.958 24.5314 682.512 23.5922 681.073 22.1916C680.317 21.4551 678.602 19.9188 677.263 18.7775C669.151 11.8632 664.67 7.94011 664.557 7.65448C664.434 7.34536 668.591 7.47176 674.075 7.94336ZM704.053 9.01457C704.024 9.73898 703.802 10.6959 703.56 11.1416C702.638 12.84 698.766 20.8044 698.751 21.0317C698.743 21.163 698.301 22.1977 697.77 23.3309L696.805 25.3911L691.598 25.3931C688.735 25.3939 686.392 25.3295 686.392 25.2497C686.392 25.1257 688.365 23.2454 693.329 18.6369C694.291 17.7443 698.785 13.7111 701.164 11.6055C701.631 11.1922 702.452 10.5059 702.988 10.0805C703.524 9.65511 703.844 9.18919 703.7 9.04536C703.556 8.90113 703.118 9.13328 702.726 9.56071C702.334 9.98814 700.187 11.9312 697.956 13.8784C695.724 15.8259 692.35 18.8658 690.456 20.6338C688.563 22.4015 686.938 23.7725 686.845 23.6798C686.752 23.5874 688.346 20.0901 690.386 15.9086L694.097 8.30556L697.446 8.07706C704.582 7.59047 704.114 7.52403 704.053 9.01457ZM669.05 12.398C677.612 19.6984 683.549 24.9163 683.551 25.1436C683.551 25.2683 680.601 25.3595 676.993 25.3461C671.519 25.3259 670.408 25.2214 670.273 24.7141C670.136 24.1979 669.505 22.536 667.738 18.0291C667.563 17.5835 667.107 16.3984 666.723 15.3957C666.338 14.3929 665.766 12.9676 665.45 12.2278C665.134 11.4884 664.968 10.7344 665.08 10.5521C665.193 10.3698 665.014 9.99544 664.682 9.71994C664.1 9.2374 663.859 8.50813 664.282 8.50813C664.395 8.50813 666.541 10.2584 669.05 12.398ZM662.454 12.2995C662.454 12.415 655.884 17.9339 653.124 20.1359C652.789 20.4033 651.235 21.6795 649.671 22.972C648.108 24.2644 646.299 25.7347 645.653 26.2391C645.007 26.7435 644.566 27.243 644.672 27.3488C644.778 27.4545 645.786 26.7686 646.913 25.8238C648.04 24.8794 649.759 23.4683 650.733 22.6884C651.708 21.9084 654.15 19.9026 656.161 18.2309C662.549 12.9214 663.657 12.0982 664.075 12.3558C664.3 12.494 664.483 12.9247 664.483 13.3128C664.483 13.7009 664.646 14.1916 664.844 14.4031C665.423 15.0205 667.856 22.2913 667.577 22.5701C667.437 22.7094 667.32 22.5652 667.317 22.2496C667.313 21.9068 667.191 21.8388 667.013 22.0806C666.403 22.9096 663.328 24.3312 663.064 23.9058C662.897 23.6352 662.413 23.7519 661.716 24.2308C660.44 25.1071 658.282 26.0098 657.753 25.8882C657.55 25.8416 656.483 26.2192 655.383 26.7277C654.283 27.2362 652.894 27.677 652.296 27.7069C651.698 27.7369 650.955 27.9638 650.645 28.2105C649.972 28.7457 647.167 29.7015 646.023 29.785C645.577 29.8174 644.39 30.2201 643.386 30.6795C639.634 32.3961 639.362 32.2191 641.965 29.7574C644.781 27.0956 644.354 27.2937 640.264 30.5487L637.346 32.871L631.41 29.7679C628.145 28.0614 625.369 26.7686 625.243 26.8954C625.116 27.0222 625.357 27.2536 625.78 27.41C626.202 27.5659 626.639 27.7981 626.751 27.9257C626.862 28.0533 627.684 28.5399 628.577 29.0071C629.469 29.4742 630.884 30.246 631.721 30.7221C632.558 31.1981 633.242 31.4716 633.242 31.3294C633.242 31.1872 633.577 31.3731 633.985 31.7422C634.394 32.1117 634.828 32.3143 634.95 32.1928C635.071 32.0712 635.279 32.2531 635.411 32.5971C635.587 33.0565 635.386 33.2222 634.65 33.2222C634.099 33.2222 633.645 32.9945 633.642 32.7158C633.637 32.3115 633.571 32.3119 633.313 32.717C633.127 33.0095 632.443 33.1607 631.696 33.074C630.984 32.9909 630.403 33.0363 630.403 33.174C630.403 33.3122 629.402 33.3624 628.178 33.2863L625.953 33.1481L624.691 30.667C623.996 29.302 623.172 27.8196 622.858 27.3727C622.128 26.3323 622.085 25.2688 622.795 25.8169C623.074 26.0325 623.667 26.3307 624.114 26.4797C624.769 26.6985 624.73 26.5952 623.911 25.9437C623.353 25.5001 622.668 25.133 622.389 25.1282C621.151 25.1063 622.044 24.001 623.606 23.621C624.555 23.3901 629.53 21.9105 634.662 20.3324C656.715 13.5522 662.454 11.8932 662.454 12.2995ZM709.148 15.5683C711.468 17.4457 713.444 18.9043 713.539 18.8095C713.634 18.7142 713.636 18.5781 713.543 18.5064C712.104 17.3963 706.273 12.4822 706.273 12.3797C706.273 12.3028 706.867 12.3801 707.592 12.5515C709.162 12.9226 737.615 21.5037 741.966 22.9181C743.633 23.4602 745.322 23.9038 745.718 23.9038C747.013 23.9038 746.48 24.6922 744.417 25.8283C743.305 26.4413 742.392 27.0948 742.389 27.2807C742.385 27.4671 743.205 27.1608 744.209 26.6005C745.213 26.0402 746.035 25.6715 746.035 25.7817C746.035 25.8919 745.127 27.664 744.017 29.7193L741.999 33.4568L743.626 37.6461C744.521 39.9501 745.173 41.9155 745.075 42.0136C744.977 42.1116 743.28 41.1538 741.306 39.8853C739.332 38.6168 737.352 37.3625 736.906 37.0979C736.459 36.8333 735.377 36.1827 734.501 35.6523C733.625 35.122 733.025 34.8781 733.169 35.1102C733.313 35.3424 736.179 37.2324 739.538 39.3104C742.899 41.3884 745.506 43.2088 745.334 43.3554C745.161 43.5021 742.938 43.9238 740.393 44.2925C737.847 44.6612 735.661 45.066 735.535 45.1916C735.409 45.3176 735.57 45.5837 735.893 45.7827C736.243 45.9986 736.574 45.9905 736.715 45.7616C736.846 45.5513 737.581 45.2876 738.349 45.1758C744.834 44.2326 745.464 44.534 743.812 47.7906C743.233 48.9307 742.601 49.7653 742.407 49.6454C742.212 49.5254 742.144 49.775 742.256 50.2004C742.372 50.6449 742.129 51.302 741.685 51.7457C741.26 52.1703 740.971 52.6957 741.044 52.9137C741.117 53.1317 740.935 53.6401 740.64 54.0437C740.151 54.7105 739.815 54.3824 736.956 50.4451C734.106 46.5205 733.875 46.0647 734.505 45.6048C735.133 45.1466 735.106 45.1008 734.235 45.1357C733.331 45.1717 733.199 44.8751 732.179 40.5149C730.933 35.1933 730.761 33.6088 731.51 34.3567C732.159 35.0053 732.671 34.9749 732.413 34.3036C732.247 33.8713 733.057 33.785 736.483 33.8701C738.927 33.9308 740.76 33.815 740.76 33.5994C740.76 33.1858 740.82 33.1914 735.917 33.14L732.494 33.1043L733.67 32.1684C734.316 31.6535 734.929 31.316 735.031 31.4177C735.133 31.5198 735.57 31.284 736.002 30.8934C736.434 30.5029 736.863 30.2335 736.954 30.2938C737.207 30.4628 740.348 28.6019 740.351 28.281C740.353 28.1259 738.253 29.097 735.685 30.4393L731.016 32.8799L729.295 31.5433C727.121 29.8546 716.113 20.819 714.895 19.7223C714.393 19.2705 713.992 19.0692 714.003 19.2754C714.015 19.4812 716.127 21.3818 718.698 23.4987C726.263 29.7307 728.588 31.6883 728.588 31.8297C728.588 32.0753 724.018 30.3963 723.485 29.9551C723.197 29.7157 722.355 29.4592 721.615 29.3855C720.876 29.3117 719.358 28.8422 718.242 28.3426C717.127 27.8431 715.94 27.4006 715.605 27.3597C714.359 27.2078 711.728 26.2128 711.08 25.6492C710.712 25.3283 709.778 25.007 709.006 24.9353C708.233 24.8636 707.165 24.5285 706.632 24.1907C706.1 23.8528 704.899 23.4537 703.964 23.3034C703.028 23.1531 702.047 22.771 701.784 22.4542C701.52 22.1374 701.053 21.8781 700.746 21.8781C700.439 21.8781 700.187 21.7314 700.187 21.5523C700.187 21.0098 702.346 16.8234 702.701 16.678C702.883 16.603 702.931 16.379 702.808 16.1796C702.462 15.6197 703.417 14.1223 703.922 14.4343C704.193 14.6016 704.255 14.525 704.078 14.2394C703.744 13.6997 704.142 12.1545 704.614 12.1545C704.787 12.1545 706.828 13.6904 709.148 15.5683ZM715.199 28.5772C722.675 31.1835 728.996 33.5719 729.246 33.8843C729.497 34.1966 730.115 36.4091 730.618 38.8003C732.134 45.9962 732.146 46.0237 736.019 51.067C736.284 51.411 737.123 52.5766 737.885 53.6567L739.27 55.6205L738.18 61.5389C737.529 65.0767 737.094 68.8604 737.1 70.9457C737.105 72.8645 736.995 75.2634 736.856 76.2762L736.603 78.1184L732.218 78.9368C729.805 79.3874 722.795 80.619 716.639 81.6744C706.079 83.4847 705.416 83.5527 704.925 82.8826C704.638 82.4916 703.624 80.6843 702.67 78.8659C699.036 71.9399 700.182 72.9313 689.208 67.213L686.952 66.0373L685.408 61.2176L683.863 56.3976L680.233 53.1402C676.746 50.012 676.502 49.6762 674.068 44.6924C672.675 41.8377 671.256 38.9802 670.915 38.3429L670.296 37.1834L668.05 40.9764C666.814 43.0621 665.374 45.5278 664.85 46.4548C663.819 48.2808 663.009 48.6122 656.166 50.0096C653.138 50.6274 653.902 50.7032 642.045 48.6094C640.526 48.3412 639.22 48.188 639.141 48.2687C639.062 48.3493 639.72 51.5147 640.603 55.3029L642.208 62.1904L641.606 67.2548C641.015 72.217 641.02 72.3479 641.851 73.7372C644.951 78.9223 645.877 80.8094 645.704 81.5894C645.376 83.0698 642.487 93.3804 642.361 93.519C642.296 93.5915 640.298 93.3464 637.922 92.9745C635.545 92.6025 633.185 92.4024 632.676 92.53L631.75 92.7618L631.478 79.7378C631.235 68.1161 631.092 66.1147 630.152 61.1492L629.097 55.5845L631.03 52.81C632.092 51.2842 633.076 49.9448 633.217 49.8334C633.357 49.7219 634.045 48.7192 634.746 47.605C635.705 46.0805 636.344 44.1086 637.332 39.6325L638.645 33.6857L653.169 28.7948C661.157 26.1046 667.949 23.9038 668.262 23.9038C668.574 23.9038 668.999 24.4961 669.207 25.2205L669.585 26.5373L683.648 26.6438L697.71 26.7504L698.511 24.9414C699.267 23.2349 699.378 23.1523 700.46 23.4853C701.091 23.6794 707.724 25.9709 715.199 28.5772ZM741.166 27.5501C740.844 27.7487 740.672 28.0023 740.784 28.1137C740.895 28.2251 741.25 28.1538 741.572 27.9553C741.893 27.7568 742.065 27.5032 741.953 27.3917C741.842 27.2803 741.488 27.3516 741.166 27.5501ZM635.918 34.2546C635.665 34.5078 635.004 34.9534 634.451 35.2447C633.898 35.536 631.893 36.7811 629.997 38.0115C625.831 40.7134 622.693 42.5792 622.693 42.3543C622.693 42.1226 624.716 37.2215 625.164 36.3678C625.368 35.9809 625.534 35.3825 625.534 35.0377C625.534 34.069 626.737 33.8316 631.748 33.8121C635.206 33.7984 636.263 33.9106 635.918 34.2546ZM636.306 38.945C635.741 41.4796 635.182 43.9636 635.064 44.4651C634.946 44.9667 634.585 45.3767 634.262 45.3767C633.911 45.3767 633.766 45.617 633.902 45.9727C634.038 46.3248 632.926 48.2298 631.183 50.6303C629.562 52.8643 628.194 54.6473 628.144 54.5922C627.459 53.8407 625.93 50.4411 626.091 50.0242C626.224 49.6766 626.098 49.5481 625.752 49.6806C625.421 49.8078 625.086 49.5173 624.914 48.9509C624.755 48.4336 624.351 47.697 624.015 47.3145C623.679 46.9317 623.494 46.2725 623.605 45.8487C623.74 45.3322 623.605 45.0947 623.192 45.1263C622.855 45.1527 622.498 44.9464 622.399 44.6677C622.301 44.3894 622.509 44.1613 622.863 44.1613C623.216 44.1613 623.505 43.968 623.505 43.7322C623.505 43.4964 623.322 43.4158 623.099 43.5535C622.876 43.6913 622.693 43.6528 622.693 43.4681C622.693 43.2833 624.017 42.3223 625.635 41.3321C627.253 40.3419 630.489 38.3052 632.826 36.8058C635.164 35.3063 637.134 34.1375 637.205 34.208C637.276 34.2785 636.871 36.4104 636.306 38.945ZM670.525 47.6962L670.569 50.6234L669.289 50.3677C668.364 50.183 668.09 50.2438 668.303 50.5873C668.522 50.941 667.993 50.9945 666.235 50.7968C663.56 50.4958 663.347 50.4006 663.966 49.7827C664.286 49.4635 664.821 49.4764 665.893 49.8301C666.71 50.0991 667.47 50.2272 667.583 50.1149C667.695 50.0023 667.229 49.788 666.546 49.6381C665.863 49.4886 665.2 49.1985 665.073 48.9935C664.947 48.7889 665.994 46.7003 667.402 44.3525L669.96 40.0838L670.22 42.4264C670.364 43.7148 670.501 46.0861 670.525 47.6962ZM673.225 46.0464C674.225 48.1978 674.995 49.9865 674.936 50.0222C674.208 50.4613 671.735 50.8896 671.561 50.6068C671.222 50.0602 670.828 42.1355 671.139 42.1355C671.286 42.1355 672.225 43.8955 673.225 46.0464ZM623.911 44.1426C623.911 44.4279 624.221 44.5227 624.68 44.3772C625.121 44.2374 625.714 44.3991 626.074 44.7585C626.46 45.1442 626.796 45.2268 626.952 44.9748C627.305 44.4044 627.809 44.4655 628.507 45.1628C629.033 45.6879 629.164 45.6879 629.6 45.1628C629.995 44.6872 629.983 44.5599 629.539 44.5352C629.233 44.5182 628.708 44.4477 628.374 44.378C625.557 43.7942 623.911 43.7071 623.911 44.1426ZM622.38 45.6806C622.937 46.5164 624.088 48.4761 624.937 50.0359C625.785 51.5958 626.768 53.3189 627.121 53.8654C627.733 54.8118 627.725 54.8442 626.952 54.5533C626.122 54.2406 620.047 50.8766 615.457 48.188C614.044 47.3599 613.056 46.578 613.264 46.4504C613.737 46.1582 620.303 44.2119 620.914 44.1827C621.163 44.171 621.822 44.8452 622.38 45.6806ZM745.551 44.5968C745.471 44.8362 745.232 45.0323 745.02 45.0323C744.808 45.0323 744.569 44.8362 744.489 44.5968C744.409 44.3574 744.648 44.1613 745.02 44.1613C745.392 44.1613 745.631 44.3574 745.551 44.5968ZM751.195 45.2519C753.275 45.852 754.917 46.5209 754.844 46.7384C754.771 46.956 753.079 48.0418 751.083 49.1511C745.141 52.4543 741.94 54.388 742.12 54.5675C742.213 54.6603 743.816 53.8395 745.683 52.7435C751.159 49.5287 754.599 47.7169 754.815 47.9328C754.989 48.1066 754.089 50.606 752.89 53.2771C752.69 53.7228 752.088 55.1813 751.552 56.5183C750.888 58.1742 750.328 58.9877 749.794 59.0695C749.364 59.136 747.283 58.3617 745.171 57.3493C741.956 55.8081 741.337 55.3596 741.367 54.5951C741.401 53.7487 744.543 47.1946 745.927 45.0866C746.682 43.9348 746.621 43.9328 751.195 45.2519ZM630.402 45.053C630.402 45.2309 630.631 45.3998 630.909 45.4286C631.189 45.4569 631.827 45.523 632.329 45.5756C632.832 45.6283 633.242 45.5339 633.242 45.3658C633.242 45.1976 632.603 44.9857 631.822 44.8946C631.041 44.8034 630.402 44.8747 630.402 45.053ZM614.899 48.361C615.735 48.8885 617.42 49.8544 618.644 50.5079C622.103 52.3558 626.742 55.1635 626.985 55.5561C627.106 55.751 626.943 55.9106 626.623 55.9106C626.302 55.9106 624.261 56.7355 622.086 57.7435C617.49 59.8734 617.83 60.0176 616.006 55.1643C615.364 53.4578 614.415 51.1161 613.898 49.9606C612.549 46.9523 612.582 46.9005 614.899 48.361ZM738.326 48.906C738.326 49.1385 738.645 49.5793 739.036 49.8852C739.693 50.3994 739.701 50.3803 739.15 49.6308C738.823 49.1851 738.503 48.7447 738.44 48.6515C738.377 48.5588 738.326 48.6734 738.326 48.906ZM645.952 54.5124L649.534 57.7196L648.387 58.6506C646.046 60.5508 643.369 62.0138 643.2 61.4846C643.109 61.2043 642.558 58.8783 641.974 56.3157C641.389 53.7532 640.803 51.2007 640.671 50.6437L640.431 49.6308L641.401 50.4678C641.935 50.9285 643.983 52.7484 645.952 54.5124ZM647.187 50.8908C648.109 51.0403 649.182 51.1481 649.573 51.1306C649.964 51.1132 650.283 51.2461 650.283 51.426C650.283 51.6059 650.831 51.6889 651.5 51.6112C652.17 51.5334 652.717 51.646 652.717 51.8611C652.717 52.0763 652.145 53.3436 651.445 54.6773L650.172 57.1021L649.112 56.3275C648.529 55.9017 646.956 54.5424 645.617 53.3075C644.278 52.0722 643.046 51.0589 642.879 51.0553C642.711 51.0516 642.574 50.8677 642.574 50.6461C642.574 50.2555 643.608 50.3106 647.187 50.8908ZM663.266 50.5796C663.266 50.7672 662.399 50.9232 661.339 50.926C659.85 50.9305 659.642 50.8624 660.426 50.6258C661.844 50.1972 663.266 50.1741 663.266 50.5796ZM658.803 51.0488C658.803 51.2716 658.62 51.454 658.397 51.454C658.174 51.454 657.991 51.2716 657.991 51.0488C657.991 50.826 658.174 50.6437 658.397 50.6437C658.62 50.6437 658.803 50.826 658.803 51.0488ZM676.82 52.0163C679.228 53.8719 680.506 55.0995 680.032 55.0999C679.573 55.1003 673.408 52.3753 673.015 51.9985C672.715 51.7104 673.936 51.0618 674.791 51.0549C675.217 51.0516 676.129 51.4843 676.82 52.0163ZM667.729 51.8891C667.729 52.0171 666.321 52.5628 664.6 53.1017C662.878 53.641 661.737 54.132 662.064 54.1936C662.39 54.2547 664.027 53.8306 665.7 53.2512C671.022 51.4078 669.96 50.9285 677.846 58.7325C681.705 62.5514 684.793 65.746 684.707 65.8311C684.622 65.9166 683.311 65.6536 681.794 65.2473C679.374 64.5986 679.066 64.5848 679.278 65.1371C679.422 65.511 679.063 66.2735 678.393 67.017L677.265 68.2676L678.704 66.9509C679.495 66.2265 680.438 65.6342 680.8 65.6342C681.931 65.6342 682.748 66.1046 682.458 66.5883C682.27 66.9015 682.376 66.893 682.785 66.5628C683.413 66.0559 685.299 66.3039 685.09 66.8654C684.872 67.4521 673.712 79.0041 673.363 79.0041C673.174 79.0041 672.913 78.5025 672.784 77.8899C672.655 77.2774 672.377 76.4594 672.168 76.0724C671.958 75.6855 671.786 74.9259 671.786 74.3842C671.786 73.8425 671.587 73.3332 671.343 73.2522C671.099 73.1708 670.874 72.563 670.841 71.9014C670.809 71.2398 670.618 70.5811 670.416 70.4376C670.216 70.2938 670.031 69.6107 670.006 68.9191C669.981 68.2275 669.837 67.6615 669.685 67.6607C669.41 67.6599 668.135 63.6854 668.135 62.8293C668.135 62.333 670.093 62.6519 670.752 63.2555C670.964 63.4496 671.729 63.6084 672.452 63.6084C673.175 63.6084 673.884 63.798 674.028 64.0302C674.171 64.2619 674.593 64.3571 674.965 64.2421C675.337 64.1266 675.903 64.1963 676.223 64.3973C676.726 64.7125 676.728 64.8628 676.23 65.5021C675.678 66.2119 675.689 66.2131 676.491 65.5329C676.951 65.1431 677.663 64.8239 678.073 64.8239C679.621 64.8239 678.16 64.2721 674.13 63.3346C671.836 62.8014 669.504 62.2718 668.946 62.1584C668.388 62.045 667.293 61.7788 666.512 61.5673C664.72 61.0811 664.483 61.0831 664.483 61.5827C664.483 61.8055 664.62 61.9664 664.787 61.94C664.955 61.9133 665.228 61.9364 665.396 61.9907C665.564 62.0446 665.883 62.1349 666.106 62.1904C666.329 62.2459 666.594 62.3144 666.695 62.3423C666.796 62.3703 666.609 63.2588 666.279 64.3174C665.326 67.3723 661.572 80.3281 661.346 81.3398C661.024 82.7777 660.531 82.7769 660.055 81.3374C659.814 80.6113 657.622 75.1868 655.184 69.2834C652.745 63.3799 650.806 58.495 650.873 58.4282C650.985 58.3152 657.429 59.8292 658.803 60.2911C659.138 60.4037 659.535 60.4714 659.685 60.4418C659.836 60.4118 660.84 60.6545 661.917 60.9806C664.239 61.6844 664.077 61.6645 664.077 61.2472C664.077 61.0629 661.475 60.3113 658.296 59.5772C655.116 58.8431 652.357 58.0984 652.164 57.9218C651.971 57.7451 653.947 56.93 656.555 56.1099C659.162 55.2899 661.213 54.5359 661.111 54.4342C661.01 54.3325 659.855 54.6032 658.546 55.0359C654.617 56.334 651.424 57.1856 651.227 56.9883C651.125 56.8862 651.586 55.725 652.252 54.4079L653.463 52.0131L657.011 51.9369C658.963 51.8948 660.606 51.8145 660.662 51.7586C660.878 51.5423 667.729 51.6691 667.729 51.8891ZM675.264 53.6154C675.609 53.4834 675.943 53.8962 676.192 54.7612C676.509 55.8595 676.589 55.9329 676.618 55.1522C676.649 54.3447 676.752 54.2718 677.263 54.6951C677.598 54.9727 677.897 55.5873 677.927 56.0613C677.98 56.887 677.99 56.885 678.159 56.0119C678.379 54.8669 679.094 54.8276 679.386 55.945C679.546 56.5524 679.697 56.6451 679.926 56.2748C680.371 55.5565 681.505 56.522 681.579 57.6819C681.632 58.5076 681.642 58.5056 681.81 57.6325C682.047 56.4024 682.553 56.4843 683.065 57.8351C684.133 60.6549 685.501 65.229 685.275 65.229C684.701 65.229 683.147 63.4115 683.147 62.7402C683.147 62.2844 682.935 62.0944 682.58 62.2305C681.912 62.4866 680.724 60.9462 680.684 59.7705C680.656 58.9816 680.643 58.98 680.349 59.7275C680.06 60.4657 680.009 60.456 679.364 59.5363C678.99 59.0027 678.681 58.1969 678.677 57.7447C678.673 57.1204 678.586 57.0572 678.317 57.4814C678.045 57.91 677.485 57.5583 675.89 55.9564C674.749 54.8114 673.815 53.658 673.815 53.3934C673.815 53.0381 673.934 53.0312 674.27 53.3671C674.521 53.617 674.968 53.7289 675.264 53.6154ZM628.495 58.9966C629.076 61.5166 629.111 62.1997 628.688 62.7208C628.326 63.1676 628.317 63.2713 628.659 63.0663C629.364 62.6438 630.078 65.5633 629.639 67.0745C628.764 70.088 619.037 93.7195 618.778 93.4606C618.562 93.2447 617.859 61.4133 618.066 61.2067C618.177 61.0961 620.736 62.2479 623.752 63.7664C626.769 65.2853 629.329 66.4364 629.44 66.3246C629.552 66.2127 628.901 65.7942 627.994 65.3947C627.087 64.9949 626.345 64.5208 626.345 64.3409C626.345 64.1607 626.002 64.0136 625.583 64.0136C625.164 64.0136 624.594 63.7401 624.316 63.4059C624.038 63.0716 623.479 62.7981 623.074 62.7981C622.668 62.7981 622.236 62.6369 622.114 62.44C621.992 62.2431 621.042 61.6828 620.003 61.195L618.113 60.3081L619.399 59.5274C620.106 59.0979 620.838 58.7466 621.026 58.7466C621.213 58.7466 622.715 58.115 624.363 57.3432C626.011 56.5714 627.455 55.9333 627.572 55.9252C627.69 55.9171 628.105 57.2995 628.495 58.9966ZM745.102 57.9185C747.505 59.023 749.529 60.1011 749.601 60.315C749.672 60.5289 749.318 60.8344 748.814 60.994C748.31 61.1536 747.64 61.543 747.323 61.8586C747.007 62.1742 746.222 62.5376 745.58 62.6661C744.937 62.7945 744.412 63.0161 744.412 63.1583C744.412 63.3005 743.453 63.858 742.282 64.3969C741.11 64.9357 739.831 65.6459 739.439 65.9753C738.457 66.801 738.304 66.4886 738.768 64.61C738.987 63.7247 739.233 62.5449 739.314 61.9878C739.575 60.2003 740.494 55.9106 740.615 55.9106C740.68 55.9106 742.699 56.8141 745.102 57.9185ZM679.933 57.7674C679.953 58.2394 680.049 58.3354 680.178 58.0125C680.295 57.72 680.28 57.3703 680.146 57.2358C680.011 57.1013 679.916 57.3404 679.933 57.7674ZM681.993 59.5569C681.993 60.114 682.086 60.3421 682.198 60.0634C682.311 59.785 682.311 59.3292 682.198 59.0505C682.086 58.7722 681.993 58.9999 681.993 59.5569ZM647.811 61.4814C647.088 62.7629 646.185 64.2668 645.805 64.8239C645.424 65.381 644.621 66.8119 644.019 68.0039C643.418 69.1963 642.864 70.1078 642.789 70.0296C642.713 69.9519 642.807 68.3386 642.997 66.4445C643.277 63.6688 643.506 62.8828 644.184 62.393C644.647 62.0587 645.798 61.1946 646.741 60.4726C647.685 59.7506 648.607 59.1579 648.791 59.1558C648.975 59.1534 648.534 60.1999 647.811 61.4814ZM651.413 61.3801C651.851 62.4943 653.339 66.1406 654.718 69.4831C658.308 78.1784 660.02 82.5674 660.02 83.0742C660.02 83.3169 659.701 83.417 659.31 83.2967C658.919 83.1767 657.413 82.7959 655.963 82.4507C653.707 81.9139 649.669 80.8747 647.95 80.3885C647.268 80.1957 647.307 79.2375 648.229 73.5346C648.662 70.8606 649.211 67.1231 649.45 65.229C650.023 60.6885 650.305 59.0379 650.476 59.2118C650.553 59.2903 650.975 60.266 651.413 61.3801ZM649.399 62.1211C649.497 62.6235 649.342 62.7248 648.791 62.5182C648.162 62.2828 648.128 62.3359 648.566 62.8735C648.984 63.3872 648.93 64.4439 648.284 68.5201C647.846 71.2779 647.366 74.7654 647.216 76.2693C647.066 77.7733 646.847 79.0041 646.731 79.0041C646.384 79.0041 645.494 77.7413 643.989 75.1163C642.573 72.6441 642.218 71.3063 642.98 71.3063C643.203 71.3063 643.386 70.9639 643.386 70.5454C643.386 70.1273 643.66 69.558 643.994 69.2805C644.329 69.003 644.603 68.5192 644.603 68.2053C644.603 67.8913 644.877 67.5295 645.211 67.4014C645.546 67.273 645.82 66.8229 645.82 66.4011C645.82 65.9794 645.957 65.6334 646.124 65.6326C646.292 65.6317 646.885 64.6298 647.443 63.4059C648.435 61.2306 649.136 60.7691 649.399 62.1211ZM749.951 70.769C749.802 76.0441 749.608 80.4327 749.52 80.5206C749.17 80.8698 744.312 79.6584 743.612 79.0475C742.921 78.445 738.731 68.4439 738.731 67.3986C738.731 67.143 739.416 66.579 740.253 66.1451C741.09 65.7112 743.509 64.4191 745.629 63.2746C747.749 62.1296 749.649 61.1897 749.852 61.1852C750.071 61.1808 750.111 65.0807 749.951 70.769ZM668.704 66.9618C669.264 68.7939 670.369 72.2867 671.16 74.7233C671.951 77.1599 672.598 79.2812 672.598 79.4372C672.598 79.7261 661.632 83.5847 661.419 83.3712C661.354 83.3072 662.477 79.2444 663.914 74.3429C665.351 69.4418 666.636 64.9333 666.771 64.3239C667.137 62.6717 667.577 63.2722 668.704 66.9618ZM689.506 70.7305C691.253 72.642 692.741 74.3712 692.814 74.5726C692.887 74.7739 692.111 75.1621 691.09 75.4347C689.993 75.7281 689.232 76.1656 689.232 76.5043C689.232 76.9678 689.349 76.9812 689.841 76.5732C690.365 76.1389 690.444 76.2872 690.409 77.6379C690.374 79.0199 690.33 79.0859 690.044 78.1938C689.743 77.2555 689.714 77.2855 689.65 78.599C689.593 79.7755 689.522 79.8788 689.232 79.2067C688.926 78.494 688.881 78.5333 688.856 79.5344C688.839 80.1843 688.653 80.5651 688.421 80.4221C688.198 80.2844 688.029 79.3165 688.044 78.2712C688.066 76.8366 688.158 76.5692 688.421 77.1809C688.754 77.954 688.771 77.9495 688.798 77.0796C688.819 76.4172 688.596 76.1681 687.983 76.1681C687.283 76.1681 687.175 76.3573 687.347 77.2822C688.044 81.0209 688.037 81.2904 687.21 82.0375C686.417 82.7546 686.392 82.7521 686.392 81.9597C686.392 81.5104 686.286 80.2516 686.156 79.1621C685.981 77.6983 686.033 77.3398 686.353 77.7887C686.712 78.2927 686.787 78.2408 686.792 77.4848C686.798 76.5355 686.516 76.3779 685.718 76.8848C685.387 77.0954 685.352 77.7226 685.6 79.0057C685.793 80.0077 685.959 81.3106 685.969 81.9009L685.987 82.975L683.045 82.1748C681.427 81.7348 679.465 81.2203 678.684 81.0315C674.86 80.1057 674.577 79.7439 677.162 79.0843L678.886 78.6447L676.655 78.87L674.423 79.0957L675.438 77.9357C677.527 75.5462 685.757 67.2548 686.039 67.2548C686.2 67.2548 687.76 68.8191 689.506 70.7305ZM629.926 71.3168C629.845 72.1648 629.89 72.7899 630.026 72.7061C630.162 72.6222 630.293 77.1732 630.317 82.8194L630.361 93.0851L629.063 93.3152C628.349 93.442 625.766 94.0056 623.324 94.5679C620.881 95.1303 618.848 95.5504 618.806 95.5014C618.765 95.4528 618.883 95.048 619.069 94.6024C619.255 94.1567 620.247 91.7866 621.274 89.3354C622.3 86.8843 624.636 81.1498 626.465 76.5922C629.615 68.7417 630.267 67.7482 629.926 71.3168ZM676.198 69.1792C675.693 69.8218 675.707 69.836 676.351 69.3324C677.027 68.8029 677.242 68.4702 676.908 68.4702C676.824 68.4702 676.504 68.7895 676.198 69.1792ZM740.518 73.7197C741.544 76.2726 742.383 78.5058 742.383 78.6828C742.383 78.8595 742.109 79.0041 741.774 79.0041C741.44 79.0041 741.166 78.8275 741.166 78.6115C741.166 78.396 740.911 78.317 740.598 78.4369C740.286 78.5564 739.921 78.4766 739.786 78.2594C739.652 78.0423 739.177 77.96 738.731 78.0767C738.046 78.2554 737.92 78.0885 737.92 77.0019C737.92 76.2941 738.091 75.8204 738.3 75.9493C738.534 76.0943 738.539 75.694 738.312 74.9028C738.109 74.1982 738.062 73.4297 738.208 73.1947C738.353 72.9597 738.424 71.8459 738.364 70.72C738.305 69.5941 738.345 68.764 738.454 68.8754C738.563 68.9868 739.492 71.1665 740.518 73.7197ZM695.251 72.6745C695.336 73.114 695.199 73.36 694.921 73.2672C694.66 73.1805 694.476 72.952 694.511 72.7595C694.547 72.5671 694.332 72.243 694.034 72.0388C693.635 71.7657 693.706 71.7017 694.3 71.7957C694.743 71.8658 695.172 72.2612 695.251 72.6745ZM696.341 73.7274C695.942 74.1678 695.447 74.4239 695.24 74.2963C695.034 74.1691 695.195 73.8145 695.598 73.5087C696.698 72.6761 697.168 72.8146 696.341 73.7274ZM700.631 77.614C701.734 79.579 702.588 81.3309 702.528 81.5075C702.468 81.6838 701.414 80.901 700.187 79.7678C698.96 78.6342 697.59 77.4054 697.144 77.0363C695.217 75.4428 695.141 75.0486 696.591 74.1682C697.331 73.7189 698.09 73.507 698.28 73.6966C698.47 73.8863 699.528 75.6495 700.631 77.614ZM691.137 77.2745C691.033 77.6687 690.943 77.4443 690.935 76.7758C690.927 76.1073 691.011 75.7848 691.122 76.0591C691.233 76.3334 691.24 76.8803 691.137 77.2745ZM691.944 76.6494C691.815 76.9723 691.719 76.8763 691.699 76.4043C691.682 75.9772 691.777 75.7382 691.912 75.8727C692.047 76.0072 692.062 76.3569 691.944 76.6494ZM698.758 79.0685C699.655 79.8837 701.109 81.202 701.988 81.9978C702.866 82.7935 703.465 83.5637 703.319 83.7091C703.044 83.9842 696.097 85.1834 695.903 84.9894C695.842 84.9286 695.66 82.8733 695.499 80.4221L695.206 75.9655L696.166 76.7758C696.694 77.2214 697.86 78.2534 698.758 79.0685ZM694.963 81.3491C695.031 83.1577 694.987 84.737 694.865 84.8589C694.508 85.2154 688.015 84.1823 688.015 83.7691C688.015 83.5628 689.423 81.8499 691.143 79.9627C694.739 76.0182 694.76 76.0258 694.963 81.3491ZM680.636 78.0654C680.929 78.1825 681.279 78.1679 681.414 78.0334C681.548 77.8989 681.309 77.8032 680.881 77.8207C680.409 77.8401 680.313 77.9361 680.636 78.0654ZM686.908 80.2196C686.908 81.2223 686.988 81.6327 687.085 81.1311C687.181 80.6296 687.181 79.8095 687.085 79.308C686.988 78.8064 686.908 79.2168 686.908 80.2196ZM742.605 80.4436C745.272 81.0124 748.002 81.5865 748.672 81.7194C749.685 81.9208 753.018 84.4363 759.566 89.9427C760.046 90.3458 762.206 92.15 764.367 93.9517C766.529 95.7538 768.379 97.3663 768.479 97.5356C768.58 97.705 767.674 101.763 766.467 106.554C764.926 112.666 764.272 116.051 764.273 117.898C764.275 120.65 764.973 132.613 765.311 135.672L765.507 137.442L757.986 130.101L750.465 122.76L745.105 122.732C742.158 122.717 739.198 122.631 738.529 122.54C737.859 122.449 735.851 122.655 734.066 122.996C730.995 123.583 724.438 124.736 719.054 125.634C717.715 125.857 714.885 126.383 712.765 126.804C710.645 127.224 708.18 127.677 707.288 127.81C704.613 128.208 694.453 130.046 692.275 130.525C691.16 130.77 687.965 131.874 685.175 132.979C682.386 134.084 676.543 136.359 672.192 138.036C667.84 139.713 662.181 141.901 659.614 142.899C649.418 146.864 641.238 149.921 641.126 149.81C640.95 149.634 642.026 108.181 642.212 107.999C642.452 107.762 651.743 104.123 652.107 104.123C652.281 104.123 652.304 105.171 652.159 106.453L651.895 108.783L655.033 105.607L658.171 102.432L658.542 103.582C658.747 104.214 658.986 104.812 659.073 104.911C659.16 105.011 660.49 103.845 662.027 102.322L664.822 99.5521L665.325 101.23C665.602 102.153 665.891 102.908 665.966 102.908C666.042 102.908 667.944 101.13 670.192 98.9577C672.441 96.7853 674.769 94.7847 675.366 94.512C676.36 94.0586 692.958 87.5548 695.318 86.6934C695.876 86.49 699.619 85.7681 703.636 85.0894C707.652 84.4104 716.508 82.8777 723.314 81.6834C730.12 80.4886 736.153 79.4883 736.722 79.4603C737.291 79.4323 739.938 79.8748 742.605 80.4436ZM650.486 81.6566C651.602 81.9969 653.153 82.3778 653.934 82.5034C654.715 82.629 655.446 82.8502 655.557 82.9948C655.669 83.1399 655.943 83.2642 656.166 83.2719C657.183 83.306 660.02 83.9603 660.02 84.1604C660.02 84.3501 656.36 88.6835 654.883 90.2421C654.512 90.6335 654.157 90.3459 653.259 88.9258C652.626 87.9263 651.992 87.1083 651.848 87.1079C651.706 87.1075 651.473 86.6513 651.334 86.0942C651.194 85.5371 650.9 85.0813 650.681 85.0813C650.462 85.0813 650.283 84.8079 650.283 84.4736C650.283 84.1394 650.129 83.8659 649.942 83.8659C649.654 83.8659 649.293 83.2975 648.335 81.3337C648.142 80.9391 648.119 80.9354 650.486 81.6566ZM650.848 86.4811C652.322 88.6993 653.528 90.7048 653.527 90.9378C653.526 91.2716 649.412 92.6021 644.299 93.9229C643.516 94.1251 643.686 92.8225 644.983 88.6823C645.638 86.5905 646.382 84.0786 646.636 83.101C647.196 80.9476 647.143 80.9055 650.848 86.4811ZM673.003 87.5122C673.003 90.8547 672.902 93.5895 672.779 93.5895C672.589 93.5895 667.707 89.8009 666.253 88.5251C665.669 88.0126 664.595 87.1472 663.151 86.0241C662.492 85.512 662.198 85.0372 662.444 84.8853C663.272 84.3744 671.596 81.4755 672.293 81.4557C672.939 81.437 673.003 81.9868 673.003 87.5122ZM679.818 82.898C682.653 83.7022 685.122 84.4995 685.306 84.6689C685.489 84.8387 683.024 86.9005 679.828 89.2507C675.058 92.7593 673.969 93.4031 673.742 92.8477C673.59 92.4757 673.454 89.756 673.438 86.8032C673.414 82.219 673.501 81.435 674.036 81.435C674.381 81.435 676.983 82.0934 679.818 82.898ZM742.715 85.6761C741.228 86.672 739.894 87.6775 739.749 87.9113C739.37 88.5247 738.731 88.0037 738.731 87.0799C738.731 86.3653 738.549 86.411 736.804 87.5633L734.877 88.8359L735.013 93.6434C735.157 98.7669 734.856 99.4945 733.648 96.9522C732.949 95.4819 732.953 95.4422 733.805 94.877C735.065 94.0416 734.871 93.519 733.356 93.6652C732.182 93.7783 732.022 93.944 731.905 95.1732C731.724 97.0661 732.853 99.8292 734.075 100.482L735.08 101.019V107.824C735.08 114.465 735.058 114.641 734.167 115.12C733.327 115.573 733.481 115.67 736.094 116.333C739.976 117.317 743.194 117.695 743.194 117.166C743.194 116.935 742.549 116.533 741.76 116.273C739.411 115.499 739.198 114.808 739.098 107.609L739.008 101.169L740.146 100.341C740.772 99.8855 741.847 98.9994 742.535 98.3723C743.223 97.7451 744.109 97.1293 744.504 97.0037C744.9 96.8785 745.223 96.6062 745.223 96.3984C745.223 95.6298 743.715 96.0597 741.572 97.4384C740.359 98.2183 739.224 98.8564 739.05 98.8564C738.875 98.8564 738.731 97.2893 738.731 95.3738C738.731 91.3547 739.088 90.5488 741.92 88.1625L743.792 86.5844L744.321 88.3651C744.612 89.3443 744.776 90.5561 744.687 91.0573C744.597 91.5585 744.594 91.9689 744.679 91.9689C745.034 91.9689 748.018 89.9395 748.276 89.5218C748.553 89.0749 746.148 83.8659 745.665 83.8659C745.529 83.8659 744.201 84.6807 742.715 85.6761ZM687.796 85.1081C687.965 84.8358 688.448 84.7588 688.963 84.9221C689.789 85.1842 690.302 85.2681 692.275 85.4634C692.907 85.5258 692.952 85.6044 692.478 85.8187C692.144 85.9702 691.362 86.4378 690.741 86.8579C690.121 87.2781 689.495 87.5045 689.351 87.3607C689.207 87.2173 688.675 87.4895 688.167 87.966C687.587 88.5093 686.934 88.7516 686.413 88.6155C685.956 88.4963 685.479 88.564 685.354 88.7658C685.23 88.9675 684.928 89.1328 684.683 89.1328C684.438 89.1328 684.586 88.7224 685.011 88.2212L685.784 87.3097L684.881 88.073C684.384 88.4927 684.076 88.9951 684.196 89.19C684.317 89.3844 684.084 89.6453 683.679 89.7693C683.275 89.8933 682.383 90.2681 681.696 90.6019C681.01 90.9362 680.189 91.2485 679.871 91.2967C679.553 91.3445 679.09 91.5103 678.844 91.6642C678.006 92.1881 676.044 92.8323 676.452 92.4498C676.675 92.2407 679.122 90.3937 681.889 88.346C685.254 85.8552 687.017 84.7795 687.214 85.0975C687.434 85.4533 687.581 85.4561 687.796 85.1081ZM687.964 85.7904C687.459 86.4329 687.473 86.4471 688.117 85.9435C688.793 85.414 689.008 85.0813 688.674 85.0813C688.59 85.0813 688.27 85.4006 687.964 85.7904ZM666.773 89.617C669.605 91.8887 671.721 93.8135 671.478 93.8946C671.234 93.976 670.108 93.8739 668.976 93.6685C666.925 93.2962 666.917 93.299 666.965 94.354C666.997 95.0922 667.07 95.189 667.203 94.6741C667.321 94.2179 667.626 94.0238 668.001 94.1676C668.334 94.2952 669.048 94.3998 669.588 94.3998C670.128 94.3998 670.569 94.6015 670.569 94.8483C670.569 95.095 670.295 95.1918 669.96 95.0634C669.626 94.9354 669.352 95.0265 669.352 95.266C669.352 95.5058 669.093 95.6027 668.777 95.4815C668.461 95.3604 668.094 95.5423 667.962 95.8855C667.83 96.2286 667.462 96.4097 667.143 96.2878C666.825 96.1658 666.475 96.2837 666.366 96.5495C666.224 96.8951 666.045 96.8598 665.737 96.4255C665.362 95.8948 665.307 95.9025 665.301 96.4835C665.291 97.5563 664.085 97.7787 664.037 96.7168C663.998 95.8563 663.985 95.8599 663.722 96.8007C663.38 98.0198 662.588 98.339 662.333 97.3594C662.177 96.7573 662.135 96.7821 662.096 97.5C662.064 98.085 661.615 98.5428 660.73 98.8917C660.005 99.1777 659.29 99.4791 659.141 99.5614C658.993 99.644 658.785 99.3823 658.681 98.98C658.524 98.3755 658.483 98.3994 658.444 99.1169C658.387 100.183 657.193 100.772 657.152 99.7554C657.126 99.1412 657.088 99.1477 656.827 99.811C656.542 100.534 653.921 101.952 653.947 101.369C653.954 101.213 654.222 99.1704 654.543 96.8307C654.863 94.4909 655.132 92.4401 655.138 92.2727C655.157 91.8348 656.369 91.8972 656.369 92.3359C656.369 92.5381 656.734 92.6078 657.18 92.4915C657.769 92.3376 658.004 92.4871 658.039 93.0356C658.081 93.7151 658.105 93.7199 658.271 93.083C658.373 92.6933 658.617 92.374 658.813 92.374C659.008 92.374 659.354 92.6933 659.582 93.083C659.812 93.4764 660.001 93.5668 660.008 93.2856C660.027 92.4968 661.234 92.6905 661.27 93.4882C661.289 93.9116 661.384 93.9934 661.506 93.6908C661.813 92.9311 662.853 93.0814 662.907 93.8933C662.945 94.4707 662.986 94.4845 663.126 93.9659C663.324 93.2325 665.7 93.3768 665.7 94.1214C665.7 94.4164 665.859 94.4034 666.181 94.0825C666.445 93.8188 666.58 93.5222 666.481 93.4238C666.383 93.3249 664.049 92.8788 661.296 92.4324C658.543 91.9855 656.198 91.5281 656.085 91.4158C655.973 91.3036 656.364 90.6983 656.954 90.0708C657.545 89.4436 658.613 88.1609 659.328 87.2209C660.044 86.2806 660.853 85.5059 661.127 85.4991C661.402 85.4922 663.942 87.3453 666.773 89.617ZM684.528 87.2084L683.755 88.12L684.668 87.3482C685.526 86.6229 685.765 86.2968 685.441 86.2968C685.364 86.2968 684.953 86.7072 684.528 87.2084ZM754.345 90.9276C751.731 92.7034 751.079 92.9967 750.965 92.447C750.705 91.1882 750.302 91.1983 748.496 92.5114L746.698 93.818L746.798 96.2845L746.899 98.7511L745.351 98.7025C743.93 98.6579 743.792 98.7503 743.668 99.832C743.418 102.022 744.024 103.828 745.443 105.127L746.815 106.381L746.867 112.819C746.918 119.105 746.896 119.275 745.979 119.965L745.04 120.673L746.045 120.907C754.027 122.771 757.231 122.779 753.236 120.927C751.622 120.178 751.495 119.997 751.243 118.101C751.095 116.987 750.958 113.859 750.939 111.15L750.903 106.225L752.969 104.668C754.105 103.811 755.559 102.723 756.198 102.25C757.316 101.424 757.386 100.882 756.376 100.882C756.113 100.882 754.789 101.598 753.433 102.473C750.812 104.165 750.6 104.104 750.702 101.692C750.735 100.913 750.793 99.2887 750.832 98.0842C750.9 95.9948 751.001 95.804 753.033 93.9339C754.205 92.8558 755.37 91.9729 755.622 91.9713C756.189 91.9685 757.077 95.3199 756.741 96.1938C756.406 97.0657 756.739 96.998 758.62 95.8125C760.598 94.5659 760.654 93.8127 758.988 90.9041C758.302 89.7069 757.706 88.7277 757.663 88.7277C757.62 88.7277 756.127 89.7179 754.345 90.9276ZM680.661 90.247C680.156 90.8896 680.17 90.9037 680.814 90.4001C681.49 89.8706 681.705 89.538 681.371 89.538C681.287 89.538 680.967 89.8572 680.661 90.247ZM653.772 93.083C653.648 93.696 653.453 95.1088 653.337 96.2229C652.945 100.019 652.62 101.442 652.007 102.055C651.459 102.602 651.423 102.574 651.669 101.799C651.874 101.156 651.723 100.812 651.083 100.471C650.609 100.218 649.898 99.7052 649.502 99.3321C649.107 98.9589 648.288 98.3006 647.682 97.8687C647.076 97.4372 646.242 96.7991 645.828 96.4506C645.415 96.1026 644.742 95.6112 644.333 95.3588C643.924 95.1064 643.68 94.8114 643.791 94.7028C644.092 94.4107 652.392 92.0434 653.256 92.0033C653.855 91.9754 653.955 92.1844 653.772 93.083ZM633.388 96.0799C633.741 99.4581 633.717 103.719 633.344 103.713C633.177 103.711 632.253 103.259 631.291 102.71C629.744 101.827 629.57 101.798 629.779 102.455C630.033 103.258 628.767 104.68 628.501 103.891C628.42 103.652 627.808 103.536 627.141 103.634C626.106 103.786 625.964 103.701 626.168 103.056C626.389 102.356 626.373 102.352 625.95 103.009C625.426 103.822 623.926 103.969 623.879 103.212C623.853 102.807 623.806 102.807 623.642 103.212C623.393 103.827 622.032 103.883 621.667 103.293C621.486 103.002 621.231 103.012 620.849 103.328C620.54 103.585 620.062 103.644 619.77 103.462C619.481 103.282 618.809 103.192 618.277 103.26C617.744 103.329 617.154 103.141 616.965 102.843C616.708 102.438 616.619 102.429 616.614 102.807C616.61 103.085 616.242 103.313 615.796 103.313C615.35 103.313 614.985 103.208 614.985 103.08C614.985 102.578 618.343 97.2358 618.659 97.2358C618.843 97.2358 619.107 97.4181 619.245 97.641C619.383 97.8638 619.79 98.0461 620.15 98.0461C620.509 98.0461 621.138 98.348 621.546 98.7166C621.971 99.1011 622.288 99.1919 622.288 98.9297C622.288 98.6782 621.719 98.1786 621.024 97.8196C620.329 97.4607 619.918 97.0187 620.111 96.8372C620.376 96.5888 631.465 93.7949 632.88 93.6199C633.016 93.6033 633.244 94.7101 633.388 96.0799ZM638.366 94.2191C639.733 94.3698 641.084 94.6364 641.368 94.8118C641.998 95.2003 641.388 96.0228 637.087 100.592L634.054 103.814V98.6579C634.054 93.5149 634.056 93.5024 634.967 93.7232C635.469 93.8451 636.998 94.0684 638.366 94.2191ZM655.995 94.636C656.014 95.108 656.111 95.204 656.24 94.8811C656.357 94.5886 656.343 94.2389 656.208 94.1044C656.073 93.9699 655.977 94.2089 655.995 94.636ZM657.65 95.2101C657.65 95.7672 657.742 95.9953 657.854 95.7165C657.967 95.4382 657.967 94.9824 657.854 94.7036C657.742 94.4253 657.65 94.653 657.65 95.2101ZM705.464 95.4945C705.466 95.8952 705.83 99.2312 706.273 102.908C706.717 106.585 707.08 109.658 707.082 109.738C707.083 109.818 706.604 109.763 706.018 109.616C705.092 109.384 704.978 109.456 705.164 110.164C705.281 110.613 705.99 114.314 706.738 118.389C707.964 125.059 708.126 125.615 708.373 123.975C708.524 122.973 708.661 120.922 708.678 119.418C708.709 116.584 709.116 116.027 710.012 117.595C710.473 118.401 710.557 118.087 710.736 114.86L710.939 111.213L711.97 112.702L713.001 114.191L715.078 112.994C717.385 111.664 717.283 111.961 717.87 104.878L718.126 101.784L716.041 98.6996C714.895 97.0033 713.826 95.6217 713.666 95.6294C713.505 95.6375 712.917 95.9045 712.359 96.2229C710.986 97.0069 710.813 96.9761 710.663 95.9191C710.547 95.1003 710.275 94.9953 707.998 94.8868C705.782 94.7814 705.462 94.858 705.464 95.4945ZM646.109 97.4907C647.4 98.5226 648.686 99.6513 648.964 99.9993C649.244 100.347 649.472 100.471 649.472 100.276C649.472 100.08 649.837 100.31 650.283 100.789C651.618 102.22 651.187 103.243 649.37 102.956C649.203 102.929 649.066 103.066 649.066 103.258C649.066 103.728 645.534 105.055 645.061 104.763C644.856 104.637 644.579 104.817 644.445 105.164C644.312 105.511 644.032 105.69 643.822 105.56C643.613 105.431 643.327 105.511 643.187 105.737C643.047 105.964 642.736 106.149 642.498 106.149C642.202 106.149 642.151 105.081 642.337 102.807C642.768 97.5368 643.058 95.6152 643.422 95.6152C643.608 95.6152 644.817 96.4591 646.109 97.4907ZM726.056 95.8482C725.928 95.9766 725.988 96.6589 726.191 97.3651C726.394 98.0708 726.56 100.751 726.56 103.322C726.56 108.32 726.094 109.795 724.516 109.795C723.54 109.795 723.425 109.249 723.107 103.11C722.881 98.7693 722.76 98.1717 721.968 97.5283C719.563 95.5719 719.662 95.3466 719.662 102.72V109.447L720.899 111.242C721.579 112.229 722.393 113.037 722.708 113.037C723.022 113.037 724.017 112.337 724.917 111.481C725.818 110.626 726.647 110.018 726.76 110.131C726.872 110.244 726.965 111.058 726.965 111.942V113.548L728.487 113.297C729.324 113.159 730.25 113.044 730.545 113.041C730.914 113.038 730.819 112.704 730.241 111.969C729.463 110.983 729.4 110.37 729.4 103.89C729.4 99.5776 729.558 96.7804 729.812 96.624C730.625 96.1221 729.726 95.6152 728.024 95.6152C727.07 95.6152 726.184 95.7202 726.056 95.8482ZM641.973 100.715L641.687 104.529L639.798 104.524C638.759 104.522 637.229 104.407 636.398 104.27L634.887 104.021L635.656 103.045C637.813 100.306 641.976 96.0504 642.108 96.4474C642.191 96.697 642.131 98.6174 641.973 100.715ZM655.589 97.0669C655.609 97.5389 655.705 97.6349 655.834 97.312C655.951 97.0195 655.937 96.6698 655.802 96.5353C655.667 96.4008 655.572 96.6398 655.589 97.0669ZM658.835 97.0669C658.854 97.5389 658.951 97.6349 659.08 97.312C659.197 97.0195 659.183 96.6698 659.048 96.5353C658.913 96.4008 658.818 96.6398 658.835 97.0669ZM669.149 98.4513C668.05 99.5654 666.937 100.477 666.676 100.477C666.414 100.477 666.11 100.001 665.998 99.42C665.818 98.4748 666.016 98.2637 667.879 97.4177C671.04 95.9823 671.342 96.2282 669.149 98.4513ZM657.244 97.641C657.244 98.198 657.336 98.4261 657.449 98.1474C657.561 97.8691 657.561 97.4133 657.449 97.1345C657.336 96.8562 657.244 97.0839 657.244 97.641ZM690.183 97.7418C689.995 98.0534 689.248 98.7397 688.522 99.2664L687.204 100.224L687.21 112.201C687.214 118.789 687.354 124.395 687.522 124.659C687.691 124.924 688.692 125.51 689.748 125.961C691.276 126.616 691.667 126.667 691.667 126.213C691.667 125.9 691.479 125.528 691.25 125.386C690.975 125.217 690.846 120.402 690.872 111.346C690.894 103.765 690.825 97.4753 690.718 97.3687C690.611 97.2622 690.371 97.4303 690.183 97.7418ZM713.755 104.178C714 109.301 713.95 110.406 713.453 110.902C712.931 111.424 712.73 111.412 711.798 110.802C710.738 110.109 710.736 110.097 710.736 104.544C710.736 99.1745 710.768 98.965 711.649 98.5404C713.41 97.6924 713.451 97.803 713.755 104.178ZM622.7 98.7985C622.715 99.4261 623.451 100.153 623.833 99.9175C624.063 99.7753 624.527 99.9345 624.863 100.271C625.2 100.607 625.782 100.882 626.157 100.882C626.621 100.882 626.756 101.093 626.582 101.547C626.382 102.068 626.445 102.114 626.87 101.761C627.277 101.425 627.638 101.467 628.3 101.929C628.787 102.27 629.185 102.392 629.185 102.199C629.185 102.007 627.724 101.105 625.939 100.194C624.154 99.2834 622.696 98.6555 622.7 98.7985ZM655.215 99.6667C655.215 100.224 655.308 100.452 655.42 100.173C655.533 99.8948 655.533 99.439 655.42 99.1603C655.308 98.8819 655.215 99.1096 655.215 99.6667ZM680.298 101.554C677.295 103.727 677.262 103.739 677.135 102.721C677.065 102.156 676.928 101.692 676.832 101.692C676.736 101.692 675.745 102.346 674.632 103.145C672.934 104.363 672.671 104.719 673.005 105.342C673.337 105.962 673.35 107.068 673.049 109.086C673.024 109.254 672.456 109.39 671.786 109.39C670.684 109.39 670.569 109.266 670.565 108.074C670.561 106.737 668.423 102.503 667.752 102.503C667.55 102.503 666.869 102.914 666.239 103.418C665.608 103.921 664.225 104.935 663.164 105.671L661.237 107.01V105.745V104.481L659.001 106.225C657.772 107.184 656.95 108.031 657.176 108.106C657.422 108.188 657.58 110.13 657.573 112.969L657.56 117.696L656.558 116.559C655.307 115.139 655.237 113.62 656.41 113.314C657.582 113.007 656.985 112.226 655.578 112.226C654.6 112.226 654.393 112.424 654.178 113.57C653.813 115.514 654.772 117.945 656.285 118.911L657.555 119.722L657.57 126.178C657.585 132.238 657.533 132.691 656.714 133.561C655.687 134.653 655.528 134.573 660.656 135.563C664.838 136.371 667.086 136.059 664.281 135.06C663.39 134.743 662.436 134.26 662.164 133.988C661.837 133.661 661.582 131.222 661.414 126.81L661.16 120.127L663.662 118.101C665.039 116.987 666.528 115.94 666.973 115.775C667.827 115.457 667.654 114.657 666.731 114.657C666.432 114.657 665.228 115.302 664.055 116.091C662.881 116.879 661.768 117.619 661.579 117.735C661.391 117.851 661.237 116.1 661.237 113.845V109.743L663.534 107.557C664.797 106.355 665.968 105.456 666.136 105.56C666.512 105.792 667.103 108.917 666.961 109.923C666.864 110.611 666.935 110.618 668.085 110.024C668.76 109.676 669.412 109.39 669.535 109.39C669.658 109.39 669.758 110.22 669.758 111.234C669.758 113.474 670.551 115.111 672.206 116.288L673.45 117.172L673.375 123.222C673.309 128.57 673.208 129.389 672.497 130.291C672.056 130.852 671.76 131.365 671.841 131.431C672.144 131.677 678.929 132.89 680.002 132.889C681.474 132.889 681.434 132.212 679.943 131.885C677.685 131.39 677.491 130.795 677.203 123.524L676.94 116.855L678.116 116.086C678.763 115.664 679.84 114.804 680.509 114.176C681.179 113.548 682.046 112.932 682.437 112.806C682.827 112.68 683.147 112.418 683.147 112.223C683.147 111.447 682.423 111.514 680.895 112.433C680.014 112.964 678.79 113.686 678.176 114.038L677.061 114.678V110.621V106.564L679.191 104.537C680.362 103.423 681.533 102.509 681.792 102.507C682.305 102.502 682.986 105.391 682.817 106.851C682.713 107.752 682.722 107.751 684.54 106.649C685.658 105.971 686.372 105.242 686.379 104.772C686.395 103.824 684.372 99.7567 683.77 99.5261C683.529 99.4338 681.967 100.346 680.298 101.554ZM746.853 103.104C746.577 103.847 746.474 103.794 745.686 102.502C744.585 100.699 744.594 100.129 745.73 99.7052C746.55 99.3997 746.669 99.514 746.899 100.827C747.04 101.63 747.019 102.655 746.853 103.104ZM661.247 101.48C659.846 102.924 659.209 102.996 659.209 101.712C659.209 101.232 659.747 100.753 660.73 100.359C661.567 100.023 662.331 99.8239 662.427 99.9163C662.523 100.009 661.992 100.712 661.247 101.48ZM655.963 102.781C655.963 103.185 654.258 104.934 653.864 104.934C653.302 104.934 653.49 103.815 654.166 103.139C654.809 102.497 655.963 102.267 655.963 102.781ZM696.231 104.427C693.445 106.619 693.301 107.023 693.294 112.695L693.29 116.203L695.367 118.068C698.373 120.767 699.178 120.859 701.078 118.72C702.833 116.746 702.936 116.283 701.843 115.295C701.089 114.613 701.047 114.654 700.511 116.548C700.09 118.037 699.766 118.506 699.16 118.506C698.276 118.506 697.839 116.691 697.783 112.776C697.748 110.355 698.043 110.132 700.62 110.629C703.206 111.128 703.254 111.117 703.789 109.946C704.604 108.16 703.377 105.213 701.196 103.715C700.226 103.048 699.263 102.503 699.055 102.503C698.848 102.503 697.577 103.369 696.231 104.427ZM631.39 103.761C631.107 104.218 629.997 104.238 629.997 103.786C629.997 103.215 630.453 102.953 631.048 103.181C631.36 103.3 631.514 103.561 631.39 103.761ZM612.346 104.595C612.494 104.742 612.31 105.329 611.936 105.898C611.562 106.468 611.32 107.099 611.396 107.302C611.473 107.504 613.27 107.252 615.39 106.741C617.51 106.23 619.296 105.862 619.358 105.924C619.42 105.986 619.278 106.543 619.042 107.162C618.806 107.781 618.7 108.373 618.805 108.478C618.91 108.583 620.279 108.179 621.847 107.58C623.415 106.982 624.841 106.552 625.015 106.625C625.188 106.697 625.278 107.167 625.214 107.668C625.058 108.889 625.504 108.845 630.346 107.162C633.601 106.031 635.04 105.744 637.462 105.744C639.131 105.744 640.592 105.896 640.707 106.083C640.921 106.429 640.317 136.506 639.885 146.998L639.647 152.802L636.594 154.191L633.541 155.58L620.713 154.974C613.657 154.641 607.291 154.368 606.566 154.366L605.247 154.362V144.031C605.247 138.348 605.311 133.699 605.39 133.699C606.1 133.699 608.094 134.69 608.12 135.056C608.138 135.313 608.142 138.166 608.13 141.397C608.108 147.16 608.088 147.289 607.083 148.164C606.52 148.655 606.059 149.156 606.059 149.278C606.059 149.4 608.999 149.5 612.593 149.5H619.128L617.857 148.314L616.586 147.129L616.698 141.163L616.81 135.198L618.433 134.643C619.326 134.338 620.632 133.818 621.335 133.489C622.038 133.159 622.814 132.889 623.059 132.889C623.369 132.889 623.505 135.438 623.505 141.226V149.562L622.319 150.747L621.133 151.931L624.246 151.948C625.958 151.958 628.683 152.067 630.301 152.191C633.221 152.415 634.081 152.035 632.567 151.189C631.563 150.628 631.277 147.614 631.243 137.271C631.214 128.09 631.215 128.081 632.127 127.776C633.378 127.358 634.935 127.579 635.731 128.288C636.325 128.816 636.437 128.756 636.799 127.719C637.022 127.082 637.529 126.236 637.926 125.839C638.532 125.234 638.556 125.059 638.075 124.756C637.204 124.205 634.194 124.312 632.67 124.947L631.313 125.514L631.06 123.675C630.922 122.664 630.808 119.597 630.808 116.86C630.808 112.129 630.859 111.823 631.833 110.667C632.396 109.998 632.716 109.377 632.543 109.286C632.37 109.195 630.585 109.171 628.577 109.232C626.568 109.293 624.105 109.354 623.103 109.367L621.282 109.39L622.393 110.419L623.505 111.449V120.493V129.536L620.969 130.774C616.45 132.98 616.841 133.694 616.608 122.801C616.46 115.926 616.539 113.003 616.892 112.166L617.38 111.011H611.908C606.614 111.011 606.449 111.036 606.858 111.799C607.09 112.232 607.462 112.698 607.684 112.835C607.933 112.989 608.087 116.79 608.087 122.785V132.486L606.769 131.951C605.609 131.481 605.435 131.208 605.324 129.692C605.255 128.743 605.414 127.707 605.678 127.389C606.021 126.977 606.028 126.812 605.702 126.812C605.377 126.812 605.247 123.575 605.247 115.426V104.04L608.662 104.183C610.541 104.262 612.199 104.447 612.346 104.595ZM616.79 104.891C616.222 105.425 613.767 105.87 613.767 105.438C613.767 104.769 614.289 104.529 615.742 104.529C616.602 104.529 617.021 104.674 616.79 104.891ZM699.609 106.048C699.938 106.884 700.382 107.878 700.595 108.258C700.808 108.637 700.849 109.018 700.686 109.104C700.253 109.334 698.205 109.167 697.917 108.879C697.537 108.5 698.182 104.529 698.623 104.529C698.836 104.529 699.28 105.212 699.609 106.048ZM623.505 105.299C623.505 105.5 622.957 105.855 622.288 106.088C621.206 106.465 621.071 106.424 621.071 105.723C621.071 105.116 621.352 104.934 622.288 104.934C622.957 104.934 623.505 105.098 623.505 105.299ZM630.402 105.536C630.402 105.765 627.636 106.959 627.107 106.959C626.911 106.959 626.751 106.595 626.751 106.149C626.751 105.459 627.021 105.339 628.577 105.339C629.581 105.339 630.402 105.428 630.402 105.536ZM673.332 111.702C673.422 114.142 672.83 114.653 671.823 113.003C670.753 111.25 670.762 110.897 671.888 110.373C673.126 109.797 673.266 109.925 673.332 111.702ZM650.504 122.254C650.674 122.644 650.896 125.354 650.999 128.276C651.16 132.869 651.088 133.737 650.471 134.678C650.001 135.394 649.466 135.724 648.904 135.644C648.181 135.541 648.011 135.153 647.791 133.092C647.648 131.755 647.511 129.283 647.487 127.598C647.461 125.823 647.23 124.268 646.936 123.899C646.186 122.957 644.301 121.856 644.081 122.232C643.976 122.411 643.942 125.44 644.005 128.963C644.117 135.21 644.148 135.407 645.24 136.982C645.857 137.87 646.521 138.696 646.717 138.816C647.188 139.107 649.044 137.905 650.167 136.581L651.065 135.522L651.08 137.22C651.088 138.154 651.232 138.989 651.399 139.076C651.566 139.163 652.553 139.157 653.592 139.063C655.47 138.892 655.477 138.886 654.684 138.094C653.937 137.348 653.894 136.804 654.012 129.421L654.137 121.544L652.167 121.544C650.443 121.545 650.235 121.634 650.504 122.254ZM738.65 124.057C738.918 124.324 739.137 124.369 739.137 124.158C739.136 123.776 748.472 123.844 748.858 124.229C748.964 124.335 748.751 125.278 748.386 126.326C748.02 127.373 745.308 135.796 742.359 145.043C739.409 154.291 736.909 161.948 736.801 162.06C736.512 162.359 736.946 157.535 737.293 156.59C737.531 155.942 737.503 155.901 737.153 156.388C736.807 156.868 736.714 156.698 736.709 155.574C736.706 154.793 736.874 153.559 737.083 152.832C737.315 152.023 737.316 151.6 737.085 151.743C736.863 151.88 736.799 151.18 736.928 150.028C737.049 148.958 737.155 142.706 737.164 136.135C737.173 129.564 737.266 124.049 737.371 123.879C737.645 123.436 738.09 123.498 738.65 124.057ZM735.938 135.725C735.908 142.076 735.768 150.827 735.626 155.172L735.369 163.073L731.408 167.327L727.447 171.581L722.033 173.359C719.056 174.338 711.781 176.76 705.868 178.743L695.115 182.348L689.655 186.562L684.193 190.777L682.512 189.484C681.588 188.773 679.088 186.861 676.958 185.235L673.084 182.279L657.119 176.991L641.154 171.703L639.154 169.616C638.053 168.468 636.182 166.502 634.995 165.246L632.837 162.963L632.84 159.979L632.844 156.995L636.796 155.367C640.494 153.844 640.756 153.659 640.87 152.495C640.988 151.297 641.182 151.18 646.145 149.317C648.979 148.253 654.281 146.218 657.928 144.795C661.575 143.372 664.816 142.207 665.13 142.207C665.557 142.207 665.7 142.821 665.7 144.647C665.7 146.94 665.801 147.196 667.362 148.887C668.275 149.877 668.96 150.851 668.883 151.052C668.806 151.253 667.788 152.455 666.621 153.724C664.932 155.56 663.732 156.384 660.738 157.766C658.669 158.72 656.669 159.611 656.292 159.745C655.583 159.998 654.901 161.876 654.49 164.716L654.251 166.36L659.469 167.419L664.686 168.477L671.695 167.571L678.705 166.664L680.418 165.047C681.361 164.158 683.319 162.328 684.769 160.983C686.22 159.637 688.502 157.515 689.841 156.267L692.275 153.998L695.098 155.545C696.65 156.396 697.988 157.293 698.07 157.539C698.152 157.785 697.024 158.574 695.565 159.293C693.197 160.459 692.774 160.857 691.637 162.987C690.936 164.301 690.519 165.513 690.71 165.68C690.902 165.848 692.701 166.277 694.71 166.635C696.718 166.992 700.329 167.653 702.733 168.103L707.104 168.922L712.267 167.758L717.431 166.593L720.523 163.264L723.615 159.935L723.873 155.021C724.015 152.319 724.146 147.829 724.164 145.043L724.197 139.979L721.727 133.831C720.368 130.449 719.257 127.495 719.257 127.265C719.257 127.036 719.85 126.739 720.575 126.606C721.301 126.473 724.724 125.841 728.183 125.202C731.641 124.564 734.813 124.072 735.231 124.11C735.956 124.175 735.989 124.712 735.938 135.725ZM749.893 145.7C750.056 156.576 750.029 165.289 749.834 165.405C749.641 165.52 747.399 165.174 744.853 164.636C742.306 164.097 740.024 163.727 739.781 163.813C739.538 163.899 740.436 164.193 741.774 164.466C743.113 164.74 745.449 165.238 746.966 165.574L749.723 166.185L748.284 167.938C747.493 168.902 746.846 169.869 746.846 170.086C746.846 170.303 746.572 170.586 746.237 170.714C745.903 170.843 745.629 171.227 745.629 171.568C745.629 171.909 745.442 172.188 745.213 172.188C744.985 172.188 744.624 172.644 744.412 173.201C744.199 173.758 743.839 174.214 743.61 174.214C743.381 174.214 743.194 174.493 743.194 174.834C743.194 175.176 742.921 175.56 742.586 175.688C742.251 175.817 741.977 176.082 741.977 176.278C741.977 176.781 739.809 179.852 739.441 179.871C739.274 179.879 739.137 179.516 739.137 179.063C739.137 178.611 738.701 175.831 738.168 172.885C737.635 169.939 737.081 166.575 736.938 165.41L736.677 163.29L737.805 163.431C738.426 163.508 738.615 163.492 738.224 163.395C737.307 163.167 737.329 162.367 738.345 159.189C738.802 157.76 739.7 154.949 740.339 152.944C740.98 150.938 743.162 144.172 745.189 137.909C747.216 131.645 748.875 126.276 748.875 125.977C748.875 125.641 749.013 125.581 749.239 125.819C749.439 126.031 749.733 134.977 749.893 145.7ZM718.039 127.773C718.039 128.079 718.416 129.218 718.877 130.305C721.087 135.519 722.097 138.186 722.097 138.812C722.097 139.283 715.399 135.177 713.601 133.603C713.28 133.322 712.823 133 712.585 132.889C711.511 132.385 707.896 129.835 707.896 129.58C707.896 129.425 708.216 129.207 708.606 129.098C709.576 128.824 715.242 127.877 716.079 127.848C716.45 127.835 716.892 127.688 717.059 127.521C717.542 127.039 718.039 127.167 718.039 127.773ZM739.169 127.858C739.189 128.33 739.285 128.426 739.414 128.103C739.532 127.811 739.517 127.461 739.382 127.327C739.248 127.192 739.152 127.431 739.169 127.858ZM707.508 134.712C708.222 137.163 708.949 139.653 709.124 140.245L709.441 141.321L706.944 140.061C705.571 139.367 704.356 138.701 704.244 138.579C704.132 138.458 703.493 138.074 702.824 137.727C699.619 136.063 695.888 133.976 695.541 133.653C695.329 133.456 694.999 133.294 694.808 133.294C694.202 133.294 694.885 134.031 696.036 134.62C699.62 136.452 709.111 141.917 709.102 142.142C709.09 142.4 707.873 143.147 697.144 149.48L692.275 152.354L692.019 150.352C691.559 146.752 691.156 132.078 691.518 132.092C691.711 132.099 692.225 132.372 692.658 132.699C693.657 133.454 694.139 133.459 693.852 132.712C693.729 132.392 693.37 132.229 693.053 132.35C692.737 132.471 692.478 132.397 692.478 132.185C692.478 131.973 694.715 131.392 697.448 130.893C700.182 130.394 703.058 129.846 703.839 129.676C704.733 129.48 705.435 129.53 705.734 129.81C705.995 130.055 706.794 132.261 707.508 134.712ZM708.973 131.268C709.965 131.937 710.916 132.484 711.086 132.484C711.256 132.484 711.749 132.806 712.181 133.2C712.994 133.94 715.511 135.631 720.051 138.492C722.829 140.241 722.804 140.384 719.662 140.753C718.658 140.871 716.787 141.09 715.504 141.24C714.22 141.39 713.171 141.657 713.171 141.833C713.171 142.134 713.56 142.108 716.639 141.596C719.212 141.169 722.502 140.998 722.486 141.293C722.477 141.462 721.975 142.261 721.37 143.069C714.332 152.478 712.236 155.184 712.095 155.044C712.004 154.952 711.664 152.71 711.34 150.062C711.017 147.413 710.642 144.563 710.506 143.727C710.263 142.232 710.28 142.207 711.58 142.207C712.306 142.207 712.771 142.079 712.614 141.922C712.457 141.765 711.837 141.628 711.235 141.618C710.188 141.6 710.069 141.365 708.442 136.13C707.508 133.122 706.729 130.524 706.711 130.357C706.656 129.831 707.116 130.017 708.973 131.268ZM759.883 133.801C760.224 134.436 760.031 134.51 758.018 134.51C755.55 134.51 755.426 134.313 756.02 131.345L756.269 130.104L757.886 131.598C758.775 132.419 759.674 133.411 759.883 133.801ZM691.019 141.195C691.168 145.428 691.398 149.576 691.53 150.412C691.813 152.202 691.279 152.394 690.117 150.918C689.678 150.361 689.162 149.903 688.971 149.901C688.78 149.898 688.005 149.26 687.248 148.483C686.492 147.705 685.696 147.069 685.481 147.069C685.265 147.069 685.197 146.786 685.33 146.44C685.478 146.056 685.404 145.915 685.141 146.078C684.588 146.419 682.683 144.654 683.019 144.112C683.158 143.887 683.086 143.818 682.858 143.958C682.284 144.313 679.413 141.79 679.659 141.148C679.774 140.851 679.643 140.711 679.353 140.822C678.827 141.024 675.486 138.382 675.843 138.046C675.955 137.941 678.237 137.002 680.915 135.96C683.593 134.917 686.331 133.831 687.001 133.545C690.265 132.153 690.235 132.159 690.497 132.844C690.635 133.203 690.87 136.961 691.019 141.195ZM739.169 133.53C739.189 134.002 739.285 134.098 739.414 133.775C739.532 133.483 739.517 133.133 739.382 132.999C739.248 132.864 739.152 133.103 739.169 133.53ZM738.764 135.151C738.783 135.623 738.879 135.719 739.009 135.396C739.126 135.103 739.111 134.754 738.977 134.619C738.842 134.485 738.746 134.724 738.764 135.151ZM763.77 137.43C764.726 138.368 765.503 139.325 765.496 139.557C765.488 139.789 764.215 140.944 762.666 142.123L759.849 144.267L756.783 142.326C753.454 140.218 753.475 140.27 754.751 137.221L755.377 135.725H758.704H762.03L763.77 137.43ZM738.358 136.772C738.377 137.244 738.473 137.34 738.603 137.017C738.72 136.724 738.706 136.374 738.571 136.24C738.436 136.105 738.34 136.344 738.358 136.772ZM677.669 140.699C682.279 144.659 690.45 152.05 690.45 152.261C690.45 152.45 686.282 152.205 680.712 151.689C678.704 151.503 678.183 151.558 678.529 151.919C678.78 152.18 679.875 152.414 680.964 152.44C682.053 152.465 683.078 152.68 683.242 152.918C683.427 153.186 683.542 153.195 683.546 152.941C683.549 152.706 684.329 152.595 685.378 152.678C686.603 152.775 687.204 153.009 687.204 153.39C687.204 153.701 687.021 153.957 686.798 153.957C686.575 153.957 686.392 154.121 686.392 154.322C686.392 154.523 687.243 154.432 688.283 154.12C691.785 153.067 692.135 152.62 682.514 161.497L678.075 165.594L672.755 166.258C664.646 167.27 664.839 167.517 669.96 162.664C674.463 158.398 676.637 156.984 679.36 156.552C680.178 156.422 681.319 156.134 681.896 155.911C682.472 155.688 683.278 155.438 683.686 155.356C685.183 155.054 685.987 154.704 685.987 154.353C685.987 154.154 685.256 154.25 684.364 154.564C683.471 154.879 682.741 155.061 682.741 154.97C682.741 154.878 681.991 155.067 681.075 155.39C680.159 155.713 679.246 155.876 679.047 155.753C678.847 155.63 678.684 155.742 678.684 156.002C678.684 156.262 678.41 156.369 678.075 156.241C677.74 156.113 677.466 156.168 677.466 156.365C677.466 156.561 676.9 156.693 676.209 156.656C675.19 156.603 674.574 156.119 672.968 154.111L670.984 151.633L673.11 151.765C674.279 151.838 675.828 151.987 676.553 152.097C677.279 152.208 677.872 152.148 677.872 151.965C677.872 151.56 675.447 151.131 673.129 151.125C672.194 151.123 671.328 150.958 671.205 150.76C671.013 150.449 674.326 139.779 674.905 138.843C675.019 138.659 675.414 138.766 675.782 139.081C676.151 139.396 677 140.124 677.669 140.699ZM670.318 142.329C667.617 145.217 666.582 145.903 666.837 144.638C666.904 144.304 666.995 143.407 667.04 142.646C667.084 141.884 667.374 141.177 667.684 141.074C668.068 140.947 668.142 141.058 667.916 141.424C667.733 141.72 668.146 141.561 668.834 141.072C669.523 140.582 670.343 140.182 670.656 140.182C670.969 140.182 671.58 139.923 672.013 139.607C673.661 138.403 673.008 139.452 670.318 142.329ZM672.854 142.439C672.498 143.481 672.297 144.481 672.409 144.661C672.52 144.84 672.437 145.094 672.225 145.225C672.013 145.357 671.548 146.463 671.193 147.684C670.837 148.906 670.455 149.905 670.343 149.905C670.034 149.905 667.526 146.98 667.526 146.62C667.526 146.231 673.151 140.243 673.353 140.417C673.434 140.486 673.209 141.396 672.854 142.439ZM722.755 150.31C722.601 154.767 722.345 158.758 722.185 159.178C721.848 160.064 717.174 165.301 716.721 165.301C716.553 165.301 716.417 164.952 716.417 164.524C716.417 164.097 716.28 163.687 716.112 163.613C715.593 163.382 712.334 156.793 712.739 156.793C712.95 156.793 713.238 156.978 713.378 157.204C713.518 157.431 713.795 157.516 713.994 157.393C714.192 157.271 714.719 157.398 715.164 157.675C715.61 157.953 716.092 158.062 716.236 157.919C716.774 157.381 715.935 156.831 714.175 156.567C713.176 156.418 712.359 156.226 712.359 156.14C712.359 155.954 715.277 151.817 715.613 151.526C715.742 151.414 716.286 150.685 716.822 149.905C717.359 149.125 717.901 148.396 718.028 148.285C718.155 148.173 719.257 146.76 720.477 145.145C721.698 143.529 722.772 142.207 722.865 142.207C722.958 142.207 722.908 145.854 722.755 150.31ZM710.681 149.382C711.577 156.104 711.586 156.023 709.44 161.047C707.244 166.188 706.899 166.921 706.682 166.921C706.207 166.919 701.197 158.08 701.5 157.778C701.595 157.683 703.757 157.339 706.305 157.014C710.252 156.509 710.458 156.45 707.693 156.621C705.908 156.73 703.854 156.925 703.129 157.054C702.206 157.218 701.81 157.132 701.81 156.77C701.81 156.293 709.607 142.97 709.783 143.146C709.825 143.189 710.23 145.995 710.681 149.382ZM707.842 145.145C707.336 145.869 706.821 146.553 706.699 146.664C706.576 146.775 706.417 147.14 706.344 147.474C706.271 147.809 706.043 148.143 705.837 148.217C705.63 148.292 705.461 148.61 705.461 148.926C705.461 149.242 705.324 149.5 705.155 149.5C704.986 149.5 704.59 150.092 704.274 150.817C703.959 151.541 703.586 152.225 703.445 152.336C703.303 152.448 702.869 153.223 702.48 154.058C702.09 154.894 701.598 155.577 701.385 155.577C701.173 155.577 700.998 155.942 700.998 156.388C700.998 156.833 700.9 157.198 700.778 157.198C700.324 157.198 692.884 152.991 692.884 152.734C692.884 152.587 693.613 152.118 694.503 151.692C695.393 151.267 696.123 150.782 696.126 150.614C696.128 150.447 696.495 150.31 696.941 150.31C697.388 150.31 697.753 150.149 697.753 149.953C697.753 149.756 698.072 149.494 698.463 149.371C699.607 149.01 702.39 147.316 702.743 146.765C702.922 146.487 703.424 146.259 703.859 146.259C704.294 146.259 704.65 146.077 704.65 145.854C704.65 145.631 704.924 145.449 705.259 145.449C705.593 145.449 705.868 145.266 705.868 145.043C705.868 144.821 706.244 144.638 706.703 144.638C707.162 144.638 707.426 144.456 707.288 144.233C707.15 144.01 707.425 143.828 707.9 143.828H708.762L707.842 145.145ZM672.183 153.945C674.608 156.838 674.628 157.913 672.295 159.876C671.264 160.743 669.339 162.455 668.017 163.68C666.695 164.906 665.436 165.974 665.22 166.054C664.984 166.141 664.909 165.415 665.032 164.231C665.145 163.148 665.25 161.025 665.266 159.514L665.295 156.765L667.323 156.982C668.439 157.101 670.281 157.298 671.416 157.419C672.8 157.567 673.394 157.501 673.218 157.217C673.074 156.984 671.643 156.79 670.038 156.787C665.741 156.777 665.485 156.438 667.917 153.972C669.024 152.849 670.057 151.931 670.212 151.931C670.367 151.931 671.254 152.837 672.183 153.945ZM688.421 153.146C688.421 153.369 688.238 153.552 688.015 153.552C687.792 153.552 687.61 153.369 687.61 153.146C687.61 152.924 687.792 152.741 688.015 152.741C688.238 152.741 688.421 152.924 688.421 153.146ZM626.612 156.595C627.103 156.745 630.808 162.244 630.808 162.821C630.808 163.186 618.615 165.686 618.129 165.42C617.742 165.207 617.727 156.62 618.113 156.234C618.381 155.967 625.558 156.271 626.612 156.595ZM631.477 159.6C631.51 161.204 631.468 162.449 631.384 162.365C630.954 161.936 627.968 157.128 627.968 156.865C627.968 156.698 628.744 156.588 629.692 156.621L631.417 156.683L631.477 159.6ZM714.161 161.391C715.209 163.363 715.982 165.195 715.88 165.461C715.691 165.954 708.024 167.589 707.65 167.216C707.538 167.104 708.397 164.795 709.558 162.085C710.72 159.375 711.802 157.304 711.963 157.482C712.124 157.66 713.113 159.419 714.161 161.391ZM664.737 158.869C664.597 159.566 664.483 161.571 664.483 163.326C664.483 165.08 664.317 166.516 664.114 166.516C663.629 166.516 657.18 161.253 657.18 160.857C657.18 160.525 663.528 157.714 664.432 157.646C664.845 157.614 664.924 157.933 664.737 158.869ZM716.822 158.02C716.822 158.284 717.09 158.397 717.417 158.272C717.745 158.146 718.121 158.218 718.253 158.431C718.385 158.644 718.884 158.819 719.362 158.819C720.573 158.819 719.77 158.159 718.141 157.816C717.238 157.626 716.822 157.69 716.822 158.02ZM703.226 162.493C704.499 164.737 705.453 166.66 705.348 166.765C705.018 167.094 694.511 161.879 694.643 161.452C694.781 161.002 699.716 158.421 700.449 158.417C700.704 158.415 701.954 160.249 703.226 162.493ZM720.474 158.819C720.474 159.041 720.759 159.224 721.106 159.224C721.454 159.224 721.626 159.041 721.488 158.819C721.35 158.596 721.066 158.413 720.856 158.413C720.645 158.413 720.474 158.596 720.474 158.819ZM658.493 163.044C658.613 162.925 659.073 163.286 659.515 163.848C659.957 164.409 660.434 164.753 660.575 164.612C660.716 164.471 660.832 164.69 660.832 165.098C660.832 165.507 660.945 165.728 661.083 165.59C661.328 165.345 662.454 166.24 662.454 166.68C662.454 166.802 662.017 166.735 661.482 166.532C660.947 166.329 660.399 166.273 660.265 166.407C660.13 166.541 660.02 166.464 660.02 166.234C660.02 166.005 659.564 165.868 659.006 165.928C658.296 166.007 657.982 165.838 657.959 165.367C657.94 164.946 657.851 164.883 657.723 165.2C657.421 165.948 656.779 165.815 656.746 164.997C656.721 164.379 656.678 164.388 656.41 165.072C655.832 166.545 655.522 164.988 656.009 163.057L656.483 161.177L657.38 162.219C657.873 162.792 658.374 163.163 658.493 163.044ZM698.3 164.331C702.462 166.424 702.963 166.768 701.201 166.323C700.532 166.154 699.619 165.986 699.173 165.949C698.726 165.912 696.954 165.637 695.234 165.336L692.107 164.79L692.708 163.628C693.04 162.988 693.598 162.465 693.949 162.465C694.3 162.465 696.258 163.305 698.3 164.331ZM630.973 166.838C630.69 168.332 630.141 171.879 629.751 174.721C629.361 177.562 628.898 179.886 628.722 179.886C628.546 179.886 628.189 179.488 627.927 179C627.666 178.513 627.286 177.92 627.083 177.683C625.818 176.21 619.853 168.143 619.853 167.906C619.853 167.748 619.534 167.383 619.143 167.095C618.099 166.324 618.824 165.901 622.166 165.329C623.772 165.055 626.42 164.507 628.049 164.113C629.71 163.711 631.115 163.555 631.248 163.758C631.379 163.957 631.255 165.343 630.973 166.838ZM633.016 164.997C633.123 165.498 633.288 166.273 633.382 166.719C633.525 167.391 633.562 167.363 633.601 166.555C633.647 165.606 633.67 165.6 634.46 166.314C634.906 166.717 635.271 167.323 635.271 167.66C635.271 167.996 635.393 168.15 635.542 168.001C635.964 167.58 637.3 168.981 637.3 169.844C637.3 170.268 637.456 170.519 637.647 170.402C637.837 170.284 638.42 170.641 638.941 171.195L639.889 172.203L638.493 173.37C637.725 174.012 636.96 174.454 636.792 174.352C636.625 174.25 636.488 174.376 636.488 174.632C636.488 174.888 636.078 175.431 635.575 175.838C634.734 176.522 634.641 176.527 634.387 175.903C634.172 175.377 634.105 175.437 634.082 176.175C634.067 176.697 633.643 177.457 633.141 177.864C632.3 178.547 632.207 178.553 631.952 177.929C631.724 177.369 631.672 177.397 631.648 178.094C631.632 178.556 631.163 179.363 630.605 179.886C629.663 180.769 629.591 180.782 629.589 180.058C629.588 179.172 631.597 165.367 631.841 164.592C632.099 163.769 632.806 164.013 633.016 164.997ZM736.302 164.794C736.304 164.962 736.85 168.289 737.514 172.188C738.972 180.744 738.954 180.437 737.965 179.821C737.509 179.535 737.026 178.513 736.768 177.285C736.356 175.32 736.346 175.308 736.534 177.011C736.746 178.923 736.704 178.926 734.674 177.147C734.339 176.853 732.97 175.786 731.631 174.774C730.292 173.763 729.025 172.77 728.816 172.567C728.37 172.135 730.141 170.072 730.675 170.402C730.866 170.519 731.023 170.345 731.023 170.014C731.023 169.682 731.479 169.053 732.037 168.615C732.595 168.176 733.051 167.671 733.051 167.492C733.051 167.086 735.577 164.521 735.993 164.504C736.16 164.496 736.299 164.627 736.302 164.794ZM735.159 168.745C735.167 169.413 735.258 169.638 735.361 169.243C735.464 168.849 735.457 168.302 735.346 168.028C735.235 167.754 735.151 168.076 735.159 168.745ZM632.901 169.352C632.901 169.909 632.993 170.138 633.105 169.859C633.218 169.58 633.218 169.125 633.105 168.846C632.993 168.568 632.901 168.795 632.901 169.352ZM634.944 169.96C634.953 170.629 635.043 170.853 635.146 170.459C635.249 170.065 635.243 169.518 635.131 169.243C635.02 168.969 634.936 169.292 634.944 169.96ZM733.083 169.994C733.103 170.466 733.199 170.562 733.328 170.239C733.446 169.946 733.431 169.597 733.296 169.462C733.162 169.328 733.066 169.567 733.083 169.994ZM636.926 172.019C636.945 172.491 637.042 172.587 637.171 172.265C637.288 171.972 637.274 171.622 637.139 171.488C637.004 171.353 636.909 171.592 636.926 172.019ZM632.51 172.796C632.518 173.465 632.609 173.689 632.712 173.295C632.815 172.901 632.808 172.354 632.697 172.079C632.586 171.805 632.502 172.128 632.51 172.796ZM733.489 172.425C733.509 172.897 733.605 172.993 733.734 172.67C733.851 172.377 733.837 172.028 733.702 171.893C733.567 171.759 733.472 171.998 733.489 172.425ZM634.524 172.999C634.524 173.556 634.616 173.784 634.728 173.505C634.841 173.227 634.841 172.771 634.728 172.492C634.616 172.214 634.524 172.442 634.524 172.999ZM656.369 177.95C663.175 180.24 668.692 182.297 668.629 182.52C668.566 182.743 669.205 183.016 670.049 183.127C671.101 183.266 671.561 183.521 671.511 183.938C671.374 185.089 668.827 194.269 668.56 194.575C668.305 194.866 664.733 193.865 663.875 193.261C663.651 193.105 662.597 192.741 661.531 192.453C660.466 192.165 659.496 191.772 659.377 191.58C659.258 191.388 658.715 191.23 658.17 191.23C657.626 191.23 657.18 191.018 657.18 190.758C657.18 190.498 657.069 190.397 656.933 190.533C656.69 190.774 652.806 189.541 651.405 188.778C651.017 188.567 650.496 188.394 650.248 188.394C650 188.394 649.222 188.136 648.519 187.82C647.815 187.504 646.053 186.854 644.603 186.376C643.152 185.897 641.6 185.347 641.154 185.153C640.708 184.96 639.612 184.57 638.72 184.287C637.827 184.004 636.924 183.627 636.711 183.45C636.5 183.273 635.976 183.127 635.548 183.127C634.97 183.127 634.825 182.919 634.983 182.317C635.177 181.575 634.995 181.507 632.798 181.507C631.481 181.507 630.402 181.337 630.402 181.129C630.402 180.922 632.587 178.924 635.256 176.69L640.111 172.629L642.052 173.207C643.12 173.524 649.563 175.659 656.369 177.95ZM733.089 176.641C735.732 178.737 737.818 180.528 737.724 180.622C737.544 180.802 736.76 180.854 727.27 181.324C723.978 181.487 721.285 181.788 721.285 181.993C721.285 182.197 721.422 182.282 721.59 182.181C721.757 182.08 725.271 181.894 729.4 181.768C733.528 181.641 736.632 181.639 736.297 181.761C735.962 181.884 735.113 182.242 734.41 182.556C733.707 182.87 732.955 183.127 732.74 183.127C732.394 183.127 729.478 184.201 727.168 185.178C726.722 185.367 725.444 185.785 724.328 186.107C723.212 186.429 721.752 186.921 721.082 187.201C720.413 187.48 719.683 187.755 719.459 187.813C719.236 187.87 717.842 188.379 716.361 188.945C714.881 189.51 713.557 189.861 713.42 189.724C713.283 189.587 713.171 189.688 713.171 189.947C713.171 190.207 712.803 190.42 712.354 190.42C711.904 190.42 711.174 190.602 710.731 190.825C710.288 191.048 709.562 191.413 709.119 191.636C708.676 191.858 708.034 192.041 707.693 192.041C707.353 192.041 706.757 192.211 706.369 192.418C704.682 193.323 699.996 194.846 699.746 194.57C699.595 194.405 699.065 192.811 698.569 191.028C698.072 189.245 697.411 186.979 697.101 185.993C696.256 183.311 696.324 183.127 698.158 183.127C699.274 183.127 699.781 182.951 699.781 182.564C699.781 182.184 704.32 180.475 713.678 177.329C721.321 174.759 727.733 172.696 727.928 172.743C728.123 172.79 730.445 174.544 733.089 176.641ZM735.923 173.64C735.943 174.112 736.039 174.208 736.169 173.885C736.286 173.593 736.271 173.243 736.136 173.109C736.002 172.974 735.906 173.213 735.923 173.64ZM733.895 174.856C733.914 175.328 734.01 175.424 734.14 175.101C734.257 174.808 734.243 174.458 734.108 174.324C733.973 174.189 733.877 174.429 733.895 174.856ZM632.089 175.43C632.089 175.987 632.181 176.215 632.294 175.936C632.407 175.658 632.407 175.202 632.294 174.923C632.181 174.645 632.089 174.873 632.089 175.43ZM635.677 181.666C635.677 182.051 636.891 182.244 637.108 181.894C637.24 181.681 636.971 181.507 636.512 181.507C636.053 181.507 635.677 181.579 635.677 181.666ZM637.705 181.899C637.705 182.115 637.979 182.187 638.314 182.059C638.649 181.93 638.923 181.754 638.923 181.666C638.923 181.579 638.649 181.507 638.314 181.507C637.979 181.507 637.705 181.684 637.705 181.899ZM639.328 181.899C639.328 182.115 639.602 182.187 639.937 182.059C640.272 181.93 640.545 181.754 640.545 181.666C640.545 181.579 640.272 181.507 639.937 181.507C639.602 181.507 639.328 181.684 639.328 181.899ZM640.951 181.912C640.951 182.135 641.134 182.317 641.357 182.317C641.58 182.317 641.763 182.135 641.763 181.912C641.763 181.689 641.58 181.507 641.357 181.507C641.134 181.507 640.951 181.689 640.951 181.912ZM642.168 181.925C642.168 182.141 642.442 182.317 642.777 182.317C643.112 182.317 643.386 182.245 643.386 182.158C643.386 182.07 643.112 181.894 642.777 181.765C642.442 181.637 642.168 181.709 642.168 181.925ZM708.911 182.146C704.001 182.388 700.258 182.638 700.593 182.7C701.642 182.896 708.854 182.721 710.077 182.47C710.838 182.314 711.364 182.421 711.592 182.78C711.848 183.185 711.942 183.196 711.947 182.824C711.951 182.461 712.872 182.317 715.175 182.317C716.948 182.317 718.491 182.165 718.606 181.98C718.721 181.794 718.595 181.656 718.326 181.674C718.057 181.691 713.82 181.904 708.911 182.146ZM719.257 181.936C719.257 182.172 719.439 182.252 719.662 182.115C719.885 181.977 720.068 181.784 720.068 181.686C720.068 181.587 719.885 181.507 719.662 181.507C719.439 181.507 719.257 181.7 719.257 181.936ZM634.46 182.317C634.46 182.54 634.288 182.722 634.078 182.722C633.868 182.722 633.583 182.54 633.445 182.317C633.307 182.094 633.479 181.912 633.827 181.912C634.175 181.912 634.46 182.094 634.46 182.317ZM643.994 182.12C644.902 182.443 653.123 182.557 653.123 182.247C653.123 182.063 650.978 181.927 648.356 181.944C645.734 181.961 643.771 182.041 643.994 182.12ZM653.529 182.317C653.529 182.54 653.939 182.719 654.441 182.716C655.179 182.711 655.238 182.635 654.746 182.317C653.959 181.81 653.529 181.81 653.529 182.317ZM655.605 182.499C655.934 182.828 668.13 183.042 667.928 182.715C667.832 182.56 664.97 182.399 661.569 182.357C658.168 182.315 655.484 182.379 655.605 182.499ZM675.843 191.504C675.843 191.605 676.32 192.724 676.903 193.991C679.714 200.1 682.338 206.354 682.163 206.528C682.056 206.635 681.703 206.458 681.38 206.135C681.056 205.812 678.148 203.226 674.916 200.388L669.041 195.229L670.173 190.9C670.795 188.519 671.413 186.252 671.546 185.862C671.678 185.472 671.892 184.834 672.021 184.444C672.183 183.952 672.804 184.896 674.049 187.527C675.036 189.613 675.843 191.402 675.843 191.504ZM679.089 188.312L683.755 191.907L683.808 196.633C683.843 199.779 683.714 201.359 683.422 201.359C683.136 201.359 683.153 201.527 683.471 201.845C684.087 202.46 684.111 204.6 683.503 204.6C683.179 204.6 683.188 204.77 683.532 205.184C683.799 205.504 683.956 206.279 683.88 206.906C683.751 207.979 683.691 207.932 682.836 206.068C681.783 203.774 681.758 203.643 682.437 204.034C682.716 204.194 682.542 203.884 682.05 203.344C681.268 202.484 679.901 199.797 679.901 199.12C679.901 198.988 680.129 199.011 680.408 199.17C680.687 199.329 680.447 198.929 679.874 198.282C678.883 197.162 677.538 194.509 677.317 193.239C677.261 192.914 676.82 192.018 676.34 191.247C675.858 190.476 675.347 189.291 675.203 188.613C675.06 187.936 674.701 187.108 674.407 186.773C674.113 186.438 673.679 185.658 673.444 185.04C673.059 184.031 673.087 183.956 673.719 184.316C674.107 184.537 676.523 186.335 679.089 188.312ZM697.506 189.094C699.015 194.202 699.233 195.522 698.606 195.755C698.175 195.914 693.783 199.754 690.122 203.173C687.476 205.642 685.987 206.831 685.987 206.471C685.987 206.361 688.014 201.656 690.491 196.016C692.968 190.376 695.164 185.325 695.371 184.793C695.578 184.261 695.814 183.896 695.895 183.983C695.976 184.069 696.701 186.369 697.506 189.094ZM694.911 184.647C694.91 184.814 694.545 185.547 694.1 186.277C693.654 187.007 693.29 187.793 693.29 188.024C693.29 188.255 692.85 189.39 692.312 190.547C691.775 191.702 690.923 193.651 690.421 194.877C689.918 196.102 689.034 197.635 688.456 198.282C687.879 198.929 687.655 199.316 687.957 199.143C688.689 198.723 688.242 200.228 687.059 202.169C686.583 202.949 686.235 203.711 686.284 203.862C686.333 204.013 685.936 205.106 685.402 206.293L684.431 208.449L684.426 205.418C684.423 203.686 684.627 202.133 684.9 201.795C685.273 201.334 685.266 201.27 684.871 201.508C684.5 201.73 684.364 201.392 684.364 200.249C684.364 199.389 684.592 198.44 684.871 198.139C685.226 197.758 685.233 197.676 684.894 197.866C684.537 198.066 684.409 197.342 684.409 195.121V192.104L686.71 190.351C687.975 189.386 689.381 188.289 689.832 187.914C693.427 184.921 694.915 183.964 694.911 184.647ZM686.385 199.951C686.102 200.29 685.95 200.647 686.045 200.743C686.142 200.839 686.443 200.561 686.715 200.125C687.304 199.184 687.108 199.08 686.385 199.951ZM620.969 334.957C656.729 335.014 715.245 335.014 751.005 334.957C786.765 334.9 757.506 334.853 685.987 334.853C614.467 334.853 585.21 334.9 620.969 334.957Z" fill="#AF9855"/>
</svg>
