<svg width="1272" height="60" viewBox="0 0 1272 60" fill="none" xmlns="http://www.w3.org/2000/svg">
<path d="M398.5 30H0" stroke="#AF9855" stroke-width="4"/>
<path d="M1271.5 30H873" stroke="#AF9855" stroke-width="4"/>
<path fill-rule="evenodd" clip-rule="evenodd" d="M505.491 1.18106C506.12 2.14148 506.238 3.75083 506.126 9.78242L505.988 17.2027L504.316 14.5915C503.397 13.1554 502.545 11.9803 502.424 11.9803C501.775 11.9803 494.658 16.1994 494.467 16.6971C494.343 17.0205 494.586 21.5361 495.007 26.7326C495.428 31.929 495.772 36.3138 495.772 36.477C495.772 36.6398 497.033 37.6436 498.575 38.7074L501.378 40.6412L503.808 39.3438L506.237 38.046V39.5131V40.9801L509.351 40.8319C511.844 40.7126 512.422 40.5334 512.244 39.9344C511.915 38.8207 511.172 10.365 511.352 5.74056C511.438 3.54417 511.691 1.35427 511.916 0.873564C512.285 0.0823646 511.966 0 508.521 0H504.719L505.491 1.18106ZM566.287 1.18106C566.916 2.14148 567.034 3.75083 566.921 9.78242L566.783 17.2027L565.112 14.5915C564.193 13.1554 563.341 11.9803 563.22 11.9803C562.571 11.9803 555.454 16.1994 555.263 16.6971C555.139 17.0205 555.382 21.5361 555.803 26.7326C556.223 31.929 556.568 36.3138 556.568 36.477C556.568 36.6398 557.829 37.6436 559.371 38.7074L562.174 40.6412L564.603 39.3438L567.033 38.046V39.5131V40.9801L570.147 40.8319C572.639 40.7126 573.217 40.5334 573.04 39.9344C572.711 38.8207 571.968 10.365 572.148 5.74056C572.234 3.54417 572.487 1.35427 572.712 0.873564C573.081 0.0823646 572.761 0 569.317 0H565.515L566.287 1.18106ZM439.605 6.25023C436.648 7.76574 433.186 9.77344 431.912 10.7114L429.595 12.4166L429.234 17.7224C428.687 25.7517 429.148 36.8664 430.102 38.6864C431.726 41.7838 440.632 49.4188 442.622 49.4188C447.338 49.4188 456.903 42.7343 456.903 39.4377C456.903 37.8658 455.975 37.4225 451.071 36.6498L448.978 36.3203L448.829 39.7422L448.68 43.1636L446.687 44.2578C442.967 46.2999 442.317 46.2575 439.762 43.805L437.468 41.6031L437.479 27.4154C437.489 14.7308 437.581 13.1144 438.351 12.155C439.467 10.7643 444.437 8.27939 444.992 8.83498C445.705 9.5488 447.434 15.0363 447.434 16.5837C447.434 17.3824 447.192 18.4896 446.896 19.0442C446.599 19.5988 446.435 20.1309 446.531 20.2268C446.627 20.3226 448.158 19.2678 449.935 17.8826C451.712 16.4974 453.597 15.0592 454.125 14.6869C455.4 13.7868 454.948 12.8604 450.669 7.61249C448.203 4.58796 447.001 3.49426 446.146 3.49426C445.505 3.49426 442.562 4.73422 439.605 6.25023ZM482.464 8.45311C478.097 11.6723 477.672 12.189 479.701 11.8091L481.321 11.5061V23.1959C481.321 34.7099 481.304 34.8976 480.213 35.6629C479.175 36.3917 479.38 36.4401 483.488 36.4401C487.345 36.4401 487.782 36.3522 487.137 35.7058C485.711 34.2777 485.298 14.0599 486.685 13.5991C487.743 13.2477 489.013 16.9641 488.396 18.6069L487.876 19.9921L490.881 18.3573C492.534 17.4583 493.991 16.4609 494.119 16.141C494.412 15.4067 490.76 8.98523 490.049 8.98523C489.758 8.98523 488.696 9.66661 487.687 10.4992L485.854 12.0133L485.705 9.09305L485.556 6.17335L482.464 8.45311ZM678.805 8.45311C674.438 11.6723 674.012 12.189 676.041 11.8091L677.661 11.5061V23.1959C677.661 34.7099 677.644 34.8976 676.553 35.6629C675.515 36.3917 675.72 36.4401 679.828 36.4401C683.685 36.4401 684.123 36.3522 683.477 35.7058C682.052 34.2777 681.638 14.0599 683.025 13.5991C684.083 13.2477 685.354 16.9641 684.737 18.6069L684.216 19.9921L687.221 18.3573C688.874 17.4583 690.331 16.4609 690.459 16.141C690.752 15.4067 687.1 8.98523 686.389 8.98523C686.099 8.98523 685.036 9.66661 684.028 10.4992L682.194 12.0133L682.046 9.09305L681.897 6.17335L678.805 8.45311ZM463.801 12.1041C460.042 14.628 459.705 15.7242 461.729 18.844C463.295 21.2581 464.887 21.7507 464.496 19.7001C464.219 18.245 465.18 16.9806 467.697 15.493L469.381 14.4977L469.247 24.5541C469.149 31.7882 468.945 34.666 468.518 34.8083C466.61 35.4442 465.409 26.753 467.056 24.2342C467.514 23.5343 467.652 22.9623 467.362 22.9623C466.331 22.9623 462.115 25.3808 460.932 26.6512L459.729 27.9431L460.828 32.0558C462.08 36.7436 463.29 39.1062 464.564 39.3518C465.048 39.4452 466.325 38.9375 467.402 38.2237L469.361 36.9253V38.4298C469.361 40.7795 470.713 40.3187 474.012 36.8459C476.733 33.9811 476.87 33.7296 475.894 33.3677C474.884 32.9933 474.842 32.6628 474.842 24.942C474.842 20.5043 474.618 16.4859 474.341 15.9678C473.914 15.1696 469.365 11.3933 467.538 10.3205C467.221 10.1343 465.54 10.937 463.801 12.1041ZM579.413 12.1041C575.654 14.628 575.317 15.7242 577.34 18.844C578.907 21.2581 580.499 21.7507 580.108 19.7001C579.83 18.245 580.792 16.9806 583.308 15.493L584.993 14.4977L584.858 24.5541C584.761 31.7882 584.557 34.666 584.13 34.8083C582.222 35.4442 581.021 26.753 582.668 24.2342C583.126 23.5343 583.264 22.9623 582.974 22.9623C581.943 22.9623 577.727 25.3808 576.544 26.6512L575.341 27.9431L576.44 32.0558C577.692 36.7436 578.902 39.1062 580.175 39.3518C580.659 39.4452 581.937 38.9375 583.014 38.2237L584.972 36.9253V38.4298C584.972 40.7795 586.325 40.3187 589.624 36.8459C592.345 33.9811 592.482 33.7296 591.506 33.3677C590.495 32.9933 590.454 32.6628 590.454 24.942C590.454 20.5043 590.229 16.4859 589.952 15.9678C589.526 15.1696 584.977 11.3933 583.15 10.3205C582.833 10.1343 581.151 10.937 579.413 12.1041ZM750.837 12.1041C747.078 14.628 746.741 15.7242 748.765 18.844C750.331 21.2581 751.923 21.7507 751.532 19.7001C751.254 18.245 752.216 16.9806 754.732 15.493L756.417 14.4977L756.282 24.5541C756.185 31.7882 755.981 34.666 755.554 34.8083C753.646 35.4442 752.445 26.753 754.092 24.2342C754.55 23.5343 754.688 22.9623 754.398 22.9623C753.367 22.9623 749.151 25.3808 747.968 26.6512L746.765 27.9431L747.864 32.0558C749.116 36.7436 750.326 39.1062 751.6 39.3518C752.083 39.4452 753.361 38.9375 754.438 38.2237L756.396 36.9253V38.4298C756.396 40.7795 757.749 40.3187 761.048 36.8459C763.769 33.9811 763.906 33.7296 762.93 33.3677C761.919 32.9933 761.878 32.6628 761.878 24.942C761.878 20.5043 761.653 16.4859 761.376 15.9678C760.95 15.1696 756.401 11.3933 754.574 10.3205C754.257 10.1343 752.575 10.937 750.837 12.1041ZM769.193 15.493L765.795 20.4838L766.542 28.0589C767.368 36.4361 767.161 36.0103 771.591 38.4348L773.75 39.6159L775.164 37.9217C775.942 36.9897 777.076 35.6574 777.684 34.961L778.79 33.6946L778.788 41.1823C778.786 46.1342 778.581 49.0314 778.181 49.7372C777.587 50.7845 773.337 54.5793 773.069 54.3022C772.994 54.2244 772.584 52.8177 772.157 51.1764C771.469 48.5282 771.465 48.064 772.123 47.0582C773.119 45.5347 772.588 45.6305 769.407 47.5488C765.371 49.9823 765.314 50.218 767.687 54.7595C768.806 56.901 770.039 58.717 770.426 58.7944C771.081 58.9251 774.925 55.9321 781.297 50.3293L783.952 47.9951L784.196 31.0355L784.441 14.0764L781.756 12.5339C778.503 10.6655 778.323 10.6495 778.323 12.2299C778.323 12.9163 778.179 13.4778 778.004 13.4778C777.829 13.4778 776.592 12.804 775.256 11.9803C773.92 11.1567 772.773 10.4873 772.709 10.4928C772.645 10.4982 771.063 12.7485 769.193 15.493ZM634.809 13.6026C634.811 13.671 635.369 18.2201 636.048 23.711C636.726 29.202 637.285 34.3066 637.289 35.0549C637.296 36.3198 637.204 36.3802 635.981 35.9145C635.258 35.6389 634.595 35.4852 634.508 35.573C634.421 35.6604 635.422 41.4509 636.734 48.4409C638.265 56.596 639.227 60.7022 639.42 59.9015C639.585 59.2152 639.878 55.7828 640.072 52.2741L640.423 45.8941L641.725 47.7815L643.027 49.6684L643.276 43.9927L643.526 38.317L645.176 40.6232C646.084 41.8916 646.981 42.9135 647.169 42.8945C647.358 42.875 648.858 42.0154 650.502 40.9836L653.492 39.1082L654.192 31.6295L654.891 24.1508L651.837 19.5998C650.156 17.0969 648.56 14.9115 648.289 14.7438C648.018 14.576 646.9 14.896 645.805 15.4556C643.268 16.752 643.276 16.754 643.276 14.9754V13.4778H639.041C636.711 13.4778 634.807 13.5343 634.809 13.6026ZM777.671 17.1738C778.04 17.5132 778.391 20.2787 778.595 24.4598L778.924 31.1987L776.644 33.4106C774.418 35.5695 774.341 35.6005 773.366 34.7169C772.432 33.8698 772.384 33.3607 772.625 26.7645C772.767 22.8889 773.003 18.5305 773.15 17.0799L773.416 14.4418L775.246 15.5345C776.253 16.1355 777.345 16.8733 777.671 17.1738ZM660.967 17.7753C659.048 19.2918 657.276 21.0229 657.028 21.6225C656.781 22.222 656.556 25.7791 656.53 29.5265L656.482 36.3408L658.941 38.5117C663.315 42.3729 663.546 42.5056 665.32 42.1727C666.578 41.9361 667.394 41.2422 668.822 39.1951C669.846 37.727 670.684 36.3238 670.684 36.0772C670.684 35.8306 670.044 35.0134 669.261 34.2622L667.837 32.8954L667.525 35.1757C667.353 36.4296 666.855 38.1483 666.418 38.9949L665.623 40.5344L664.401 39.3848C663.223 38.2756 663.185 38.03 663.319 32.4706L663.459 26.7061L665.314 26.5519C666.387 26.463 668.098 26.8094 669.372 27.374L671.576 28.3504L672.378 26.5299C673.123 24.8377 673.116 24.4982 672.277 21.7143C671.475 19.0522 671.077 18.5111 668.702 16.8473C667.232 15.818 665.675 14.9849 665.242 14.9964C664.81 15.0083 662.886 16.2583 660.967 17.7753ZM792.525 17.7753C790.606 19.2918 788.834 21.0229 788.586 21.6225C788.339 22.222 788.114 25.7791 788.088 29.5265L788.04 36.3408L790.499 38.5117C794.873 42.3729 795.104 42.5056 796.878 42.1727C798.136 41.9361 798.952 41.2422 800.38 39.1951C801.404 37.727 802.242 36.3238 802.242 36.0772C802.242 35.8306 801.602 35.0134 800.819 34.2622L799.395 32.8954L799.083 35.1757C798.911 36.4296 798.413 38.1483 797.976 38.9949L797.181 40.5344L795.959 39.3848C794.781 38.2756 794.743 38.03 794.877 32.4706L795.017 26.7061L796.872 26.5519C797.945 26.463 799.656 26.8094 800.93 27.374L803.134 28.3504L803.936 26.5299C804.681 24.8377 804.674 24.4982 803.835 21.7143C803.033 19.0522 802.635 18.5111 800.26 16.8473C798.79 15.818 797.233 14.9849 796.8 14.9964C796.368 15.0083 794.444 16.2583 792.525 17.7753ZM739.44 16.2977C738.762 16.7505 737.367 17.9195 736.339 18.8949L734.47 20.669V18.3214C734.47 17.03 734.253 15.9737 733.988 15.9737C733.724 15.9737 732.034 17.041 730.234 18.3448C727.008 20.6815 726.982 20.7184 728.473 20.8722L729.985 21.0289V30.9526C729.985 40.6412 729.959 40.8943 728.877 41.653C727.84 42.3808 728.054 42.4298 732.241 42.4228C735.128 42.4178 736.458 42.2535 735.994 41.96C735.088 41.3855 734.529 36.5345 734.495 28.9474C734.471 23.4684 734.529 23.138 735.736 21.8341C736.432 21.0818 737.161 20.4699 737.355 20.4738C738.763 20.5043 738.973 21.7038 739.536 32.8884C740.079 43.6727 740.058 44.6112 739.25 45.9814L738.379 47.4575L741.532 45.5262L744.686 43.5948L744.82 32.5166L744.954 21.4383L742.933 18.4562C741.821 16.8164 740.857 15.4746 740.791 15.4746C740.726 15.4746 740.117 15.845 739.44 16.2977ZM819.172 16.2977C818.494 16.7505 817.099 17.9195 816.071 18.8949L814.202 20.669V18.3214C814.202 17.03 813.985 15.9737 813.72 15.9737C813.456 15.9737 811.766 17.041 809.966 18.3448C806.74 20.6815 806.714 20.7184 808.205 20.8722L809.717 21.0289V30.9526C809.717 40.6412 809.691 40.8943 808.609 41.653C807.572 42.3808 807.786 42.4298 811.973 42.4228C814.86 42.4178 816.191 42.2535 815.727 41.96C814.821 41.3855 814.262 36.5345 814.228 28.9474C814.203 23.4684 814.261 23.138 815.468 21.8341C816.165 21.0818 816.893 20.4699 817.087 20.4738C818.495 20.5043 818.705 21.7038 819.268 32.8884C819.811 43.6727 819.79 44.6112 818.982 45.9814L818.112 47.4575L821.264 45.5262L824.418 43.5948L824.552 32.5166L824.686 21.4383L822.665 18.4562C821.553 16.8164 820.589 15.4746 820.523 15.4746C820.458 15.4746 819.849 15.845 819.172 16.2977ZM504.866 17.936C506.213 19.8439 506.237 20.0041 506.237 27.3176V34.7579L504.476 35.599C502.022 36.7711 501.864 36.7087 501.212 34.3186C500.324 31.058 501.019 17.4308 502.117 16.5977C503.263 15.7276 503.33 15.7601 504.866 17.936ZM565.662 17.936C567.009 19.8439 567.033 20.0041 567.033 27.3176V34.7579L565.272 35.599C562.818 36.7711 562.659 36.7087 562.008 34.3186C561.119 31.058 561.815 17.4308 562.912 16.5977C564.059 15.7276 564.126 15.7601 565.662 17.936ZM713.732 18.2171C707.823 21.2216 708.128 20.6835 707.747 28.7512C707.564 32.6219 707.556 36.3567 707.73 37.0511C708.085 38.4658 714.421 43.9278 715.709 43.9278C717.118 43.9278 721.505 42.0564 723.287 40.6946C724.966 39.4122 725.001 39.3079 724.984 35.7907C724.953 29.4511 724.145 22.501 723.287 21.1892C722.54 20.0471 718.17 16.5134 717.469 16.4854C717.301 16.4784 715.619 17.2576 713.732 18.2171ZM665.171 18.0953C665.414 18.7127 666.19 20.5098 666.897 22.0887L668.18 24.959H665.644H663.108L663.465 21.3399C663.925 16.6666 664.316 15.9223 665.171 18.0953ZM796.729 18.0953C796.972 18.7127 797.748 20.5098 798.455 22.0887L799.738 24.959H797.202H794.666L795.023 21.3399C795.483 16.6666 795.874 15.9223 796.729 18.0953ZM523.429 18.0668C521.605 19.1011 514.708 24.5781 514.708 24.9924C514.708 25.2166 516.645 27.8283 519.012 30.7954C525.047 38.3619 524.905 38.1059 524.103 39.9204C523.736 40.7515 523.283 41.4319 523.097 41.4319C522.91 41.4319 522.068 40.8504 521.225 40.1395C519.946 39.0618 519.692 38.4872 519.692 36.6802C519.692 34.5332 519.679 34.5168 518.266 34.9226C515.266 35.7847 514.579 36.4181 514.901 38.027C515.224 39.6473 519.575 45.351 520.522 45.3969C521.322 45.4358 528.137 40.8169 529.619 39.232C531.155 37.5882 530.929 37.135 525.598 31.1802C520.18 25.1287 519.917 24.7079 520.607 23.1914C521.281 21.7098 523.149 21.5491 524.343 22.8704C525.447 24.0929 525.942 26.777 525.222 27.6456C524.738 28.2301 525.019 28.2615 527.029 27.8462C531.498 26.9227 531.647 25.559 527.824 20.5577C525.351 17.3235 525.046 17.1503 523.429 18.0668ZM603.161 18.0668C601.337 19.1011 594.441 24.5781 594.441 24.9924C594.441 25.2166 596.377 27.8283 598.744 30.7954C604.779 38.3619 604.637 38.1059 603.835 39.9204C603.468 40.7515 603.015 41.4319 602.829 41.4319C602.642 41.4319 601.8 40.8504 600.957 40.1395C599.678 39.0618 599.424 38.4872 599.424 36.6802C599.424 34.5332 599.411 34.5168 597.998 34.9226C594.998 35.7847 594.311 36.4181 594.633 38.027C594.956 39.6473 599.307 45.351 600.254 45.3969C601.054 45.4358 607.869 40.8169 609.351 39.232C610.887 37.5882 610.661 37.135 605.33 31.1802C599.912 25.1287 599.649 24.7079 600.339 23.1914C601.013 21.7098 602.881 21.5491 604.075 22.8704C605.179 24.0929 605.674 26.777 604.954 27.6456C604.47 28.2301 604.751 28.2615 606.761 27.8462C611.231 26.9227 611.38 25.559 607.556 20.5577C605.083 17.3235 604.778 17.1503 603.161 18.0668ZM699.338 18.0668C697.514 19.1011 690.617 24.5781 690.617 24.9924C690.617 25.2166 692.554 27.8283 694.921 30.7954C700.956 38.3619 700.814 38.1059 700.012 39.9204C699.645 40.7515 699.192 41.4319 699.006 41.4319C698.819 41.4319 697.977 40.8504 697.134 40.1395C695.855 39.0618 695.601 38.4872 695.601 36.6802C695.601 34.5332 695.588 34.5168 694.175 34.9226C691.175 35.7847 690.488 36.4181 690.81 38.027C691.133 39.6473 695.484 45.351 696.431 45.3969C697.231 45.4358 704.046 40.8169 705.528 39.232C707.064 37.5882 706.838 37.135 701.507 31.1802C696.089 25.1287 695.826 24.7079 696.516 23.1914C697.19 21.7098 699.058 21.5491 700.252 22.8704C701.356 24.0929 701.851 26.777 701.131 27.6456C700.647 28.2301 700.928 28.2615 702.938 27.8462C707.407 26.9227 707.556 25.559 703.733 20.5577C701.26 17.3235 700.955 17.1503 699.338 18.0668ZM834.883 18.0668C833.059 19.1011 826.162 24.5781 826.162 24.9924C826.162 25.2166 828.098 27.8283 830.466 30.7954C836.501 38.3619 836.358 38.1059 835.556 39.9204C835.189 40.7515 834.736 41.4319 834.55 41.4319C834.364 41.4319 833.522 40.8504 832.679 40.1395C831.4 39.0618 831.145 38.4872 831.145 36.6802C831.145 34.5332 831.132 34.5168 829.72 34.9226C826.72 35.7847 826.033 36.4181 826.354 38.027C826.678 39.6473 831.028 45.351 831.975 45.3969C832.775 45.4358 839.591 40.8169 841.072 39.232C842.609 37.5882 842.383 37.135 837.051 31.1802C831.633 25.1287 831.37 24.7079 832.061 23.1914C832.734 21.7098 834.603 21.5491 835.796 22.8704C836.901 24.0929 837.395 26.777 836.676 27.6456C836.191 28.2301 836.472 28.2615 838.482 27.8462C842.952 26.9227 843.101 25.559 839.277 20.5577C836.805 17.3235 836.499 17.1503 834.883 18.0668ZM647.987 27.5208C648.326 36.4456 648.289 37.1315 647.422 38.0005C646.517 38.9075 646.454 38.9031 644.894 37.8099L643.294 36.6897L643.285 28.1323L643.276 19.5748L645.145 18.7981C646.173 18.3713 647.151 18.0104 647.319 17.9964C647.487 17.9819 647.788 22.2679 647.987 27.5208ZM717.701 20.8407C717.862 21.596 718.146 26.2763 718.334 31.2421L718.676 40.2703L717.492 41.1004C716.384 41.8777 716.253 41.8752 715.445 41.0575C714.725 40.3292 714.513 38.6884 714.171 31.1987L713.761 22.2135L715.198 20.8407C715.989 20.0855 716.81 19.468 717.023 19.468C717.236 19.468 717.541 20.0855 717.701 20.8407Z" fill="#AF9855"/>
</svg>
